SplineFontDB: 3.2
FontName: FantasqueCompact-Regular
FullName: Fantasque Compact Regular
FamilyName: Fantasque Compact
Weight: Regular
Copyright: Created by Jany Belluz with FontForge 2.0 (http://fontforge.sf.net)
Version: 1.8.0 ; ttfautohint (v1.8.2)
ItalicAngle: 0
UnderlinePosition: -77
UnderlineWidth: 156
Ascent: 1650
Descent: 398
InvalidEm: 0
sfntRevision: 0x0001cccc
LayerCount: 2
Layer: 0 1 "Back" 1
Layer: 1 1 "Fore" 0
XUID: [1021 557 2059823606 28947]
StyleMap: 0x0040
FSType: 8
OS2Version: 4
OS2_WeightWidthSlopeOnly: 1
OS2_UseTypoMetrics: 1
CreationTime: 1379052706
ModificationTime: 1705839997
PfmFamily: 17
TTFWeight: 400
TTFWidth: 5
LineGap: 50
VLineGap: 0
Panose: 2 11 6 9 2 2 4 3 2 4
OS2TypoAscent: 1650
OS2TypoAOffset: 0
OS2TypoDescent: -398
OS2TypoDOffset: 0
OS2TypoLinegap: 100
OS2WinAscent: 1750
OS2WinAOffset: 0
OS2WinDescent: 398
OS2WinDOffset: 0
HheadAscent: 1700
HheadAOffset: 0
HheadDescent: -398
HheadDOffset: 0
OS2SubXSize: 1331
OS2SubYSize: 1433
OS2SubXOff: 0
OS2SubYOff: 286
OS2SupXSize: 1331
OS2SupYSize: 1433
OS2SupXOff: 0
OS2SupYOff: 983
OS2StrikeYSize: 102
OS2StrikeYPos: 530
OS2CapHeight: 1281
OS2XHeight: 1018
OS2FamilyClass: 2057
OS2Vendor: 'PfEd'
OS2CodePages: 0000009f.cf430000
OS2UnicodeRanges: 800002ef.1000396b.00000010.00000000
Lookup: 1 0 0 "'ss01' Style Set 1 lookup 0" { "'ss01' Style Set 1 lookup 0 subtable"  } ['ss01' ('DFLT' <'dflt' > 'cyrl' <'dflt' > 'grek' <'dflt' > 'latn' <'dflt' > ) ]
Lookup: 6 0 0 "'calt' Contextual Alternates lookup 1" { "'calt' Contextual Alternates lookup 1 contextual 0"  "'calt' Contextual Alternates lookup 1 contextual 1"  "'calt' Contextual Alternates lookup 1 contextual 2"  "'calt' Contextual Alternates lookup 1 contextual 3"  "'calt' Contextual Alternates lookup 1 contextual 4"  "'calt' Contextual Alternates lookup 1 contextual 5"  } ['calt' ('DFLT' <'dflt' > 'cyrl' <'dflt' > 'grek' <'dflt' > 'latn' <'dflt' > ) ]
Lookup: 1 0 0 "Single Substitution lookup 2" { "Single Substitution lookup 2 subtable"  } []

StartChar: .notdef
Encoding: 65536 -1 0
Width: 1060
GlyphClass: 1
Flags: W
LayerCount: 2
Fore
SplineSet
68 0 m 1,0,-1
 68 1365 l 1,1,-1
 612 1365 l 1,2,-1
 612 0 l 1,3,-1
 68 0 l 1,0,-1
136 68 m 1,4,-1
 544 68 l 1,5,-1
 544 1297 l 1,6,-1
 136 1297 l 1,7,-1
 136 68 l 1,4,-1
EndSplineSet
EndChar

StartChar: exclam
Encoding: 33 33 4
Width: 1060
GlyphClass: 1
Flags: W
LayerCount: 2
Fore
SplineSet
613 1319 m 1,0,-1
 597 431 l 1,1,-1
 431 431 l 1,2,-1
 415 1319 l 1,3,-1
 613 1319 l 1,0,-1
388 270 m 1,4,-1
 638 270 l 1,5,-1
 638 0 l 1,6,-1
 388 0 l 1,7,-1
 388 270 l 1,4,-1
EndSplineSet
Substitution2: "Single Substitution lookup 136 subtable" LIG
Substitution2: "Single Substitution lookup 126 subtable" LIG
Substitution2: "Single Substitution lookup 3 subtable" LIG
EndChar

StartChar: quotedbl
Encoding: 34 34 5
Width: 1060
GlyphClass: 1
Flags: W
LayerCount: 2
Fore
SplineSet
605 1464 m 1,0,-1
 790 1464 l 1,1,2
 790 1244 790 1244 781 1097 c 128,-1,3
 772 950 772 950 747 804 c 1,4,-1
 619 821 l 1,5,6
 634 903 634 903 634 1031 c 0,7,8
 634 1158 634 1158 605 1258 c 1,9,-1
 605 1464 l 1,0,-1
234 1464 m 1,10,-1
 419 1464 l 1,11,12
 419 1244 419 1244 410 1097 c 128,-1,13
 401 950 401 950 376 804 c 1,14,-1
 248 821 l 1,15,16
 263 904 263 904 263 1031 c 128,-1,17
 263 1158 263 1158 234 1258 c 1,18,-1
 234 1464 l 1,10,-1
EndSplineSet
EndChar

StartChar: numbersign
Encoding: 35 35 6
Width: 1060
GlyphClass: 1
Flags: W
LayerCount: 2
Fore
SplineSet
417 795 m 1,0,1
 413 741 413 741 391 541 c 1,2,3
 432 543 432 543 497 543 c 2,4,-1
 571 543 l 1,5,6
 577 591 577 591 586.5 682 c 128,-1,7
 596 773 596 773 599 798 c 1,8,9
 558 798 558 798 495.5 796.5 c 128,-1,10
 433 795 433 795 417 795 c 1,0,1
341 -19 m 1,11,-1
 172 -18 l 1,12,13
 182 150 182 150 208 375 c 1,14,15
 139 374 139 374 84 356 c 1,16,-1
 34 503 l 1,17,18
 92 524 92 524 228 534 c 1,19,20
 237 581 237 581 245.5 679.5 c 128,-1,21
 254 778 254 778 255 790 c 1,22,-1
 241 790 l 1,23,24
 132 783 132 783 91 768 c 1,25,-1
 38 915 l 1,26,27
 68 927 68 927 115.5 934 c 128,-1,28
 163 941 163 941 188 943 c 128,-1,29
 213 945 213 945 278 949 c 1,30,31
 288 1031 288 1031 291.5 1091.5 c 128,-1,32
 295 1152 295 1152 296.5 1218 c 128,-1,33
 298 1284 298 1284 301 1331 c 1,34,35
 314 1331 314 1331 353.5 1331.5 c 128,-1,36
 393 1332 393 1332 413 1332 c 0,37,38
 449 1332 449 1332 463 1331 c 1,39,40
 449 1090 449 1090 435 955 c 1,41,-1
 617 955 l 1,42,43
 647 1216 647 1216 665 1326 c 1,44,-1
 828 1324 l 1,45,46
 795 1165 795 1165 770 956 c 1,47,-1
 905 956 l 1,48,-1
 905 795 l 1,49,50
 793 799 793 799 752 799 c 1,51,-1
 722 544 l 1,52,-1
 901 544 l 1,53,-1
 901 383 l 1,54,55
 820 386 820 386 710 386 c 1,56,57
 690 208 690 208 673 -22 c 1,58,-1
 509 -21 l 1,59,60
 542 312 542 312 550 385 c 1,61,-1
 526 385 l 2,62,63
 455 385 455 385 372 380 c 1,64,-1
 341 -19 l 1,11,-1
EndSplineSet
EndChar

StartChar: dollar
Encoding: 36 36 7
Width: 1060
GlyphClass: 1
Flags: W
LayerCount: 2
Fore
SplineSet
247 709 m 0,0,1
 171 745 171 745 121.5 816 c 128,-1,2
 72 887 72 887 72 989 c 0,3,4
 72 1084 72 1084 128.5 1150.5 c 128,-1,5
 185 1217 185 1217 272.5 1246 c 128,-1,6
 360 1275 360 1275 470 1275 c 2,7,-1
 479 1275 l 1,8,-1
 488 1510 l 1,9,-1
 663 1496 l 1,10,-1
 641 1264 l 1,11,12
 742 1248 742 1248 830.5 1189.5 c 128,-1,13
 919 1131 919 1131 958 1046 c 1,14,-1
 819 969 l 1,15,16
 780 1077 780 1077 629 1108 c 1,17,-1
 604 775 l 1,18,19
 684 758 684 758 739 732 c 0,20,21
 831 688 831 688 889.5 607.5 c 128,-1,22
 948 527 948 527 948 406 c 0,23,24
 948 313 948 313 915 244 c 128,-1,25
 882 175 882 175 824 135.5 c 128,-1,26
 766 96 766 96 698 76.5 c 128,-1,27
 630 57 630 57 550 54 c 1,28,-1
 538 -176 l 1,29,-1
 359 -162 l 1,30,-1
 388 65 l 1,31,32
 60 127 60 127 60 439 c 1,33,-1
 218 439 l 1,34,35
 218 342 218 342 264.5 290 c 128,-1,36
 311 238 311 238 400 217 c 1,37,-1
 432 651 l 1,38,39
 308 681 308 681 247 709 c 0,0,1
468 1121 m 1,40,41
 231 1119 231 1119 231 994 c 0,42,43
 231 894 231 894 333 847 c 0,44,45
 380 825 380 825 444 810 c 1,46,-1
 468 1121 l 1,40,41
561 207 m 1,47,48
 673 214 673 214 730.5 259 c 128,-1,49
 788 304 788 304 788 398 c 0,50,51
 788 473 788 473 752.5 517 c 128,-1,52
 717 561 717 561 651 589 c 0,53,54
 632 597 632 597 592 611 c 1,55,-1
 561 207 l 1,47,48
EndSplineSet
EndChar

StartChar: percent
Encoding: 37 37 8
Width: 1060
GlyphClass: 1
Flags: W
LayerCount: 2
Fore
SplineSet
36 39 m 1,0,1
 178 290 178 290 424 656.5 c 128,-1,2
 670 1023 670 1023 890 1324 c 1,3,-1
 1021 1228 l 1,4,5
 794 923 794 923 560 573.5 c 128,-1,6
 326 224 326 224 186 -43 c 1,7,-1
 36 39 l 1,0,1
476 254 m 128,-1,9
 476 360 476 360 552 436 c 128,-1,10
 628 512 628 512 734 512 c 128,-1,11
 840 512 840 512 916 436 c 128,-1,12
 992 360 992 360 992 254 c 128,-1,13
 992 148 992 148 916 72 c 128,-1,14
 840 -4 840 -4 734 -4 c 128,-1,15
 628 -4 628 -4 552 72 c 128,-1,8
 476 148 476 148 476 254 c 128,-1,9
626 254 m 128,-1,17
 626 209 626 209 657.5 177.5 c 128,-1,18
 689 146 689 146 734 146 c 128,-1,19
 779 146 779 146 810.5 177.5 c 128,-1,20
 842 209 842 209 842 254 c 128,-1,21
 842 299 842 299 810.5 330.5 c 128,-1,22
 779 362 779 362 734 362 c 128,-1,23
 689 362 689 362 657.5 330.5 c 128,-1,16
 626 299 626 299 626 254 c 128,-1,17
33 1031 m 128,-1,25
 33 1138 33 1138 108.5 1213.5 c 128,-1,26
 184 1289 184 1289 291 1289 c 128,-1,27
 398 1289 398 1289 473.5 1213.5 c 128,-1,28
 549 1138 549 1138 549 1031 c 128,-1,29
 549 924 549 924 473.5 848.5 c 128,-1,30
 398 773 398 773 291 773 c 128,-1,31
 184 773 184 773 108.5 848.5 c 128,-1,24
 33 924 33 924 33 1031 c 128,-1,25
183 1031 m 128,-1,33
 183 986 183 986 214.5 954.5 c 128,-1,34
 246 923 246 923 291 923 c 128,-1,35
 336 923 336 923 367.5 954.5 c 128,-1,36
 399 986 399 986 399 1031 c 128,-1,37
 399 1076 399 1076 367.5 1107.5 c 128,-1,38
 336 1139 336 1139 291 1139 c 128,-1,39
 246 1139 246 1139 214.5 1107.5 c 128,-1,32
 183 1076 183 1076 183 1031 c 128,-1,33
EndSplineSet
EndChar

StartChar: ampersand
Encoding: 38 38 9
Width: 1060
GlyphClass: 1
Flags: W
LayerCount: 2
Fore
SplineSet
655 245 m 1,0,1
 620 292 620 292 557 376.5 c 128,-1,2
 494 461 494 461 445 526 c 128,-1,3
 396 591 396 591 351 648 c 1,4,5
 206 520 206 520 206 376 c 0,6,7
 206 268 206 268 270 200.5 c 128,-1,8
 334 133 334 133 424 133 c 0,9,10
 558 133 558 133 655 245 c 1,0,1
553 1069 m 0,11,12
 553 1132 553 1132 518.5 1163 c 128,-1,13
 484 1194 484 1194 425 1194 c 0,14,15
 374 1194 374 1194 332 1148 c 128,-1,16
 290 1102 290 1102 290 1044 c 0,17,18
 290 1010 290 1010 305.5 974.5 c 128,-1,19
 321 939 321 939 337.5 916 c 128,-1,20
 354 893 354 893 383 859 c 1,21,22
 472 921 472 921 516 981 c 0,23,24
 553 1031 553 1031 553 1069 c 0,11,12
985 64 m 1,25,-1
 863 -32 l 1,26,27
 859 -26 859 -26 819.5 25 c 128,-1,28
 780 76 780 76 750 116 c 1,29,30
 622 -22 622 -22 419 -22 c 0,31,32
 259 -22 259 -22 153 85 c 128,-1,33
 47 192 47 192 47 367 c 0,34,35
 47 608 47 608 253 771 c 1,36,37
 220 811 220 811 198.5 841.5 c 128,-1,38
 177 872 177 872 154.5 928 c 128,-1,39
 132 984 132 984 132 1037 c 0,40,41
 132 1164 132 1164 218.5 1255.5 c 128,-1,42
 305 1347 305 1347 426 1347 c 0,43,44
 542 1347 542 1347 626 1277.5 c 128,-1,45
 710 1208 710 1208 710 1085 c 0,46,47
 710 1038 710 1038 696 994.5 c 128,-1,48
 682 951 682 951 661.5 919 c 128,-1,49
 641 887 641 887 606.5 852 c 128,-1,50
 572 817 572 817 544.5 794.5 c 128,-1,51
 517 772 517 772 474 741 c 1,52,53
 660 499 660 499 735 398 c 1,54,55
 760 478 760 478 760 648 c 1,56,-1
 909 647 l 1,57,58
 909 369 909 369 837 255 c 1,59,60
 953 107 953 107 985 64 c 1,25,-1
EndSplineSet
Substitution2: "Single Substitution lookup 176 subtable" ampersand_ampersand.liga
Substitution2: "Single Substitution lookup 175 subtable" LIG
EndChar

StartChar: quotesingle
Encoding: 39 39 10
Width: 1060
GlyphClass: 1
Flags: W
LayerCount: 2
Fore
SplineSet
374 1464 m 1,0,-1
 585 1464 l 1,1,2
 585 1244 585 1244 576 1097 c 128,-1,3
 567 950 567 950 542 804 c 1,4,-1
 388 821 l 1,5,6
 403 904 403 904 403 1031 c 128,-1,7
 403 1158 403 1158 374 1258 c 1,8,-1
 374 1464 l 1,0,-1
EndSplineSet
EndChar

StartChar: parenleft
Encoding: 40 40 11
Width: 1060
GlyphClass: 1
Flags: W
LayerCount: 2
Fore
SplineSet
893 1326 m 1,0,1
 893 1326 893 1326 884 1326 c 0,2,3
 761 1326 761 1326 667.5 1268.5 c 128,-1,4
 574 1211 574 1211 518.5 1110.5 c 128,-1,5
 463 1010 463 1010 435.5 884.5 c 128,-1,6
 408 759 408 759 408 612 c 0,7,8
 408 421 408 421 466.5 261 c 128,-1,9
 525 101 525 101 636.5 2.5 c 128,-1,10
 748 -96 748 -96 892 -96 c 1,11,-1
 892 -262 l 1,12,13
 756 -261 756 -261 639 -201.5 c 128,-1,14
 522 -142 522 -142 435 -33.5 c 128,-1,15
 348 75 348 75 298 241.5 c 128,-1,16
 248 408 248 408 248 612 c 0,17,18
 248 1018 248 1018 411.5 1246 c 128,-1,19
 575 1474 575 1474 893 1484 c 1,20,-1
 893 1326 l 1,0,1
EndSplineSet
EndChar

StartChar: parenright
Encoding: 41 41 12
Width: 1060
GlyphClass: 1
Flags: W
LayerCount: 2
Fore
SplineSet
146 1326 m 1,0,-1
 146 1484 l 1,1,2
 464 1474 464 1474 627.5 1246 c 128,-1,3
 791 1018 791 1018 791 612 c 0,4,5
 791 408 791 408 741 241.5 c 128,-1,6
 691 75 691 75 604 -33.5 c 128,-1,7
 517 -142 517 -142 400 -201.5 c 128,-1,8
 283 -261 283 -261 147 -262 c 1,9,-1
 147 -96 l 1,10,11
 291 -96 291 -96 402.5 2.5 c 128,-1,12
 514 101 514 101 572.5 261 c 128,-1,13
 631 421 631 421 631 612 c 0,14,15
 631 759 631 759 603.5 884.5 c 128,-1,16
 576 1010 576 1010 520.5 1110.5 c 128,-1,17
 465 1211 465 1211 371.5 1268.5 c 128,-1,18
 278 1326 278 1326 155 1326 c 2,19,-1
 146 1326 l 1,0,-1
EndSplineSet
EndChar

StartChar: asterisk
Encoding: 42 42 13
Width: 1060
GlyphClass: 1
Flags: W
LayerCount: 2
Fore
SplineSet
434 688 m 1,0,-1
 430 1113 l 1,1,-1
 599 1114 l 1,2,-1
 597 687 l 1,3,-1
 923 833 l 1,4,-1
 997 695 l 1,5,-1
 634 542 l 1,6,-1
 906 221 l 1,7,-1
 780 110 l 1,8,-1
 522 477 l 1,9,-1
 277 111 l 1,10,-1
 145 216 l 1,11,-1
 401 542 l 1,12,-1
 48 684 l 1,13,-1
 114 828 l 1,14,-1
 434 688 l 1,0,-1
EndSplineSet
Substitution2: "Single Substitution lookup 196 subtable" LIG
Substitution2: "Single Substitution lookup 182 subtable" slash_asterisk.liga
Substitution2: "Single Substitution lookup 19 subtable" LIG
Substitution2: "Single Substitution lookup 18 subtable" LIG
EndChar

StartChar: plus
Encoding: 43 43 14
Width: 1060
GlyphClass: 1
Flags: W
LayerCount: 2
Fore
SplineSet
432 960 m 1,0,-1
 587 960 l 1,1,-1
 587 600 l 1,2,-1
 972 600 l 1,3,-1
 972 444 l 1,4,-1
 587 444 l 1,5,-1
 587 51 l 1,6,-1
 432 51 l 1,7,-1
 432 444 l 1,8,-1
 62 444 l 1,9,-1
 62 600 l 1,10,-1
 432 600 l 1,11,-1
 432 960 l 1,0,-1
EndSplineSet
EndChar

StartChar: comma
Encoding: 44 44 15
Width: 1060
GlyphClass: 1
Flags: W
LayerCount: 2
Fore
SplineSet
401 274 m 1,0,-1
 652 274 l 1,1,-1
 659 11 l 1,2,-1
 659 8 l 2,3,4
 659 -279 659 -279 408 -393 c 1,5,-1
 347 -254 l 1,6,7
 419 -214 419 -214 454 -154.5 c 128,-1,8
 489 -95 489 -95 489 5 c 1,9,-1
 401 5 l 1,10,-1
 401 274 l 1,0,-1
EndSplineSet
EndChar

StartChar: hyphen
Encoding: 45 45 16
Width: 1060
GlyphClass: 1
Flags: W
LayerCount: 2
Fore
SplineSet
152 600 m 1,0,-1
 939 600 l 1,1,-1
 939 444 l 1,2,-1
 152 444 l 1,3,-1
 152 600 l 1,0,-1
EndSplineSet
Substitution2: "Single Substitution lookup 151 subtable" LIG
Substitution2: "Single Substitution lookup 149 subtable" greater_hyphen.liga
Substitution2: "Single Substitution lookup 142 subtable" LIG
Substitution2: "Single Substitution lookup 140 subtable" less_hyphen.liga
Substitution2: "Single Substitution lookup 82 subtable" LIG
Substitution2: "Single Substitution lookup 80 subtable" greater_greater_hyphen.liga
Substitution2: "Single Substitution lookup 47 subtable" LIG
Substitution2: "Single Substitution lookup 42 subtable" LIG
Substitution2: "Single Substitution lookup 39 subtable" LIG
Substitution2: "Single Substitution lookup 38 subtable" LIG
Substitution2: "Single Substitution lookup 35 subtable" LIG
Substitution2: "Single Substitution lookup 32 subtable" less_hyphen_hyphen.liga
Substitution2: "Single Substitution lookup 31 subtable" LIG
Substitution2: "Single Substitution lookup 28 subtable" less_less_hyphen.liga
Substitution2: "Single Substitution lookup 23 subtable" LIG
Substitution2: "Single Substitution lookup 5 subtable" less_exclam_hyphen_hyphen.liga
Substitution2: "Single Substitution lookup 4 subtable" LIG
EndChar

StartChar: period
Encoding: 46 46 17
Width: 1060
GlyphClass: 1
Flags: W
LayerCount: 2
Fore
SplineSet
397 269 m 1,0,-1
 648 269 l 1,1,-1
 648 0 l 1,2,-1
 397 0 l 1,3,-1
 397 269 l 1,0,-1
EndSplineSet
EndChar

StartChar: slash
Encoding: 47 47 18
Width: 1060
GlyphClass: 1
Flags: W
LayerCount: 2
Fore
SplineSet
100 -80 m 1,0,1
 101 -78 101 -78 111 -56.5 c 128,-1,2
 121 -35 121 -35 132.5 -11 c 128,-1,3
 144 13 144 13 152 32 c 0,4,5
 640 1175 640 1175 739 1438 c 1,6,-1
 887 1380 l 1,7,8
 791 1134 791 1134 248 -141 c 1,9,-1
 100 -80 l 1,0,1
EndSplineSet
Substitution2: "Single Substitution lookup 197 subtable" asterisk_slash.liga
Substitution2: "Single Substitution lookup 191 subtable" slash_slash.liga
Substitution2: "Single Substitution lookup 190 subtable" LIG
Substitution2: "Single Substitution lookup 181 subtable" LIG
Substitution2: "Single Substitution lookup 115 subtable" LIG
Substitution2: "Single Substitution lookup 20 subtable" slash_asterisk_asterisk_slash.liga
Substitution2: "Single Substitution lookup 17 subtable" LIG
EndChar

StartChar: zero
Encoding: 48 48 19
Width: 1060
GlyphClass: 1
Flags: W
LayerCount: 2
Fore
SplineSet
280 455 m 1,0,-1
 669 953 l 1,1,2
 655 1000 655 1000 643 1028.5 c 128,-1,3
 631 1057 631 1057 610.5 1090 c 128,-1,4
 590 1123 590 1123 560 1139 c 128,-1,5
 530 1155 530 1155 491 1155 c 0,6,7
 268 1155 268 1155 268 598 c 0,8,9
 268 527 268 527 280 455 c 1,0,-1
706 818 m 1,10,-1
 314 317 l 1,11,12
 337 233 337 233 377 185 c 128,-1,13
 417 137 417 137 493 137 c 0,14,15
 536 137 536 137 570 156.5 c 128,-1,16
 604 176 604 176 627 205.5 c 128,-1,17
 650 235 650 235 666 282 c 128,-1,18
 682 329 682 329 691 373 c 128,-1,19
 700 417 700 417 705 476.5 c 128,-1,20
 710 536 710 536 711 579.5 c 128,-1,21
 712 623 712 623 712 679 c 0,22,23
 712 756 712 756 706 818 c 1,10,-1
490 1308 m 0,24,25
 577 1308 577 1308 645 1268.5 c 128,-1,26
 713 1229 713 1229 754 1166.5 c 128,-1,27
 795 1104 795 1104 821 1016.5 c 128,-1,28
 847 929 847 929 857 843 c 128,-1,29
 867 757 867 757 867 660 c 0,30,31
 867 -16 867 -16 493 -16 c 0,32,33
 406 -16 406 -16 338.5 21 c 128,-1,34
 271 58 271 58 229.5 118.5 c 128,-1,35
 188 179 188 179 161 263 c 128,-1,36
 134 347 134 347 123.5 433 c 128,-1,37
 113 519 113 519 113 616 c 0,38,39
 113 685 113 685 118 750.5 c 128,-1,40
 123 816 123 816 135 886 c 128,-1,41
 147 956 147 956 166 1016.5 c 128,-1,42
 185 1077 185 1077 214.5 1131.5 c 128,-1,43
 244 1186 244 1186 282.5 1224.5 c 128,-1,44
 321 1263 321 1263 374 1285.5 c 128,-1,45
 427 1308 427 1308 490 1308 c 0,24,25
EndSplineSet
EndChar

StartChar: one
Encoding: 49 49 20
Width: 1060
GlyphClass: 1
Flags: W
LayerCount: 2
Fore
SplineSet
496 1302 m 2,0,-1
 694 1290 l 1,1,-1
 694 -9 l 1,2,-1
 530 -9 l 1,3,-1
 528 1055 l 1,4,5
 450 957 450 957 209 781 c 1,6,-1
 108 932 l 1,7,8
 170 969 170 969 224.5 1008 c 128,-1,9
 279 1047 279 1047 317 1082 c 128,-1,10
 355 1117 355 1117 385.5 1148.5 c 128,-1,11
 416 1180 416 1180 435.5 1207.5 c 128,-1,12
 455 1235 455 1235 467.5 1254 c 128,-1,13
 480 1273 480 1273 487.5 1287 c 128,-1,14
 495 1301 495 1301 496 1302 c 2,0,-1
EndSplineSet
EndChar

StartChar: two
Encoding: 50 50 21
Width: 1060
GlyphClass: 1
Flags: W
LayerCount: 2
Fore
SplineSet
301 857 m 1,0,-1
 151 821 l 1,1,2
 134 875 134 875 131 933 c 0,3,4
 131 938 131 938 130.5 946 c 128,-1,5
 130 954 130 954 130 958 c 0,6,7
 130 1119 130 1119 234 1212.5 c 128,-1,8
 338 1306 338 1306 493 1306 c 0,9,10
 861 1306 861 1306 861 928 c 0,11,12
 861 772 861 772 702 603 c 0,13,14
 660 561 660 561 554 472 c 128,-1,15
 448 383 448 383 396 332 c 0,16,17
 347 284 347 284 322 235.5 c 128,-1,18
 297 187 297 187 295 155 c 1,19,-1
 880 157 l 1,20,-1
 880 2 l 1,21,-1
 121 2 l 1,22,23
 121 17 121 17 120 48.5 c 128,-1,24
 119 80 119 80 119 97 c 0,25,26
 119 144 119 144 125 178 c 0,27,28
 152 326 152 326 297 461 c 0,29,30
 350 510 350 510 446 586.5 c 128,-1,31
 542 663 542 663 581 701 c 0,32,33
 637 754 637 754 669.5 816.5 c 128,-1,34
 702 879 702 879 702 926 c 0,35,36
 702 1022 702 1022 652.5 1086 c 128,-1,37
 603 1150 603 1150 501 1150 c 0,38,39
 400 1150 400 1150 344 1093 c 128,-1,40
 288 1036 288 1036 288 920 c 0,41,42
 288 893 288 893 301 857 c 1,0,-1
EndSplineSet
EndChar

StartChar: three
Encoding: 51 51 22
Width: 1060
GlyphClass: 1
Flags: W
LayerCount: 2
Fore
SplineSet
78 335 m 1,0,-1
 236 336 l 1,1,2
 237 246 237 246 298 189.5 c 128,-1,3
 359 133 359 133 466 133 c 0,4,5
 584 133 584 133 652 198 c 128,-1,6
 720 263 720 263 720 374 c 0,7,8
 720 460 720 460 690 518 c 128,-1,9
 660 576 660 576 590 615 c 0,10,11
 548 639 548 639 500 651 c 128,-1,12
 452 663 452 663 422.5 664.5 c 128,-1,13
 393 666 393 666 340 666 c 1,14,-1
 340 824 l 1,15,-1
 356 824 l 2,16,17
 438 824 438 824 516 850 c 0,18,19
 582 873 582 873 612.5 914 c 128,-1,20
 643 955 643 955 643 1028 c 0,21,22
 643 1084 643 1084 589.5 1117 c 128,-1,23
 536 1150 536 1150 457 1150 c 0,24,25
 324 1150 324 1150 254 1010 c 1,26,-1
 112 1089 l 1,27,28
 115 1099 115 1099 125 1117.5 c 128,-1,29
 135 1136 135 1136 162.5 1170 c 128,-1,30
 190 1204 190 1204 225.5 1232 c 128,-1,31
 261 1260 261 1260 320 1281.5 c 128,-1,32
 379 1303 379 1303 447 1303 c 2,33,-1
 458 1303 l 2,34,35
 552 1303 552 1303 627 1276.5 c 128,-1,36
 702 1250 702 1250 751.5 1187 c 128,-1,37
 801 1124 801 1124 801 1033 c 0,38,39
 801 936 801 936 763.5 861.5 c 128,-1,40
 726 787 726 787 659 757 c 1,41,42
 880 650 880 650 880 376 c 0,43,44
 880 307 880 307 855.5 232 c 128,-1,45
 831 157 831 157 784 101 c 0,46,47
 679 -22 679 -22 466 -22 c 0,48,49
 289 -22 289 -22 183.5 78.5 c 128,-1,50
 78 179 78 179 78 335 c 1,0,-1
EndSplineSet
EndChar

StartChar: four
Encoding: 52 52 23
Width: 1060
GlyphClass: 1
Flags: W
LayerCount: 2
Fore
SplineSet
605 570 m 1,0,-1
 605 990 l 1,1,2
 553 898 553 898 457 773.5 c 128,-1,3
 361 649 361 649 287 570 c 1,4,-1
 605 570 l 1,0,-1
78 543 m 1,5,6
 81 547 81 547 141.5 622 c 128,-1,7
 202 697 202 697 270.5 786.5 c 128,-1,8
 339 876 339 876 413.5 978.5 c 128,-1,9
 488 1081 488 1081 540 1170.5 c 128,-1,10
 592 1260 592 1260 598 1306 c 1,11,-1
 761 1306 l 1,12,-1
 761 570 l 1,13,-1
 889 570 l 1,14,-1
 889 416 l 1,15,-1
 761 416 l 1,16,-1
 761 -2 l 1,17,-1
 605 -2 l 1,18,-1
 605 413 l 1,19,-1
 138 413 l 1,20,-1
 78 543 l 1,5,6
EndSplineSet
EndChar

StartChar: five
Encoding: 53 53 24
Width: 1060
GlyphClass: 1
Flags: W
LayerCount: 2
Fore
SplineSet
485 731 m 0,0,1
 361 731 361 731 259 626 c 0,2,3
 257 624 257 624 256 623 c 2,4,-1
 130 677 l 1,5,-1
 176 1288 l 1,6,-1
 775 1286 l 1,7,-1
 775 1132 l 1,8,-1
 317 1132 l 1,9,-1
 294 835 l 1,10,11
 385 889 385 889 482 889 c 0,12,13
 586 889 586 889 675 846 c 0,14,15
 767 797 767 797 829.5 694 c 128,-1,16
 892 591 892 591 892 450 c 0,17,18
 892 233 892 233 776 116.5 c 128,-1,19
 660 0 660 0 472 -2 c 2,20,-1
 470 -2 l 2,21,22
 349 -2 349 -2 257.5 64 c 128,-1,23
 166 130 166 130 106 231 c 1,24,-1
 239 319 l 1,25,26
 285 243 285 243 340.5 198.5 c 128,-1,27
 396 154 396 154 473 154 c 0,28,29
 598 154 598 154 666 230 c 128,-1,30
 734 306 734 306 734 448 c 0,31,32
 734 645 734 645 605 705 c 0,33,34
 550 731 550 731 485 731 c 0,0,1
EndSplineSet
EndChar

StartChar: six
Encoding: 54 54 25
Width: 1060
GlyphClass: 1
Flags: W
LayerCount: 2
Fore
SplineSet
773 1158 m 1,0,1
 610 1143 610 1143 488 1065 c 128,-1,2
 366 987 366 987 317 866 c 0,3,4
 289 797 289 797 272 682 c 1,5,6
 302 708 302 708 315 717.5 c 128,-1,7
 328 727 328 727 359.5 744 c 128,-1,8
 391 761 391 761 430 767.5 c 128,-1,9
 469 774 469 774 523 774 c 0,10,11
 689 774 689 774 793 664.5 c 128,-1,12
 897 555 897 555 897 381 c 0,13,14
 897 191 897 191 785 94 c 128,-1,15
 673 -3 673 -3 487 -3 c 0,16,17
 297 -3 297 -3 195.5 137.5 c 128,-1,18
 94 278 94 278 94 509 c 0,19,20
 94 735 94 735 171 928 c 0,21,22
 235 1090 235 1090 386 1189 c 128,-1,23
 537 1288 537 1288 749 1311 c 1,24,-1
 773 1158 l 1,0,1
262 440 m 1,25,26
 262 314 262 314 325 232 c 128,-1,27
 388 150 388 150 487 150 c 0,28,29
 599 150 599 150 668.5 209.5 c 128,-1,30
 738 269 738 269 738 381 c 0,31,32
 738 485 738 485 677 552 c 128,-1,33
 616 619 616 619 514 619 c 0,34,35
 419 619 419 619 347 563.5 c 128,-1,36
 275 508 275 508 262 440 c 1,25,26
EndSplineSet
EndChar

StartChar: seven
Encoding: 55 55 26
Width: 1060
GlyphClass: 1
Flags: W
LayerCount: 2
Fore
SplineSet
151 1292 m 1,0,1
 194 1292 194 1292 288 1289 c 128,-1,2
 382 1286 382 1286 420 1286 c 2,3,-1
 912 1286 l 1,4,-1
 953 1286 l 1,5,-1
 999 1204 l 1,6,7
 938 1090 938 1090 861.5 961.5 c 128,-1,8
 785 833 785 833 734.5 752.5 c 128,-1,9
 684 672 684 672 631 572.5 c 128,-1,10
 578 473 578 473 547.5 392.5 c 128,-1,11
 517 312 517 312 497.5 211 c 128,-1,12
 478 110 478 110 478 0 c 1,13,-1
 313 0 l 1,14,15
 313 67 313 67 321 133.5 c 128,-1,16
 329 200 329 200 340 257 c 128,-1,17
 351 314 351 314 376 382.5 c 128,-1,18
 401 451 401 451 420 500.5 c 128,-1,19
 439 550 439 550 478 623.5 c 128,-1,20
 517 697 517 697 541.5 742 c 128,-1,21
 566 787 566 787 618 869.5 c 128,-1,22
 670 952 670 952 698 996 c 128,-1,23
 726 1040 726 1040 787 1133 c 1,24,25
 735 1131 735 1131 589 1131 c 2,26,-1
 460 1131 l 2,27,28
 416 1131 416 1131 248 1139 c 1,29,30
 231 1106 231 1106 206 1023 c 1,31,-1
 71 1084 l 1,32,33
 81 1114 81 1114 109.5 1184.5 c 128,-1,34
 138 1255 138 1255 151 1292 c 1,0,1
EndSplineSet
EndChar

StartChar: eight
Encoding: 56 56 27
Width: 1060
GlyphClass: 1
Flags: W
LayerCount: 2
Fore
SplineSet
487 147 m 128,-1,1
 610 147 610 147 680 206.5 c 128,-1,2
 750 266 750 266 750 368 c 0,3,4
 750 422 750 422 729 467.5 c 128,-1,5
 708 513 708 513 667 548 c 128,-1,6
 626 583 626 583 585.5 607 c 128,-1,7
 545 631 545 631 487 657 c 1,8,9
 429 631 429 631 388.5 607 c 128,-1,10
 348 583 348 583 307 548 c 128,-1,11
 266 513 266 513 245 467.5 c 128,-1,12
 224 422 224 422 224 368 c 0,13,14
 224 266 224 266 294 206.5 c 128,-1,0
 364 147 364 147 487 147 c 128,-1,1
487 821 m 1,15,16
 566 841 566 841 618 889.5 c 128,-1,17
 670 938 670 938 670 989 c 0,18,19
 670 1051 670 1051 620.5 1093.5 c 128,-1,20
 571 1136 571 1136 485 1136 c 128,-1,21
 399 1136 399 1136 349.5 1093.5 c 128,-1,22
 300 1051 300 1051 300 989 c 0,23,24
 300 939 300 939 353.5 890 c 128,-1,25
 407 841 407 841 487 821 c 1,15,16
485 1293 m 128,-1,27
 645 1293 645 1293 736 1206 c 128,-1,28
 827 1119 827 1119 827 985 c 0,29,30
 827 910 827 910 776.5 839 c 128,-1,31
 726 768 726 768 657 738 c 1,32,33
 757 690 757 690 833 596 c 128,-1,34
 909 502 909 502 909 378 c 0,35,36
 909 209 909 209 793.5 100 c 128,-1,37
 678 -9 678 -9 487 -9 c 128,-1,38
 296 -9 296 -9 180.5 100 c 128,-1,39
 65 209 65 209 65 378 c 0,40,41
 65 502 65 502 141 596 c 128,-1,42
 217 690 217 690 317 738 c 1,43,44
 248 769 248 769 195.5 840 c 128,-1,45
 143 911 143 911 143 985 c 0,46,47
 143 1119 143 1119 234 1206 c 128,-1,26
 325 1293 325 1293 485 1293 c 128,-1,27
EndSplineSet
EndChar

StartChar: nine
Encoding: 57 57 28
Width: 1060
GlyphClass: 1
Flags: W
LayerCount: 2
Fore
SplineSet
504 1152 m 0,0,1
 397 1152 397 1152 326 1102 c 128,-1,2
 255 1052 255 1052 255 952 c 0,3,4
 255 861 255 861 326 814.5 c 128,-1,5
 397 768 397 768 497 768 c 0,6,7
 585 768 585 768 648.5 818 c 128,-1,8
 712 868 712 868 729 928 c 1,9,10
 719 1014 719 1014 654 1083 c 128,-1,11
 589 1152 589 1152 504 1152 c 0,0,1
96 955 m 0,12,13
 96 1114 96 1114 203 1208 c 128,-1,14
 310 1302 310 1302 479 1302 c 0,15,16
 559 1302 559 1302 622.5 1281.5 c 128,-1,17
 686 1261 686 1261 730 1227.5 c 128,-1,18
 774 1194 774 1194 806.5 1142.5 c 128,-1,19
 839 1091 839 1091 858 1037.5 c 128,-1,20
 877 984 877 984 888 913.5 c 128,-1,21
 899 843 899 843 902.5 781.5 c 128,-1,22
 906 720 906 720 906 644 c 0,23,24
 906 539 906 539 896 451.5 c 128,-1,25
 886 364 886 364 858 277.5 c 128,-1,26
 830 191 830 191 784.5 131.5 c 128,-1,27
 739 72 739 72 663.5 35 c 128,-1,28
 588 -2 588 -2 487 -2 c 0,29,30
 311 -2 311 -2 213.5 76.5 c 128,-1,31
 116 155 116 155 65 314 c 1,32,-1
 218 359 l 1,33,34
 237 299 237 299 254 265 c 128,-1,35
 271 231 271 231 300.5 203 c 128,-1,36
 330 175 330 175 374.5 164.5 c 128,-1,37
 419 154 419 154 487 154 c 0,38,39
 541 154 541 154 583 171 c 128,-1,40
 625 188 625 188 653.5 220 c 128,-1,41
 682 252 682 252 701.5 292.5 c 128,-1,42
 721 333 721 333 731 386 c 128,-1,43
 741 439 741 439 745.5 490.5 c 128,-1,44
 750 542 750 542 750 603 c 0,45,46
 750 605 750 605 747 710 c 1,47,48
 698 661 698 661 637.5 638.5 c 128,-1,49
 577 616 577 616 483 616 c 0,50,51
 314 616 314 616 205 704.5 c 128,-1,52
 96 793 96 793 96 955 c 0,12,13
EndSplineSet
EndChar

StartChar: less
Encoding: 60 60 31
Width: 1060
GlyphClass: 1
Flags: W
LayerCount: 2
Fore
SplineSet
874 75 m 1,0,-1
 749 -30 l 1,1,2
 723 8 723 8 633 80 c 0,3,4
 572 131 572 131 373 277 c 128,-1,5
 174 423 174 423 131 453 c 1,6,-1
 131 573 l 1,7,8
 582 943 582 943 738 1035 c 0,9,10
 797 1069 797 1069 824 1077 c 1,11,-1
 871 920 l 1,12,13
 815 890 815 890 733.5 834 c 128,-1,14
 652 778 652 778 598.5 737.5 c 128,-1,15
 545 697 545 697 441.5 615.5 c 128,-1,16
 338 534 338 534 316 517 c 1,17,18
 336 503 336 503 417 447.5 c 128,-1,19
 498 392 498 392 551 353.5 c 128,-1,20
 604 315 604 315 675.5 261 c 128,-1,21
 747 207 747 207 797.5 159.5 c 128,-1,22
 848 112 848 112 874 75 c 1,0,-1
EndSplineSet
Substitution2: "Single Substitution lookup 185 subtable" less_less.liga
Substitution2: "Single Substitution lookup 184 subtable" LIG
Substitution2: "Single Substitution lookup 166 subtable" LIG
Substitution2: "Single Substitution lookup 163 subtable" LIG
Substitution2: "Single Substitution lookup 154 subtable" LIG
Substitution2: "Single Substitution lookup 152 subtable" hyphen_less.liga
Substitution2: "Single Substitution lookup 139 subtable" LIG
Substitution2: "Single Substitution lookup 130 subtable" LIG
Substitution2: "Single Substitution lookup 110 subtable" LIG
Substitution2: "Single Substitution lookup 106 subtable" LIG
Substitution2: "Single Substitution lookup 98 subtable" LIG
Substitution2: "Single Substitution lookup 94 subtable" LIG
Substitution2: "Single Substitution lookup 90 subtable" LIG
Substitution2: "Single Substitution lookup 88 subtable" equal_less_less.liga
Substitution2: "Single Substitution lookup 87 subtable" LIG
Substitution2: "Single Substitution lookup 84 subtable" hyphen_less_less.liga
Substitution2: "Single Substitution lookup 83 subtable" LIG
Substitution2: "Single Substitution lookup 58 subtable" LIG
Substitution2: "Single Substitution lookup 55 subtable" LIG
Substitution2: "Single Substitution lookup 54 subtable" LIG
Substitution2: "Single Substitution lookup 52 subtable" less_equal_less.liga
Substitution2: "Single Substitution lookup 50 subtable" LIG
Substitution2: "Single Substitution lookup 34 subtable" LIG
Substitution2: "Single Substitution lookup 30 subtable" LIG
Substitution2: "Single Substitution lookup 27 subtable" LIG
Substitution2: "Single Substitution lookup 26 subtable" LIG
Substitution2: "Single Substitution lookup 24 subtable" less_hyphen_less.liga
Substitution2: "Single Substitution lookup 22 subtable" LIG
Substitution2: "Single Substitution lookup 7 subtable" LIG
Substitution2: "Single Substitution lookup 2 subtable" LIG
EndChar

StartChar: equal
Encoding: 61 61 32
Width: 1060
GlyphClass: 1
Flags: W
LayerCount: 2
Fore
SplineSet
50 349 m 1,0,1
 190 357 190 357 416 357 c 0,2,3
 507 357 507 357 660.5 353 c 128,-1,4
 814 349 814 349 897 349 c 1,5,-1
 895 188 l 1,6,7
 809 188 809 188 648 190.5 c 128,-1,8
 487 193 487 193 394 193 c 0,9,10
 369 193 369 193 318.5 193.5 c 128,-1,11
 268 194 268 194 242 194 c 0,12,13
 136 194 136 194 50 189 c 1,14,-1
 50 349 l 1,0,1
48 825 m 1,15,16
 163 818 163 818 304 818 c 2,17,-1
 396 818 l 2,18,19
 491 818 491 818 643 820.5 c 128,-1,20
 795 823 795 823 895 823 c 1,21,-1
 895 664 l 1,22,23
 799 664 799 664 646 660 c 128,-1,24
 493 656 493 656 394 656 c 0,25,26
 222 656 222 656 45 667 c 1,27,28
 45 774 45 774 48 825 c 1,15,16
EndSplineSet
Substitution2: "Single Substitution lookup 194 subtable" greater_equal.liga
Substitution2: "Single Substitution lookup 145 subtable" LIG
Substitution2: "Single Substitution lookup 137 subtable" exclam_equal.liga
Substitution2: "Single Substitution lookup 134 subtable" equal_equal.liga
Substitution2: "Single Substitution lookup 133 subtable" LIG
Substitution2: "Single Substitution lookup 131 subtable" less_equal.liga
Substitution2: "Single Substitution lookup 128 subtable" exclam_equal_equal.liga
Substitution2: "Single Substitution lookup 127 subtable" LIG
Substitution2: "Single Substitution lookup 120 subtable" equal_equal_equal.liga
Substitution2: "Single Substitution lookup 119 subtable" LIG
Substitution2: "Single Substitution lookup 118 subtable" LIG
Substitution2: "Single Substitution lookup 116 subtable" equal_slash_equal.liga
Substitution2: "Single Substitution lookup 114 subtable" LIG
Substitution2: "Single Substitution lookup 92 subtable" less_equal_equal.liga
Substitution2: "Single Substitution lookup 91 subtable" LIG
Substitution2: "Single Substitution lookup 86 subtable" LIG
Substitution2: "Single Substitution lookup 76 subtable" greater_greater_equal.liga
Substitution2: "Single Substitution lookup 71 subtable" LIG
Substitution2: "Single Substitution lookup 66 subtable" LIG
Substitution2: "Single Substitution lookup 63 subtable" LIG
Substitution2: "Single Substitution lookup 62 subtable" LIG
Substitution2: "Single Substitution lookup 59 subtable" LIG
Substitution2: "Single Substitution lookup 56 subtable" less_less_equal.liga
Substitution2: "Single Substitution lookup 51 subtable" LIG
EndChar

StartChar: greater
Encoding: 62 62 33
Width: 1060
GlyphClass: 1
Flags: W
LayerCount: 2
Fore
SplineSet
926 591 m 1,0,-1
 926 474 l 1,1,2
 907 460 907 460 755.5 336 c 128,-1,3
 604 212 604 212 457.5 105.5 c 128,-1,4
 311 -1 311 -1 232 -30 c 1,5,-1
 164 109 l 1,6,7
 336 201 336 201 741 526 c 1,8,9
 388 778 388 778 257 900 c 0,10,11
 206 947 206 947 189 974 c 1,12,-1
 307 1076 l 1,13,14
 354 1020 354 1020 482 919.5 c 128,-1,15
 610 819 610 819 763.5 708.5 c 128,-1,16
 917 598 917 598 926 591 c 1,0,-1
EndSplineSet
Substitution2: "Single Substitution lookup 193 subtable" LIG
Substitution2: "Single Substitution lookup 179 subtable" bar_greater.liga
Substitution2: "Single Substitution lookup 173 subtable" greater_greater.liga
Substitution2: "Single Substitution lookup 172 subtable" LIG
Substitution2: "Single Substitution lookup 164 subtable" less_greater.liga
Substitution2: "Single Substitution lookup 161 subtable" tilde_greater.liga
Substitution2: "Single Substitution lookup 148 subtable" LIG
Substitution2: "Single Substitution lookup 146 subtable" equal_greater.liga
Substitution2: "Single Substitution lookup 143 subtable" hyphen_greater.liga
Substitution2: "Single Substitution lookup 124 subtable" bar_bar_greater.liga
Substitution2: "Single Substitution lookup 112 subtable" less_bar_greater.liga
Substitution2: "Single Substitution lookup 104 subtable" tilde_tilde_greater.liga
Substitution2: "Single Substitution lookup 96 subtable" less_tilde_greater.liga
Substitution2: "Single Substitution lookup 79 subtable" LIG
Substitution2: "Single Substitution lookup 78 subtable" LIG
Substitution2: "Single Substitution lookup 75 subtable" LIG
Substitution2: "Single Substitution lookup 74 subtable" LIG
Substitution2: "Single Substitution lookup 72 subtable" greater_equal_greater.liga
Substitution2: "Single Substitution lookup 70 subtable" LIG
Substitution2: "Single Substitution lookup 68 subtable" equal_greater_greater.liga
Substitution2: "Single Substitution lookup 67 subtable" LIG
Substitution2: "Single Substitution lookup 64 subtable" equal_equal_greater.liga
Substitution2: "Single Substitution lookup 60 subtable" less_equal_greater.liga
Substitution2: "Single Substitution lookup 48 subtable" greater_hyphen_greater.liga
Substitution2: "Single Substitution lookup 46 subtable" LIG
Substitution2: "Single Substitution lookup 44 subtable" hyphen_greater_greater.liga
Substitution2: "Single Substitution lookup 43 subtable" LIG
Substitution2: "Single Substitution lookup 40 subtable" hyphen_hyphen_greater.liga
Substitution2: "Single Substitution lookup 36 subtable" less_hyphen_greater.liga
Substitution2: "Single Substitution lookup 15 subtable" bar_bar_bar_greater.liga
EndChar

StartChar: question
Encoding: 63 63 34
Width: 1060
GlyphClass: 1
Flags: W
LayerCount: 2
Fore
SplineSet
505 1337 m 0,0,1
 675 1337 675 1337 761.5 1246.5 c 128,-1,2
 848 1156 848 1156 848 993 c 0,3,4
 848 948 848 948 833.5 904 c 128,-1,5
 819 860 819 860 802.5 830.5 c 128,-1,6
 786 801 786 801 753 765.5 c 128,-1,7
 720 730 720 730 703 714.5 c 128,-1,8
 686 699 686 699 651 670 c 0,9,10
 542 578 542 578 542 477 c 2,11,-1
 542 431 l 1,12,-1
 367 431 l 1,13,-1
 367 475 l 2,14,15
 367 560 367 560 401 623.5 c 128,-1,16
 435 687 435 687 503 747 c 0,17,18
 521 763 521 763 559 794.5 c 128,-1,19
 597 826 597 826 613 841.5 c 128,-1,20
 629 857 629 857 650.5 882.5 c 128,-1,21
 672 908 672 908 680 933 c 128,-1,22
 688 958 688 958 688 989 c 0,23,24
 688 1077 688 1077 640 1129.5 c 128,-1,25
 592 1182 592 1182 497 1182 c 0,26,27
 399 1182 399 1182 336 1133 c 128,-1,28
 273 1084 273 1084 272 989 c 0,29,30
 272 932 272 932 327 864 c 1,31,-1
 193 774 l 1,32,33
 115 888 115 888 115 984 c 0,34,35
 115 1072 115 1072 146.5 1141 c 128,-1,36
 178 1210 178 1210 232.5 1252 c 128,-1,37
 287 1294 287 1294 356.5 1315.5 c 128,-1,38
 426 1337 426 1337 505 1337 c 0,0,1
333 270 m 1,39,-1
 583 270 l 1,40,-1
 583 0 l 1,41,-1
 333 0 l 1,42,-1
 333 270 l 1,39,-1
EndSplineSet
EndChar

StartChar: at
Encoding: 64 64 35
Width: 1060
GlyphClass: 1
Flags: W
LayerCount: 2
Fore
SplineSet
456 501 m 0,0,1
 456 424 456 424 487 380 c 128,-1,2
 518 336 518 336 568 336 c 0,3,4
 633 336 633 336 696 405 c 128,-1,5
 759 474 759 474 784 535 c 1,6,-1
 784 630 l 1,7,8
 749 660 749 660 696.5 676.5 c 128,-1,9
 644 693 644 693 594 693 c 0,10,11
 456 693 456 693 456 501 c 0,0,1
809 309 m 1,12,13
 784 283 784 283 772.5 271 c 128,-1,14
 761 259 761 259 735.5 238.5 c 128,-1,15
 710 218 710 218 689.5 209 c 128,-1,16
 669 200 669 200 636.5 192 c 128,-1,17
 604 184 604 184 568 184 c 0,18,19
 465 184 465 184 382.5 276 c 128,-1,20
 300 368 300 368 300 491 c 0,21,22
 300 651 300 651 381.5 752 c 128,-1,23
 463 853 463 853 585 853 c 0,24,25
 711 853 711 853 784 787 c 1,26,27
 784 828 784 828 783 856.5 c 128,-1,28
 782 885 782 885 777 925 c 128,-1,29
 772 965 772 965 763 992 c 128,-1,30
 754 1019 754 1019 737 1049 c 128,-1,31
 720 1079 720 1079 696 1097 c 128,-1,32
 672 1115 672 1115 635 1127 c 128,-1,33
 598 1139 598 1139 552 1139 c 0,34,35
 382 1139 382 1139 283 975 c 128,-1,36
 184 811 184 811 184 501 c 0,37,38
 184 346 184 346 232 215 c 128,-1,39
 280 84 280 84 371.5 3 c 128,-1,40
 463 -78 463 -78 579 -78 c 0,41,42
 648 -78 648 -78 732 -25 c 1,43,-1
 792 -160 l 1,44,45
 670 -224 670 -224 567 -224 c 0,46,47
 450 -224 450 -224 349 -161 c 128,-1,48
 248 -98 248 -98 182 4.5 c 128,-1,49
 116 107 116 107 78.5 235 c 128,-1,50
 41 363 41 363 41 495 c 0,51,52
 41 869 41 869 180 1079.5 c 128,-1,53
 319 1290 319 1290 550 1290 c 0,54,55
 637 1290 637 1290 706 1262.5 c 128,-1,56
 775 1235 775 1235 818 1191 c 128,-1,57
 861 1147 861 1147 890 1086.5 c 128,-1,58
 919 1026 919 1026 930.5 965 c 128,-1,59
 942 904 942 904 942 838 c 2,60,-1
 942 508 l 1,61,-1
 942 479 l 2,62,63
 942 431 942 431 944.5 399 c 128,-1,64
 947 367 947 367 960.5 321.5 c 128,-1,65
 974 276 974 276 1000 238 c 1,66,-1
 849 174 l 1,67,68
 821 223 821 223 809 309 c 1,12,13
EndSplineSet
EndChar

StartChar: A
Encoding: 65 65 36
Width: 1060
GlyphClass: 1
Flags: W
LayerCount: 2
Fore
SplineSet
716 505 m 1,0,-1
 522 1092 l 1,1,-1
 336 485 l 1,2,3
 380 495 380 495 535 502 c 1,4,-1
 716 505 l 1,0,-1
434 1301 m 1,5,-1
 605 1301 l 1,6,-1
 983 172 l 2,7,8
 1011 77 1011 77 1014 0 c 1,9,-1
 850 0 l 1,10,11
 850 17 850 17 843 59.5 c 128,-1,12
 836 102 836 102 830 122 c 2,13,-1
 760 332 l 1,14,15
 750 332 750 332 711 331 c 128,-1,16
 672 330 672 330 655.5 329.5 c 128,-1,17
 639 329 639 329 600.5 328 c 128,-1,18
 562 327 562 327 540.5 326 c 128,-1,19
 519 325 519 325 484.5 323.5 c 128,-1,20
 450 322 450 322 426.5 319.5 c 128,-1,21
 403 317 403 317 376 314.5 c 128,-1,22
 349 312 349 312 327 308 c 128,-1,23
 305 304 305 304 287 300 c 1,24,-1
 228 121 l 2,25,26
 204 51 204 51 204 0 c 1,27,-1
 42 0 l 1,28,29
 43 21 43 21 53.5 73.5 c 128,-1,30
 64 126 64 126 74 159 c 2,31,-1
 434 1301 l 1,5,-1
EndSplineSet
EndChar

StartChar: B
Encoding: 66 66 37
Width: 1060
GlyphClass: 1
Flags: W
LayerCount: 2
Fore
SplineSet
97 823 m 0,0,1
 97 1116 97 1116 85 1285 c 1,2,3
 102 1286 102 1286 152 1290.5 c 128,-1,4
 202 1295 202 1295 239.5 1297 c 128,-1,5
 277 1299 277 1299 328 1299 c 2,6,-1
 346 1299 l 2,7,8
 427 1299 427 1299 496.5 1282.5 c 128,-1,9
 566 1266 566 1266 623.5 1232 c 128,-1,10
 681 1198 681 1198 714.5 1139 c 128,-1,11
 748 1080 748 1080 748 1002 c 0,12,13
 748 846 748 846 662 767 c 1,14,15
 785 726 785 726 863.5 627.5 c 128,-1,16
 942 529 942 529 942 393 c 0,17,18
 942 231 942 231 850 125 c 128,-1,19
 758 19 758 19 626 3 c 0,20,21
 564 -5 564 -5 507 -5 c 0,22,23
 467 -5 467 -5 374 -1 c 128,-1,24
 281 3 281 3 224 3 c 2,25,-1
 88 3 l 1,26,27
 88 72 88 72 92.5 329.5 c 128,-1,28
 97 587 97 587 97 823 c 0,0,1
591 992 m 2,29,30
 591 1073 591 1073 528.5 1111.5 c 128,-1,31
 466 1150 466 1150 357 1150 c 2,32,-1
 340 1150 l 2,33,34
 305 1150 305 1150 255 1145 c 1,35,36
 259 1096 259 1096 259 1017 c 0,37,38
 259 984 259 984 258 912.5 c 128,-1,39
 257 841 257 841 257 803 c 1,40,41
 274 803 274 803 313 803.5 c 128,-1,42
 352 804 352 804 363 804.5 c 128,-1,43
 374 805 374 805 401 807 c 128,-1,44
 428 809 428 809 439.5 812 c 128,-1,45
 451 815 451 815 471 820.5 c 128,-1,46
 491 826 491 826 507.5 834 c 128,-1,47
 524 842 524 842 543 854 c 0,48,49
 563 866 563 866 577 903 c 128,-1,50
 591 940 591 940 591 984 c 2,51,-1
 591 992 l 2,29,30
708 578 m 0,52,53
 656 621 656 621 606.5 635 c 128,-1,54
 557 649 557 649 479 649 c 0,55,56
 458 649 458 649 398 648 c 128,-1,57
 338 647 338 647 299 647 c 2,58,-1
 255 647 l 1,59,60
 254 554 254 554 253.5 438.5 c 128,-1,61
 253 323 253 323 252 254.5 c 128,-1,62
 251 186 251 186 251 153 c 1,63,64
 309 153 309 153 375 149.5 c 128,-1,65
 441 146 441 146 474 146 c 0,66,67
 535 146 535 146 584 153 c 0,68,69
 667 163 667 163 725 234 c 128,-1,70
 783 305 783 305 783 409 c 0,71,72
 783 467 783 467 765.5 506 c 128,-1,73
 748 545 748 545 708 578 c 0,52,53
EndSplineSet
EndChar

StartChar: C
Encoding: 67 67 38
Width: 1060
GlyphClass: 1
Flags: W
LayerCount: 2
Fore
SplineSet
569 1152 m 0,0,1
 489 1152 489 1152 423 1114 c 128,-1,2
 357 1076 357 1076 317 1020 c 0,3,4
 215 873 215 873 215 625 c 0,5,6
 215 344 215 344 344 224 c 0,7,8
 389 182 389 182 431 166.5 c 128,-1,9
 473 151 473 151 536 151 c 2,10,-1
 550 151 l 1,11,12
 750 158 750 158 834 342 c 1,13,-1
 973 266 l 1,14,15
 914 143 914 143 812.5 70 c 128,-1,16
 711 -3 711 -3 575 -3 c 2,17,-1
 572 -3 l 2,18,19
 355 -3 355 -3 235 114 c 0,20,21
 56 296 56 296 56 623 c 0,22,23
 56 915 56 915 189 1109 c 0,24,25
 247 1195 247 1195 347.5 1250.5 c 128,-1,26
 448 1306 448 1306 572 1306 c 0,27,28
 678 1306 678 1306 770.5 1243.5 c 128,-1,29
 863 1181 863 1181 928 1063 c 1,30,-1
 792 982 l 1,31,32
 706 1152 706 1152 569 1152 c 0,0,1
EndSplineSet
EndChar

StartChar: D
Encoding: 68 68 39
Width: 1060
GlyphClass: 1
Flags: W
LayerCount: 2
Fore
SplineSet
309 1152 m 2,0,-1
 279 1152 l 2,1,2
 245 1152 245 1152 234 1150 c 1,3,4
 235 1125 235 1125 235 1064 c 0,5,6
 235 1034 235 1034 234.5 967.5 c 128,-1,7
 234 901 234 901 234 866 c 0,8,9
 234 528 234 528 230 144 c 1,10,11
 318 141 318 141 423 141 c 0,12,13
 493 141 493 141 542.5 148 c 128,-1,14
 592 155 592 155 640.5 176 c 128,-1,15
 689 197 689 197 724 239 c 128,-1,16
 759 281 759 281 783 346 c 0,17,18
 795 378 795 378 802.5 434 c 128,-1,19
 810 490 810 490 810 533 c 0,20,21
 810 655 810 655 783.5 769.5 c 128,-1,22
 757 884 757 884 709 954 c 0,23,24
 661 1023 661 1023 614 1063.5 c 128,-1,25
 567 1104 567 1104 491.5 1128 c 128,-1,26
 416 1152 416 1152 309 1152 c 2,0,-1
70 125 m 0,27,28
 70 140 70 140 71.5 266 c 128,-1,29
 73 392 73 392 74.5 568.5 c 128,-1,30
 76 745 76 745 76 883 c 2,31,-1
 76 957 l 2,32,33
 76 1167 76 1167 63 1291 c 1,34,35
 195 1304 195 1304 288 1304 c 0,36,37
 489 1304 489 1304 616.5 1242.5 c 128,-1,38
 744 1181 744 1181 838 1045 c 0,39,40
 901 953 901 953 935 827.5 c 128,-1,41
 969 702 969 702 969 568 c 0,42,43
 969 473 969 473 948 368 c 0,44,45
 914 199 914 199 808 104.5 c 128,-1,46
 702 10 702 10 559 -3 c 0,47,48
 482 -10 482 -10 398 -10 c 0,49,50
 360 -10 360 -10 244 -6.5 c 128,-1,51
 128 -3 128 -3 67 -3 c 1,52,53
 67 29 67 29 70 125 c 0,27,28
EndSplineSet
EndChar

StartChar: E
Encoding: 69 69 40
Width: 1060
GlyphClass: 1
Flags: W
LayerCount: 2
Fore
SplineSet
102 1293 m 1,0,1
 158 1297 158 1297 306 1297 c 2,2,3
 306 1297 306 1297 404 1297 c 2,4,-1
 514 1297 l 2,5,6
 598 1297 598 1297 721.5 1295.5 c 128,-1,7
 845 1294 845 1294 873 1294 c 2,8,-1
 889 1294 l 1,9,-1
 889 1144 l 1,10,-1
 260 1144 l 1,11,-1
 260 816 l 1,12,-1
 698 816 l 1,13,-1
 698 666 l 1,14,-1
 260 666 l 1,15,-1
 260 636 l 2,16,17
 260 519 260 519 258.5 344.5 c 128,-1,18
 257 170 257 170 257 147 c 1,19,-1
 782 149 l 2,20,21
 807 149 807 149 836 155.5 c 128,-1,22
 865 162 865 162 882 168 c 2,23,-1
 899 175 l 1,24,-1
 943 27 l 1,25,26
 934 24 934 24 910 17 c 128,-1,27
 886 10 886 10 873 6.5 c 128,-1,28
 860 3 860 3 835.5 0 c 128,-1,29
 811 -3 811 -3 784 -3 c 2,30,-1
 102 -3 l 1,31,-1
 102 1293 l 1,0,1
EndSplineSet
EndChar

StartChar: F
Encoding: 70 70 41
Width: 1060
GlyphClass: 1
Flags: W
LayerCount: 2
Fore
SplineSet
277 -1 m 1,0,-1
 116 3 l 1,1,-1
 116 1298 l 1,2,-1
 801 1298 l 1,3,4
 898 1294 898 1294 960 1263 c 1,5,-1
 904 1117 l 1,6,7
 886 1127 886 1127 875.5 1131 c 128,-1,8
 865 1135 865 1135 834.5 1140 c 128,-1,9
 804 1145 804 1145 758 1145 c 2,10,-1
 688 1145 l 2,11,12
 638 1145 638 1145 272 1143 c 1,13,-1
 272 815 l 1,14,15
 332 815 332 815 426 816.5 c 128,-1,16
 520 818 520 818 581 818 c 0,17,18
 599 818 599 818 617 817 c 128,-1,19
 635 816 635 816 649 815 c 128,-1,20
 663 814 663 814 676 812.5 c 128,-1,21
 689 811 689 811 698.5 809.5 c 128,-1,22
 708 808 708 808 714.5 807 c 128,-1,23
 721 806 721 806 725 805 c 2,24,-1
 729 804 l 1,25,-1
 747 799 l 1,26,-1
 711 654 l 1,27,28
 653 668 653 668 578 668 c 0,29,30
 380 668 380 668 272 665 c 1,31,32
 272 601 272 601 274.5 321.5 c 128,-1,33
 277 42 277 42 277 -1 c 1,0,-1
EndSplineSet
EndChar

StartChar: G
Encoding: 71 71 42
Width: 1060
GlyphClass: 1
Flags: W
LayerCount: 2
Fore
SplineSet
861 733 m 0,0,1
 918 733 918 733 992 740 c 1,2,-1
 992 605 l 2,3,4
 992 446 992 446 971 334.5 c 128,-1,5
 950 223 950 223 907.5 157 c 128,-1,6
 865 91 865 91 814 56.5 c 128,-1,7
 763 22 763 22 691 3 c 0,8,9
 642 -8 642 -8 540 -8 c 0,10,11
 433 -8 433 -8 346 25 c 128,-1,12
 259 58 259 58 199 115.5 c 128,-1,13
 139 173 139 173 98.5 254 c 128,-1,14
 58 335 58 335 39 428.5 c 128,-1,15
 20 522 20 522 20 628 c 0,16,17
 20 1008 20 1008 204 1186 c 1,18,19
 336 1302 336 1302 533 1302 c 2,20,-1
 553 1302 l 1,21,22
 852 1295 852 1295 976 1026 c 1,23,-1
 833 957 l 1,24,25
 745 1150 745 1150 542 1150 c 0,26,27
 469 1150 469 1150 421 1136.5 c 128,-1,28
 373 1123 373 1123 319 1077 c 0,29,30
 182 960 182 960 182 617 c 0,31,32
 182 514 182 514 199.5 433.5 c 128,-1,33
 217 353 217 353 257 286 c 128,-1,34
 297 219 297 219 371 183 c 128,-1,35
 445 147 445 147 550 147 c 0,36,37
 600 147 600 147 633 156 c 0,38,39
 683 167 683 167 716 190 c 128,-1,40
 749 213 749 213 775 260 c 128,-1,41
 801 307 801 307 813.5 387.5 c 128,-1,42
 826 468 826 468 826 587 c 1,43,44
 800 585 800 585 753 585 c 0,45,46
 737 585 737 585 707.5 585.5 c 128,-1,47
 678 586 678 586 664 586 c 0,48,49
 538 586 538 586 434 548 c 1,50,-1
 394 693 l 1,51,52
 506 735 506 735 695 735 c 0,53,54
 723 735 723 735 778.5 734 c 128,-1,55
 834 733 834 733 861 733 c 0,0,1
EndSplineSet
EndChar

StartChar: H
Encoding: 72 72 43
Width: 1060
GlyphClass: 1
Flags: W
LayerCount: 2
Fore
SplineSet
220 1296 m 1,0,-1
 219 749 l 1,1,2
 342 777 342 777 526 777 c 2,3,-1
 754 777 l 1,4,5
 754 928 754 928 753.5 1076 c 128,-1,6
 753 1224 753 1224 753 1291 c 1,7,-1
 912 1291 l 1,8,-1
 912 0 l 1,9,-1
 754 0 l 1,10,-1
 754 625 l 1,11,-1
 625 625 l 2,12,13
 351 625 351 625 219 597 c 1,14,15
 219 405 219 405 220 237.5 c 128,-1,16
 221 70 221 70 221 0 c 1,17,-1
 60 0 l 1,18,-1
 60 1294 l 1,19,-1
 220 1296 l 1,0,-1
EndSplineSet
EndChar

StartChar: I
Encoding: 73 73 44
Width: 1060
GlyphClass: 1
Flags: W
LayerCount: 2
Fore
SplineSet
152 1298 m 1,0,1
 308 1302 308 1302 485 1302 c 0,2,3
 604 1302 604 1302 849 1299 c 1,4,-1
 849 1147 l 1,5,6
 784 1147 784 1147 705.5 1149.5 c 128,-1,7
 627 1152 627 1152 582 1152 c 1,8,-1
 582 152 l 1,9,10
 604 152 604 152 641.5 152.5 c 128,-1,11
 679 153 679 153 705 153 c 0,12,13
 780 153 780 153 849 149 c 1,14,-1
 849 -1 l 1,15,16
 747 5 747 5 639 5 c 0,17,18
 617 5 617 5 566 4.5 c 128,-1,19
 515 4 515 4 484 4 c 0,20,21
 457 4 457 4 350 0.5 c 128,-1,22
 243 -3 243 -3 155 -3 c 1,23,-1
 155 146 l 1,24,25
 261 151 261 151 347 151 c 2,26,-1
 422 151 l 1,27,-1
 422 1151 l 1,28,29
 230 1148 230 1148 158 1144 c 1,30,-1
 152 1298 l 1,0,1
EndSplineSet
EndChar

StartChar: J
Encoding: 74 74 45
Width: 1060
GlyphClass: 1
Flags: W
LayerCount: 2
Fore
SplineSet
414 -8 m 0,0,1
 334 -8 334 -8 270 16.5 c 128,-1,2
 206 41 206 41 164 82 c 128,-1,3
 122 123 122 123 93.5 180 c 128,-1,4
 65 237 65 237 53 298 c 128,-1,5
 41 359 41 359 40 426 c 1,6,-1
 200 425 l 1,7,8
 202 366 202 366 214.5 317 c 128,-1,9
 227 268 227 268 250.5 227.5 c 128,-1,10
 274 187 274 187 315.5 164.5 c 128,-1,11
 357 142 357 142 412 142 c 128,-1,12
 467 142 467 142 506.5 164.5 c 128,-1,13
 546 187 546 187 570.5 227.5 c 128,-1,14
 595 268 595 268 609 334.5 c 128,-1,15
 623 401 623 401 628 476.5 c 128,-1,16
 633 552 633 552 633 659 c 0,17,18
 633 824 633 824 605 1144 c 1,19,20
 579 1144 579 1144 518 1145 c 128,-1,21
 457 1146 457 1146 440 1146 c 0,22,23
 404 1145 404 1145 377 1142.5 c 128,-1,24
 350 1140 350 1140 340 1138.5 c 128,-1,25
 330 1137 330 1137 315 1133 c 128,-1,26
 300 1129 300 1129 297 1128 c 1,27,-1
 259 1276 l 1,28,29
 343 1296 343 1296 438 1298 c 0,30,31
 509 1298 509 1298 693 1297.5 c 128,-1,32
 877 1297 877 1297 956 1297 c 1,33,-1
 954 1144 l 1,34,35
 930 1144 930 1144 862 1144.5 c 128,-1,36
 794 1145 794 1145 769 1145 c 1,37,38
 791 900 791 900 791 642 c 0,39,40
 791 560 791 560 787.5 494 c 128,-1,41
 784 428 784 428 774 358.5 c 128,-1,42
 764 289 764 289 747 237 c 128,-1,43
 730 185 730 185 701 137 c 128,-1,44
 672 89 672 89 633 58.5 c 128,-1,45
 594 28 594 28 538.5 10 c 128,-1,46
 483 -8 483 -8 414 -8 c 0,0,1
EndSplineSet
EndChar

StartChar: K
Encoding: 75 75 46
Width: 1060
GlyphClass: 1
Flags: W
LayerCount: 2
Fore
SplineSet
484 725 m 1,0,1
 592 620 592 620 779.5 385.5 c 128,-1,2
 967 151 967 151 1002 59 c 1,3,-1
 868 -17 l 1,4,5
 835 62 835 62 662.5 281.5 c 128,-1,6
 490 501 490 501 388 600 c 1,7,8
 304 502 304 502 274 431 c 1,9,-1
 274 -5 l 1,10,-1
 116 -5 l 1,11,-1
 116 1308 l 1,12,-1
 274 1308 l 1,13,-1
 274 703 l 1,14,15
 369 835 369 835 524 996 c 0,16,17
 608 1082 608 1082 687 1155 c 128,-1,18
 766 1228 766 1228 812.5 1267.5 c 128,-1,19
 859 1307 859 1307 862 1310 c 1,20,-1
 973 1204 l 1,21,22
 854 1118 854 1118 705.5 965.5 c 128,-1,23
 557 813 557 813 484 725 c 1,0,1
EndSplineSet
EndChar

StartChar: L
Encoding: 76 76 47
Width: 1060
GlyphClass: 1
Flags: W
LayerCount: 2
Fore
SplineSet
141 -3 m 1,0,-1
 141 1298 l 1,1,-1
 302 1298 l 1,2,-1
 302 151 l 1,3,-1
 823 151 l 2,4,5
 889 154 889 154 944 173 c 1,6,-1
 985 27 l 1,7,8
 897 -3 897 -3 825 -3 c 2,9,-1
 141 -3 l 1,0,-1
EndSplineSet
EndChar

StartChar: M
Encoding: 77 77 48
Width: 1060
GlyphClass: 1
Flags: W
LayerCount: 2
Fore
SplineSet
59 1292 m 1,0,-1
 214 1291 l 1,1,2
 249 1184 249 1184 282.5 1109 c 128,-1,3
 316 1034 316 1034 370 938 c 0,4,5
 425 839 425 839 465 759 c 1,6,7
 473 774 473 774 517 856 c 128,-1,8
 561 938 561 938 581 976 c 128,-1,9
 601 1014 601 1014 635.5 1081.5 c 128,-1,10
 670 1149 670 1149 692.5 1199.5 c 128,-1,11
 715 1250 715 1250 730 1291 c 1,12,-1
 887 1291 l 1,13,-1
 888 -5 l 1,14,-1
 731 -5 l 1,15,-1
 729 920 l 1,16,17
 702 868 702 868 649.5 773 c 128,-1,18
 597 678 597 678 564.5 616.5 c 128,-1,19
 532 555 532 555 527 539 c 1,20,-1
 405 542 l 1,21,22
 402 549 402 549 383.5 584 c 128,-1,23
 365 619 365 619 326.5 692.5 c 128,-1,24
 288 766 288 766 251 837 c 0,25,26
 229 884 229 884 220 900 c 1,27,-1
 220 -5 l 1,28,-1
 62 -5 l 1,29,-1
 59 1292 l 1,0,-1
EndSplineSet
EndChar

StartChar: N
Encoding: 78 78 49
Width: 1060
GlyphClass: 1
Flags: W
LayerCount: 2
Fore
SplineSet
752 -6 m 1,0,1
 526 489 526 489 233 1001 c 1,2,-1
 233 797 l 2,3,4
 233 633 233 633 233.5 344 c 128,-1,5
 234 55 234 55 234 -3 c 1,6,-1
 75 -3 l 1,7,-1
 75 1298 l 1,8,-1
 234 1294 l 1,9,10
 325 1161 325 1161 493.5 856 c 128,-1,11
 662 551 662 551 753 357 c 1,12,13
 750 552 750 552 750 757 c 0,14,15
 750 1069 750 1069 762 1297 c 1,16,-1
 916 1297 l 1,17,18
 908 1146 908 1146 908 872 c 0,19,20
 908 760 908 760 910 519 c 128,-1,21
 912 278 912 278 912 162 c 0,22,23
 912 133 912 133 911.5 77 c 128,-1,24
 911 21 911 21 911 -5 c 1,25,-1
 752 -6 l 1,0,1
EndSplineSet
EndChar

StartChar: O
Encoding: 79 79 50
Width: 1060
GlyphClass: 1
Flags: W
LayerCount: 2
Fore
SplineSet
504 1326 m 0,0,1
 535 1326 535 1326 568 1320.5 c 128,-1,2
 601 1315 601 1315 646.5 1296.5 c 128,-1,3
 692 1278 692 1278 732 1248.5 c 128,-1,4
 772 1219 772 1219 813.5 1165.5 c 128,-1,5
 855 1112 855 1112 884.5 1042 c 128,-1,6
 914 972 914 972 933.5 867 c 128,-1,7
 953 762 953 762 954 635 c 2,8,-1
 954 624 l 2,9,10
 954 508 954 508 927.5 399 c 128,-1,11
 901 290 901 290 862 214 c 0,12,13
 805 105 805 105 710 46 c 128,-1,14
 615 -13 615 -13 492 -13 c 0,15,16
 395 -13 395 -13 307.5 22.5 c 128,-1,17
 220 58 220 58 162 130 c 0,18,19
 24 299 24 299 24 572 c 0,20,21
 24 805 24 805 64 938.5 c 128,-1,22
 104 1072 104 1072 170 1161 c 0,23,24
 223 1234 223 1234 308 1279 c 128,-1,25
 393 1324 393 1324 504 1326 c 0,0,1
266 245 m 0,26,27
 345 140 345 140 492 140 c 0,28,29
 645 140 645 140 726 290 c 0,30,31
 755 336 755 336 775 439 c 128,-1,32
 795 542 795 542 796 627 c 2,33,-1
 796 646 l 2,34,35
 796 881 796 881 726 1017 c 0,36,37
 647 1173 647 1173 510 1173 c 0,38,39
 439 1173 439 1173 391 1149.5 c 128,-1,40
 343 1126 343 1126 300 1069 c 0,41,42
 182 917 182 917 182 576 c 0,43,44
 182 490 182 490 204.5 393 c 128,-1,45
 227 296 227 296 266 245 c 0,26,27
EndSplineSet
EndChar

StartChar: P
Encoding: 80 80 51
Width: 1060
GlyphClass: 1
Flags: W
LayerCount: 2
Fore
SplineSet
784 900 m 0,0,1
 784 977 784 977 762 1026 c 128,-1,2
 740 1075 740 1075 690 1101.5 c 128,-1,3
 640 1128 640 1128 577.5 1138.5 c 128,-1,4
 515 1149 515 1149 415 1151 c 0,5,6
 380 1151 380 1151 328.5 1148.5 c 128,-1,7
 277 1146 277 1146 264 1146 c 1,8,-1
 264 1020 l 1,9,-1
 263 613 l 1,10,11
 299 612 299 612 366 612 c 0,12,13
 590 612 590 612 687 673.5 c 128,-1,14
 784 735 784 735 784 900 c 0,0,1
262 -10 m 1,15,-1
 104 -9 l 1,16,-1
 104 1294 l 1,17,18
 161 1294 161 1294 243 1298 c 128,-1,19
 325 1302 325 1302 393 1302 c 0,20,21
 469 1302 469 1302 519 1299.5 c 128,-1,22
 569 1297 569 1297 624.5 1288.5 c 128,-1,23
 680 1280 680 1280 719.5 1264 c 128,-1,24
 759 1248 759 1248 798.5 1220 c 128,-1,25
 838 1192 838 1192 872 1151 c 0,26,27
 946 1062 946 1062 946 906 c 0,28,29
 946 727 946 727 878 628 c 0,30,31
 808 527 808 527 707 493.5 c 128,-1,32
 606 460 606 460 416 460 c 0,33,34
 344 460 344 460 263 463 c 1,35,36
 263 318 263 318 262.5 186.5 c 128,-1,37
 262 55 262 55 262 -10 c 1,15,-1
EndSplineSet
EndChar

StartChar: Q
Encoding: 81 81 52
Width: 1060
GlyphClass: 1
Flags: W
LayerCount: 2
Fore
SplineSet
889 -146 m 0,0,1
 789 -146 789 -146 715 -109 c 128,-1,2
 641 -72 641 -72 623 15 c 1,3,4
 556 -3 556 -3 501 -3 c 0,5,6
 319 -3 319 -3 198 121 c 0,7,8
 50 275 50 275 50 629 c 0,9,10
 50 991 50 991 174 1150 c 0,11,12
 241 1236 241 1236 316 1270.5 c 128,-1,13
 391 1305 391 1305 489 1305 c 0,14,15
 736 1305 736 1305 851 1099 c 0,16,17
 891 1028 891 1028 912.5 944 c 128,-1,18
 934 860 934 860 938 806 c 128,-1,19
 942 752 942 752 942 679 c 0,20,21
 942 389 942 389 849 231 c 0,22,23
 785 126 785 126 756 93 c 1,24,25
 764 40 764 40 790 21.5 c 128,-1,26
 816 3 816 3 878 1 c 2,27,-1
 889 1 l 2,28,29
 933 1 933 1 973 11 c 1,30,-1
 973 -137 l 1,31,32
 933 -146 933 -146 889 -146 c 0,0,1
502 430 m 0,33,34
 679 430 679 430 714 286 c 1,35,36
 783 373 783 373 783 664 c 2,37,-1
 783 691 l 2,38,39
 783 758 783 758 780 801.5 c 128,-1,40
 777 845 777 845 761 908 c 128,-1,41
 745 971 745 971 714 1023 c 0,42,43
 678 1083 678 1083 619.5 1117.5 c 128,-1,44
 561 1152 561 1152 487 1152 c 0,45,46
 352 1152 352 1152 280.5 1032 c 128,-1,47
 209 912 209 912 209 691 c 0,48,49
 209 375 209 375 284 264 c 1,50,51
 298 311 298 311 323.5 345.5 c 128,-1,52
 349 380 349 380 381 397.5 c 128,-1,53
 413 415 413 415 442.5 422.5 c 128,-1,54
 472 430 472 430 502 430 c 0,33,34
607 167 m 1,55,56
 605 241 605 241 577.5 272.5 c 128,-1,57
 550 304 550 304 488 304 c 0,58,59
 438 304 438 304 402.5 271 c 128,-1,60
 367 238 367 238 367 190 c 2,61,-1
 367 186 l 1,62,63
 406 144 406 144 490 144 c 0,64,65
 555 144 555 144 607 167 c 1,55,56
EndSplineSet
EndChar

StartChar: R
Encoding: 82 82 53
Width: 1060
GlyphClass: 1
Flags: W
LayerCount: 2
Fore
SplineSet
652 540 m 1,0,1
 658 531 658 531 700 465 c 128,-1,2
 742 399 742 399 758.5 373 c 128,-1,3
 775 347 775 347 807 298.5 c 128,-1,4
 839 250 839 250 860.5 221 c 128,-1,5
 882 192 882 192 898 173 c 0,6,7
 900 171 900 171 910 162 c 128,-1,8
 920 153 920 153 926.5 147.5 c 128,-1,9
 933 142 933 142 943.5 134 c 128,-1,10
 954 126 954 126 965.5 120.5 c 128,-1,11
 977 115 977 115 989 112 c 1,12,-1
 930 -22 l 1,13,14
 888 -16 888 -16 849.5 9 c 128,-1,15
 811 34 811 34 784 67 c 0,16,17
 688 172 688 172 473 534 c 1,18,19
 396 542 396 542 247 567 c 1,20,-1
 248 0 l 1,21,-1
 90 0 l 1,22,-1
 90 1113 l 2,23,24
 90 1212 90 1212 85 1288 c 1,25,26
 242 1303 242 1303 303 1303 c 0,27,28
 388 1303 388 1303 444.5 1300.5 c 128,-1,29
 501 1298 501 1298 565 1288.5 c 128,-1,30
 629 1279 629 1279 674 1261.5 c 128,-1,31
 719 1244 719 1244 763.5 1213.5 c 128,-1,32
 808 1183 808 1183 844 1139 c 0,33,34
 881 1093 881 1093 904 1031.5 c 128,-1,35
 927 970 927 970 927 909 c 0,36,37
 927 585 927 585 652 540 c 1,0,1
772 895 m 0,38,39
 772 983 772 983 715 1048 c 0,40,41
 666 1105 666 1105 573 1127.5 c 128,-1,42
 480 1150 480 1150 308 1150 c 0,43,44
 274 1150 274 1150 245 1149 c 1,45,-1
 247 719 l 1,46,47
 272 714 272 714 333 701.5 c 128,-1,48
 394 689 394 689 432 683.5 c 128,-1,49
 470 678 470 678 507 678 c 0,50,51
 532 678 532 678 556 681 c 0,52,53
 614 688 614 688 650 699.5 c 128,-1,54
 686 711 686 711 716 734 c 128,-1,55
 746 757 746 757 759 796 c 128,-1,56
 772 835 772 835 772 895 c 0,38,39
EndSplineSet
EndChar

StartChar: S
Encoding: 83 83 54
Width: 1060
GlyphClass: 1
Flags: W
LayerCount: 2
Fore
SplineSet
247 709 m 0,0,1
 171 745 171 745 121.5 816 c 128,-1,2
 72 887 72 887 72 989 c 0,3,4
 72 1142 72 1142 186 1222 c 128,-1,5
 300 1302 300 1302 470 1302 c 2,6,-1
 479 1302 l 1,7,8
 858 1297 858 1297 910 1016 c 1,9,-1
 751 987 l 1,10,11
 724 1079 724 1079 660 1113.5 c 128,-1,12
 596 1148 596 1148 475 1148 c 0,13,14
 333 1148 333 1148 266 1082 c 0,15,16
 231 1046 231 1046 231 994 c 0,17,18
 231 937 231 937 258 903.5 c 128,-1,19
 285 870 285 870 333 847 c 0,20,21
 373 828 373 828 521 796 c 128,-1,22
 669 764 669 764 739 732 c 0,23,24
 828 689 828 689 888.5 599.5 c 128,-1,25
 949 510 949 510 949 388 c 0,26,27
 949 290 949 290 916 213 c 128,-1,28
 883 136 883 136 824.5 88 c 128,-1,29
 766 40 766 40 689 15.5 c 128,-1,30
 612 -9 612 -9 521 -9 c 2,31,-1
 502 -9 l 2,32,33
 374 -6 374 -6 282 28.5 c 128,-1,34
 190 63 190 63 139.5 122.5 c 128,-1,35
 89 182 89 182 66 253.5 c 128,-1,36
 43 325 43 325 43 413 c 1,37,-1
 201 413 l 1,38,39
 201 286 201 286 274.5 214 c 128,-1,40
 348 142 348 142 508 142 c 0,41,42
 789 142 789 142 789 380 c 0,43,44
 789 457 789 457 751.5 509.5 c 128,-1,45
 714 562 714 562 651 589 c 0,46,47
 597 612 597 612 457 644.5 c 128,-1,48
 317 677 317 677 247 709 c 0,0,1
EndSplineSet
EndChar

StartChar: T
Encoding: 84 84 55
Width: 1060
GlyphClass: 1
Flags: W
LayerCount: 2
Fore
SplineSet
403 -9 m 1,0,-1
 403 1144 l 1,1,2
 289 1144 289 1144 175.5 1143.5 c 128,-1,3
 62 1143 62 1143 39 1143 c 1,4,-1
 39 1298 l 1,5,6
 92 1298 92 1298 396.5 1298.5 c 128,-1,7
 701 1299 701 1299 803 1299 c 0,8,9
 853 1299 853 1299 943 1284 c 1,10,-1
 910 1132 l 1,11,12
 848 1144 848 1144 798 1144 c 2,13,-1
 563 1144 l 1,14,-1
 563 -9 l 1,15,-1
 403 -9 l 1,0,-1
EndSplineSet
EndChar

StartChar: U
Encoding: 85 85 56
Width: 1060
GlyphClass: 1
Flags: W
LayerCount: 2
Fore
SplineSet
777 1313 m 1,0,-1
 934 1300 l 1,1,2
 925 1240 925 1240 925 1143 c 0,3,4
 925 1066 925 1066 926 938.5 c 128,-1,5
 927 811 927 811 927 760 c 2,6,-1
 927 702 l 2,7,8
 927 593 927 593 924.5 527 c 128,-1,9
 922 461 922 461 911.5 376 c 128,-1,10
 901 291 901 291 876 228 c 128,-1,11
 851 165 851 165 811 119 c 0,12,13
 753 52 753 52 675 23 c 128,-1,14
 597 -6 597 -6 492 -10 c 1,15,16
 378 -10 378 -10 298.5 19.5 c 128,-1,17
 219 49 219 49 171 110 c 128,-1,18
 123 171 123 171 99 252 c 128,-1,19
 75 333 75 333 68 447 c 0,20,21
 61 552 61 552 61 779 c 0,22,23
 61 1065 61 1065 70 1302 c 1,24,-1
 228 1302 l 1,25,26
 220 972 220 972 220 728 c 0,27,28
 220 523 220 523 227 439 c 0,29,30
 240 283 240 283 302 212 c 128,-1,31
 364 141 364 141 479 141 c 1,32,33
 557 145 557 145 603.5 163.5 c 128,-1,34
 650 182 650 182 691 225 c 0,35,36
 769 311 769 311 769 702 c 0,37,38
 769 758 769 758 766.5 904 c 128,-1,39
 764 1050 764 1050 764 1141 c 128,-1,40
 764 1232 764 1232 777 1313 c 1,0,-1
EndSplineSet
EndChar

StartChar: V
Encoding: 86 86 57
Width: 1060
GlyphClass: 1
Flags: W
LayerCount: 2
Fore
SplineSet
413 -5 m 1,0,1
 396 130 396 130 241 615.5 c 128,-1,2
 86 1101 86 1101 8 1286 c 1,3,-1
 160 1339 l 1,4,5
 241 1136 241 1136 332.5 861.5 c 128,-1,6
 424 587 424 587 494 325 c 1,7,8
 582 699 582 699 837 1325 c 1,9,-1
 988 1272 l 1,10,11
 897 1058 897 1058 741.5 594.5 c 128,-1,12
 586 131 586 131 574 -4 c 1,13,-1
 413 -5 l 1,0,1
EndSplineSet
EndChar

StartChar: W
Encoding: 87 87 58
Width: 1060
GlyphClass: 1
Flags: W
LayerCount: 2
Fore
SplineSet
332 0 m 1,0,-1
 201 0 l 1,1,2
 177 94 177 94 101 639.5 c 128,-1,3
 25 1185 25 1185 6 1286 c 1,4,-1
 160 1318 l 1,5,6
 213 1035 213 1035 235 854.5 c 128,-1,7
 257 674 257 674 266 540 c 128,-1,8
 275 406 275 406 290 298 c 1,9,10
 337 454 337 454 383 672.5 c 128,-1,11
 429 891 429 891 435 957 c 1,12,13
 568 957 568 957 602 969 c 1,14,15
 606 949 606 949 630 818 c 128,-1,16
 654 687 654 687 666 624.5 c 128,-1,17
 678 562 678 562 701 463.5 c 128,-1,18
 724 365 724 365 744 300 c 1,19,20
 754 385 754 385 760.5 516.5 c 128,-1,21
 767 648 767 648 789 827.5 c 128,-1,22
 811 1007 811 1007 868 1315 c 1,23,-1
 1026 1283 l 1,24,25
 997 1141 997 1141 922 603 c 128,-1,26
 847 65 847 65 835 0 c 1,27,-1
 699 0 l 1,28,29
 553 429 553 429 521 613 c 1,30,31
 475 394 475 394 332 0 c 1,0,-1
EndSplineSet
EndChar

StartChar: X
Encoding: 88 88 59
Width: 1060
GlyphClass: 1
Flags: W
LayerCount: 2
Fore
SplineSet
794 1340 m 1,0,-1
 928 1255 l 1,1,-1
 568 657 l 1,2,3
 601 605 601 605 660 511 c 128,-1,4
 719 417 719 417 747.5 373.5 c 128,-1,5
 776 330 776 330 819 267.5 c 128,-1,6
 862 205 862 205 899.5 161 c 128,-1,7
 937 117 937 117 978 77 c 1,8,-1
 874 -36 l 1,9,10
 851 -14 851 -14 829 9.5 c 128,-1,11
 807 33 807 33 789.5 52.5 c 128,-1,12
 772 72 772 72 749 102 c 128,-1,13
 726 132 726 132 713 148 c 128,-1,14
 700 164 700 164 675 201.5 c 128,-1,15
 650 239 650 239 640 253.5 c 128,-1,16
 630 268 630 268 601 313 c 128,-1,17
 572 358 572 358 563.5 371.5 c 128,-1,18
 555 385 555 385 521 439 c 128,-1,19
 487 493 487 493 478 508 c 1,20,-1
 160 -31 l 1,21,-1
 28 54 l 1,22,-1
 380 654 l 1,23,24
 345 713 345 713 273 848.5 c 128,-1,25
 201 984 201 984 143.5 1076 c 128,-1,26
 86 1168 86 1168 23 1238 c 1,27,-1
 148 1331 l 1,28,29
 206 1266 206 1266 261 1177.5 c 128,-1,30
 316 1089 316 1089 380 969.5 c 128,-1,31
 444 850 444 850 475 799 c 1,32,-1
 794 1340 l 1,0,-1
EndSplineSet
EndChar

StartChar: Y
Encoding: 89 89 60
Width: 1060
GlyphClass: 1
Flags: W
LayerCount: 2
Fore
SplineSet
399 -6 m 1,0,-1
 399 135 l 2,1,2
 399 176 399 176 402.5 357 c 128,-1,3
 406 538 406 538 406 601 c 1,4,5
 351 678 351 678 214 921.5 c 128,-1,6
 77 1165 77 1165 33 1257 c 1,7,-1
 173 1328 l 1,8,9
 220 1238 220 1238 327.5 1043.5 c 128,-1,10
 435 849 435 849 492 759 c 1,11,12
 561 857 561 857 679 1063 c 128,-1,13
 797 1269 797 1269 828 1341 c 1,14,-1
 967 1262 l 1,15,16
 857 1042 857 1042 742 858 c 0,17,18
 706 804 706 804 664.5 739.5 c 128,-1,19
 623 675 623 675 598.5 638 c 128,-1,20
 574 601 574 601 566 590 c 1,21,22
 566 567 566 567 565 518 c 128,-1,23
 564 469 564 469 564 441 c 0,24,25
 559 221 559 221 559 125 c 2,26,-1
 559 -6 l 1,27,-1
 399 -6 l 1,0,-1
EndSplineSet
EndChar

StartChar: Z
Encoding: 90 90 61
Width: 1060
GlyphClass: 1
Flags: W
LayerCount: 2
Fore
SplineSet
123 -5 m 1,0,-1
 28 83 l 1,1,-1
 755 1150 l 1,2,3
 636 1150 636 1150 385 1147.5 c 128,-1,4
 134 1145 134 1145 89 1145 c 1,5,-1
 88 1298 l 1,6,7
 140 1298 140 1298 428 1300 c 128,-1,8
 716 1302 716 1302 818 1302 c 0,9,10
 844 1302 844 1302 869 1300 c 128,-1,11
 894 1298 894 1298 908.5 1295.5 c 128,-1,12
 923 1293 923 1293 939 1289.5 c 128,-1,13
 955 1286 955 1286 958 1286 c 1,14,15
 952 1216 952 1216 940 1149 c 1,16,-1
 263 151 l 1,17,-1
 750 150 l 2,18,19
 813 150 813 150 845.5 154.5 c 128,-1,20
 878 159 878 159 927 175 c 1,21,-1
 967 27 l 1,22,23
 883 -3 883 -3 809 -3 c 2,24,-1
 566 -3 l 2,25,26
 440 -3 440 -3 287 -4 c 128,-1,27
 134 -5 134 -5 130 -5 c 2,28,-1
 123 -5 l 1,0,-1
EndSplineSet
EndChar

StartChar: bracketleft
Encoding: 91 91 62
Width: 1060
GlyphClass: 1
Flags: W
LayerCount: 2
Fore
SplineSet
844 1483 m 1,0,-1
 876 1329 l 1,1,2
 810 1323 810 1323 512 1316 c 1,3,-1
 512 -101 l 1,4,5
 640 -97 640 -97 732 -97 c 2,6,-1
 745 -97 l 2,7,8
 846 -97 846 -97 888 -106 c 1,9,-1
 888 -268 l 1,10,11
 813 -259 813 -259 752 -259 c 0,12,13
 727 -259 727 -259 566 -261.5 c 128,-1,14
 405 -264 405 -264 354 -264 c 1,15,16
 354 -175 354 -175 355 -44 c 128,-1,17
 356 87 356 87 356 177 c 0,18,19
 356 209 356 209 354 567 c 0,20,21
 354 660 354 660 353 824.5 c 128,-1,22
 352 989 352 989 352 1049 c 2,23,-1
 352 1470 l 1,24,25
 404 1470 404 1470 562 1473.5 c 128,-1,26
 720 1477 720 1477 740 1477 c 0,27,28
 807 1480 807 1480 844 1483 c 1,0,-1
EndSplineSet
EndChar

StartChar: backslash
Encoding: 92 92 63
Width: 1060
GlyphClass: 1
Flags: W
LayerCount: 2
Fore
SplineSet
906 -80 m 1,0,-1
 758 -141 l 1,1,2
 228 1104 228 1104 120 1380 c 1,3,-1
 268 1438 l 1,4,5
 339 1250 339 1250 542.5 767.5 c 128,-1,6
 746 285 746 285 856 32 c 0,7,8
 864 11 864 11 906 -80 c 1,0,-1
EndSplineSet
EndChar

StartChar: bracketright
Encoding: 93 93 64
Width: 1060
GlyphClass: 1
Flags: W
LayerCount: 2
Fore
SplineSet
199 1483 m 1,0,1
 236 1480 236 1480 303 1477 c 0,2,3
 323 1477 323 1477 481 1473.5 c 128,-1,4
 639 1470 639 1470 691 1470 c 1,5,-1
 691 1049 l 2,6,7
 691 989 691 989 690 824.5 c 128,-1,8
 689 660 689 660 689 567 c 0,9,10
 687 209 687 209 687 177 c 0,11,12
 687 87 687 87 688 -44 c 128,-1,13
 689 -175 689 -175 689 -264 c 1,14,15
 638 -264 638 -264 477 -261.5 c 128,-1,16
 316 -259 316 -259 291 -259 c 0,17,18
 230 -259 230 -259 155 -268 c 1,19,-1
 155 -106 l 1,20,21
 197 -97 197 -97 298 -97 c 2,22,-1
 311 -97 l 2,23,24
 403 -97 403 -97 531 -101 c 1,25,-1
 531 1316 l 1,26,27
 233 1323 233 1323 167 1329 c 1,28,-1
 199 1483 l 1,0,1
EndSplineSet
EndChar

StartChar: asciicircum
Encoding: 94 94 65
Width: 1060
GlyphClass: 1
Flags: W
LayerCount: 2
Fore
SplineSet
520 1101 m 1,0,-1
 978 590 l 1,1,-1
 858 467 l 1,2,-1
 522 829 l 1,3,-1
 167 467 l 1,4,-1
 52 576 l 1,5,-1
 520 1101 l 1,0,-1
EndSplineSet
EndChar

StartChar: underscore
Encoding: 95 95 66
Width: 1060
GlyphClass: 1
Flags: W
LayerCount: 2
Fore
SplineSet
992 -334 m 1,0,-1
 42 -334 l 1,1,-1
 42 -178 l 1,2,-1
 992 -178 l 1,3,-1
 992 -334 l 1,0,-1
EndSplineSet
EndChar

StartChar: grave
Encoding: 96 96 67
Width: 1060
GlyphClass: 1
Flags: W
LayerCount: 2
Fore
SplineSet
359 1487 m 1,0,1
 385 1446 385 1446 450 1381 c 128,-1,2
 515 1316 515 1316 585.5 1255 c 128,-1,3
 656 1194 656 1194 724.5 1144.5 c 128,-1,4
 793 1095 793 1095 827 1082 c 1,5,-1
 726 926 l 1,6,7
 573 1022 573 1022 455 1118 c 128,-1,8
 337 1214 337 1214 214 1348 c 1,9,-1
 359 1487 l 1,0,1
EndSplineSet
EndChar

StartChar: a
Encoding: 97 97 68
Width: 1060
GlyphClass: 1
Flags: W
LayerCount: 2
Fore
SplineSet
234 311 m 0,0,1
 234 233 234 233 273.5 189.5 c 128,-1,2
 313 146 313 146 383 146 c 0,3,4
 442 146 442 146 496.5 163.5 c 128,-1,5
 551 181 551 181 586 203.5 c 128,-1,6
 621 226 621 226 653.5 258 c 128,-1,7
 686 290 686 290 699 307.5 c 128,-1,8
 712 325 712 325 724 345 c 1,9,-1
 724 440 l 1,10,11
 620 504 620 504 489 504 c 0,12,13
 383 503 383 503 308.5 450 c 128,-1,14
 234 397 234 397 234 311 c 0,0,1
881 318 m 2,15,16
 881 190 881 190 894 173 c 0,17,18
 900 165 900 165 912.5 155 c 128,-1,19
 925 145 925 145 944.5 130.5 c 128,-1,20
 964 116 964 116 973 109 c 1,21,-1
 890 -10 l 1,22,23
 883 -4 883 -4 859.5 12 c 128,-1,24
 836 28 836 28 826 37.5 c 128,-1,25
 816 47 816 47 800 64.5 c 128,-1,26
 784 82 784 82 774.5 104.5 c 128,-1,27
 765 127 765 127 760 156 c 1,28,29
 724 121 724 121 694.5 98 c 128,-1,30
 665 75 665 75 618 48 c 128,-1,31
 571 21 571 21 512 7.5 c 128,-1,32
 453 -6 453 -6 383 -6 c 0,33,34
 256 -6 256 -6 167 84.5 c 128,-1,35
 78 175 78 175 78 301 c 0,36,37
 78 360 78 360 101 421.5 c 128,-1,38
 124 483 124 483 167 527 c 0,39,40
 234 595 234 595 309 621.5 c 128,-1,41
 384 648 384 648 481 648 c 0,42,43
 641 648 641 648 724 597 c 1,44,45
 724 741 724 741 667.5 809 c 128,-1,46
 611 877 611 877 485 877 c 0,47,48
 378 877 378 877 320.5 843 c 128,-1,49
 263 809 263 809 204 704 c 1,50,-1
 74 786 l 1,51,52
 143 917 143 917 242.5 972.5 c 128,-1,53
 342 1028 342 1028 483 1028 c 0,54,55
 663 1028 663 1028 772 923 c 128,-1,56
 881 818 881 818 881 648 c 2,57,-1
 881 318 l 2,15,16
EndSplineSet
EndChar

StartChar: b
Encoding: 98 98 69
Width: 1060
GlyphClass: 1
Flags: W
LayerCount: 2
Fore
SplineSet
749 478 m 0,0,1
 749 865 749 865 474 865 c 0,2,3
 457 865 457 865 440.5 861 c 128,-1,4
 424 857 424 857 411.5 853.5 c 128,-1,5
 399 850 399 850 382 839.5 c 128,-1,6
 365 829 365 829 357.5 824.5 c 128,-1,7
 350 820 350 820 332 804 c 128,-1,8
 314 788 314 788 310.5 785 c 128,-1,9
 307 782 307 782 288 763 c 2,10,-1
 269 744 l 1,11,-1
 269 307 l 1,12,13
 326 215 326 215 376 181 c 128,-1,14
 426 147 426 147 524 147 c 0,15,16
 646 147 646 147 697.5 231.5 c 128,-1,17
 749 316 749 316 749 478 c 0,0,1
906 459 m 0,18,19
 906 356 906 356 884.5 273 c 128,-1,20
 863 190 863 190 818.5 126 c 128,-1,21
 774 62 774 62 699.5 27.5 c 128,-1,22
 625 -7 625 -7 524 -7 c 0,23,24
 371 -7 371 -7 269 84 c 1,25,26
 268 54 268 54 258 -12 c 1,27,-1
 93 7 l 1,28,29
 112 132 112 132 112 243 c 2,30,-1
 112 267 l 2,31,32
 112 388 112 388 111.5 700.5 c 128,-1,33
 111 1013 111 1013 111 1157 c 0,34,35
 111 1257 111 1257 96 1403 c 1,36,-1
 255 1412 l 1,37,38
 269 1298 269 1298 269 1152 c 2,39,-1
 269 949 l 1,40,41
 303 974 303 974 319.5 985 c 128,-1,42
 336 996 336 996 374.5 1008 c 128,-1,43
 413 1020 413 1020 460 1020 c 0,44,45
 906 1020 906 1020 906 459 c 0,18,19
EndSplineSet
EndChar

StartChar: c
Encoding: 99 99 70
Width: 1060
GlyphClass: 1
Flags: W
LayerCount: 2
Fore
SplineSet
230 527 m 0,0,1
 230 451 230 451 242.5 390 c 128,-1,2
 255 329 255 329 273 290 c 128,-1,3
 291 251 291 251 320.5 223.5 c 128,-1,4
 350 196 350 196 375.5 182 c 128,-1,5
 401 168 401 168 437 160.5 c 128,-1,6
 473 153 473 153 494.5 151.5 c 128,-1,7
 516 150 516 150 547 150 c 2,8,-1
 560 150 l 2,9,10
 669 150 669 150 734 189.5 c 128,-1,11
 799 229 799 229 843 302 c 1,12,-1
 969 211 l 1,13,14
 967 209 967 209 951.5 186.5 c 128,-1,15
 936 164 936 164 922.5 149 c 128,-1,16
 909 134 909 134 884 108 c 128,-1,17
 859 82 859 82 829.5 64.5 c 128,-1,18
 800 47 800 47 761.5 29.5 c 128,-1,19
 723 12 723 12 672 2.5 c 128,-1,20
 621 -7 621 -7 564 -7 c 0,21,22
 465 -7 465 -7 385.5 9 c 128,-1,23
 306 25 306 25 241 73 c 0,24,25
 148 145 148 145 109.5 256.5 c 128,-1,26
 71 368 71 368 71 527 c 0,27,28
 71 663 71 663 103 758.5 c 128,-1,29
 135 854 135 854 200 910.5 c 128,-1,30
 265 967 265 967 353.5 992.5 c 128,-1,31
 442 1018 442 1018 564 1018 c 0,32,33
 702 1018 702 1018 793 948 c 0,34,35
 862 895 862 895 907 789 c 1,36,-1
 753 729 l 1,37,38
 748 747 748 747 743.5 759.5 c 128,-1,39
 739 772 739 772 724 794 c 128,-1,40
 709 816 709 816 689.5 829.5 c 128,-1,41
 670 843 670 843 634 854 c 128,-1,42
 598 865 598 865 553 865 c 0,43,44
 386 865 386 865 308 785 c 128,-1,45
 230 705 230 705 230 527 c 0,0,1
EndSplineSet
EndChar

StartChar: d
Encoding: 100 100 71
Width: 1060
GlyphClass: 1
Flags: W
LayerCount: 2
Fore
SplineSet
231 478 m 0,0,1
 231 315 231 315 281.5 231 c 128,-1,2
 332 147 332 147 454 147 c 0,3,4
 522 147 522 147 567 164.5 c 128,-1,5
 612 182 612 182 641.5 213.5 c 128,-1,6
 671 245 671 245 710 307 c 1,7,-1
 710 744 l 1,8,9
 663 790 663 790 591.5 829 c 128,-1,10
 520 868 520 868 458 868 c 0,11,12
 335 868 335 868 283 779 c 128,-1,13
 231 690 231 690 231 478 c 0,0,1
867 267 m 1,14,-1
 867 241 l 2,15,16
 867 124 867 124 885 7 c 1,17,-1
 721 -12 l 1,18,19
 711 54 711 54 710 84 c 1,20,21
 608 -7 608 -7 454 -7 c 0,22,23
 258 -7 258 -7 165.5 119 c 128,-1,24
 73 245 73 245 73 459 c 0,25,26
 73 566 73 566 83.5 647.5 c 128,-1,27
 94 729 94 729 121 802 c 128,-1,28
 148 875 148 875 192 922 c 128,-1,29
 236 969 236 969 306.5 996 c 128,-1,30
 377 1023 377 1023 472 1023 c 0,31,32
 594 1023 594 1023 709 949 c 1,33,-1
 709 1156 l 2,34,35
 709 1257 709 1257 694 1403 c 1,36,-1
 854 1411 l 1,37,38
 868 1297 868 1297 868 1152 c 2,39,-1
 867 267 l 1,14,-1
EndSplineSet
EndChar

StartChar: e
Encoding: 101 101 72
Width: 1060
GlyphClass: 1
Flags: W
LayerCount: 2
Fore
SplineSet
236 580 m 1,0,1
 555 582 555 582 764 606 c 1,2,3
 752 726 752 726 682.5 797.5 c 128,-1,4
 613 869 613 869 510 869 c 0,5,6
 387 869 387 869 312 784.5 c 128,-1,7
 237 700 237 700 236 580 c 1,0,1
509 1021 m 0,8,9
 587 1021 587 1021 650.5 999 c 128,-1,10
 714 977 714 977 756 943 c 128,-1,11
 798 909 798 909 830 860.5 c 128,-1,12
 862 812 862 812 879 765.5 c 128,-1,13
 896 719 896 719 906.5 666 c 128,-1,14
 917 613 917 613 920 576 c 128,-1,15
 923 539 923 539 923 503 c 0,16,17
 923 468 923 468 922 460 c 1,18,19
 475 430 475 430 236 427 c 1,20,21
 236 303 236 303 308.5 223 c 128,-1,22
 381 143 381 143 526 143 c 0,23,24
 622 143 622 143 688 183 c 128,-1,25
 754 223 754 223 792 276 c 1,26,-1
 915 167 l 1,27,28
 893 143 893 143 880.5 130 c 128,-1,29
 868 117 868 117 828.5 86.5 c 128,-1,30
 789 56 789 56 751 38.5 c 128,-1,31
 713 21 713 21 651 5.5 c 128,-1,32
 589 -10 589 -10 522 -10 c 0,33,34
 305 -10 305 -10 191.5 132 c 128,-1,35
 78 274 78 274 78 516 c 0,36,37
 78 739 78 739 191 880 c 128,-1,38
 304 1021 304 1021 509 1021 c 0,8,9
EndSplineSet
EndChar

StartChar: f
Encoding: 102 102 73
Width: 1060
GlyphClass: 1
Flags: W
LayerCount: 2
Fore
SplineSet
568 1266 m 0,0,1
 525 1266 525 1266 495.5 1254 c 128,-1,2
 466 1242 466 1242 449.5 1225 c 128,-1,3
 433 1208 433 1208 424.5 1178.5 c 128,-1,4
 416 1149 416 1149 414 1124 c 128,-1,5
 412 1099 412 1099 412 1060 c 2,6,-1
 412 1021 l 1,7,8
 445 1021 445 1021 545.5 1020.5 c 128,-1,9
 646 1020 646 1020 683 1020 c 0,10,11
 787 1017 787 1017 844 1000 c 1,12,-1
 815 854 l 1,13,14
 776 867 776 867 717 867 c 2,15,-1
 412 867 l 1,16,17
 415 405 415 405 415 0 c 1,18,-1
 258 0 l 1,19,20
 258 646 258 646 255 867 c 1,21,-1
 112 867 l 1,22,-1
 112 1020 l 1,23,-1
 256 1020 l 1,24,25
 256 1028 256 1028 255.5 1041 c 128,-1,26
 255 1054 255 1054 255 1064 c 0,27,28
 255 1115 255 1115 260 1156.5 c 128,-1,29
 265 1198 265 1198 283 1249.5 c 128,-1,30
 301 1301 301 1301 332.5 1335.5 c 128,-1,31
 364 1370 364 1370 422.5 1394 c 128,-1,32
 481 1418 481 1418 560 1418 c 0,33,34
 743 1418 743 1418 847.5 1380 c 128,-1,35
 952 1342 952 1342 1011 1225 c 1,36,-1
 885 1148 l 1,37,38
 848 1221 848 1221 786 1243.5 c 128,-1,39
 724 1266 724 1266 568 1266 c 0,0,1
EndSplineSet
EndChar

StartChar: g
Encoding: 103 103 74
Width: 1060
GlyphClass: 1
Flags: W
LayerCount: 2
Fore
SplineSet
237 -76 m 0,0,1
 237 -166 237 -166 287.5 -199 c 128,-1,2
 338 -232 338 -232 444 -232 c 2,3,-1
 549 -232 l 2,4,5
 596 -232 596 -232 637.5 -222.5 c 128,-1,6
 679 -213 679 -213 718 -191 c 128,-1,7
 757 -169 757 -169 780 -126.5 c 128,-1,8
 803 -84 803 -84 803 -25 c 0,9,10
 803 71 803 71 533 71 c 0,11,12
 467 71 467 71 321 69 c 1,13,14
 281 53 281 53 259 13 c 128,-1,15
 237 -27 237 -27 237 -76 c 0,0,1
476 557 m 0,16,17
 576 557 576 557 640 596 c 128,-1,18
 704 635 704 635 704 706 c 0,19,20
 704 798 704 798 649.5 836 c 128,-1,21
 595 874 595 874 492 874 c 0,22,23
 390 874 390 874 321.5 826 c 128,-1,24
 253 778 253 778 253 709 c 0,25,26
 253 557 253 557 476 557 c 0,16,17
95 699 m 0,27,28
 95 855 95 855 200.5 940.5 c 128,-1,29
 306 1026 306 1026 492 1026 c 0,30,31
 648 1026 648 1026 746 966 c 1,32,33
 786 1004 786 1004 832.5 1016 c 128,-1,34
 879 1028 879 1028 965 1028 c 1,35,-1
 965 864 l 1,36,37
 935 869 935 869 921 869 c 0,38,39
 852 869 852 869 830 847 c 1,40,41
 860 793 860 793 860 710 c 0,42,43
 860 570 860 570 756 488.5 c 128,-1,44
 652 407 652 407 481 407 c 0,45,46
 365 407 365 407 282 439 c 1,47,48
 239 389 239 389 239 341 c 0,49,50
 239 223 239 223 419 223 c 0,51,52
 432 223 432 223 509 224 c 128,-1,53
 586 225 586 225 600 225 c 0,54,55
 675 225 675 225 736.5 212.5 c 128,-1,56
 798 200 798 200 850 172.5 c 128,-1,57
 902 145 902 145 931.5 95 c 128,-1,58
 961 45 961 45 961 -24 c 0,59,60
 961 -210 961 -210 848.5 -299 c 128,-1,61
 736 -388 736 -388 543 -388 c 2,62,-1
 440 -388 l 2,63,64
 275 -388 275 -388 177.5 -311 c 128,-1,65
 80 -234 80 -234 80 -82 c 0,66,67
 80 61 80 61 167 137 c 1,68,69
 82 200 82 200 82 328 c 0,70,71
 82 442 82 442 156 527 c 1,72,73
 95 595 95 595 95 699 c 0,27,28
EndSplineSet
EndChar

StartChar: h
Encoding: 104 104 75
Width: 1060
GlyphClass: 1
Flags: W
LayerCount: 2
Fore
SplineSet
739 576 m 2,0,1
 739 666 739 666 730.5 718 c 128,-1,2
 722 770 722 770 695.5 806 c 128,-1,3
 669 842 669 842 624 854.5 c 128,-1,4
 579 867 579 867 502 867 c 0,5,6
 430 867 430 867 362 824 c 128,-1,7
 294 781 294 781 269 731 c 1,8,-1
 269 198 l 2,9,10
 269 92 269 92 259 0 c 1,11,-1
 101 8 l 1,12,13
 112 107 112 107 112 204 c 2,14,-1
 111 1402 l 1,15,-1
 270 1402 l 1,16,-1
 270 940 l 1,17,18
 330 978 330 978 385 999 c 128,-1,19
 440 1020 440 1020 509 1020 c 0,20,21
 619 1020 619 1020 692 1000 c 128,-1,22
 765 980 765 980 819 915 c 0,23,24
 868 857 868 857 882 798 c 128,-1,25
 896 739 896 739 896 642 c 2,26,-1
 896 576 l 2,27,28
 896 488 896 488 895.5 380 c 128,-1,29
 895 272 895 272 895 223 c 0,30,31
 895 183 895 183 914.5 157 c 128,-1,32
 934 131 934 131 981 100 c 1,33,-1
 893 -17 l 1,34,35
 858 3 858 3 834.5 20 c 128,-1,36
 811 37 811 37 787 63.5 c 128,-1,37
 763 90 763 90 751 126 c 128,-1,38
 739 162 739 162 739 208 c 2,39,-1
 739 576 l 2,0,1
EndSplineSet
EndChar

StartChar: i
Encoding: 105 105 76
Width: 1060
GlyphClass: 1
Flags: W
LayerCount: 2
Fore
SplineSet
313 1406 m 1,0,-1
 548 1406 l 1,1,-1
 548 1181 l 1,2,-1
 313 1181 l 1,3,-1
 313 1406 l 1,0,-1
417 1013 m 2,4,-1
 533 1013 l 1,5,-1
 534 210 l 2,6,7
 537 153 537 153 567 138.5 c 128,-1,8
 597 124 597 124 675 124 c 128,-1,9
 753 124 753 124 833 142.5 c 128,-1,10
 913 161 913 161 961 197 c 1,11,-1
 1029 83 l 1,12,13
 968 33 968 33 872 7.5 c 128,-1,14
 776 -18 776 -18 676 -18 c 0,15,16
 541 -18 541 -18 471 20 c 0,17,18
 378 71 378 71 378 206 c 2,19,-1
 378 857 l 1,20,21
 241 857 241 857 120 829 c 1,22,-1
 91 971 l 1,23,24
 272 1013 272 1013 417 1013 c 2,4,-1
EndSplineSet
EndChar

StartChar: j
Encoding: 106 106 77
Width: 1060
GlyphClass: 1
Flags: W
LayerCount: 2
Fore
SplineSet
560 1404 m 1,0,-1
 794 1401 l 1,1,-1
 794 1176 l 1,2,-1
 560 1179 l 1,3,-1
 560 1404 l 1,0,-1
627 -114 m 2,4,-1
 626 864 l 1,5,-1
 610 864 l 2,6,7
 494 864 494 864 370 835 c 1,8,-1
 342 977 l 1,9,10
 523 1019 523 1019 666 1019 c 2,11,-1
 783 1019 l 1,12,-1
 783 -118 l 2,13,14
 783 -164 783 -164 775 -202 c 128,-1,15
 767 -240 767 -240 746 -275 c 128,-1,16
 725 -310 725 -310 692 -334 c 128,-1,17
 659 -358 659 -358 606 -372.5 c 128,-1,18
 553 -387 553 -387 484 -387 c 0,19,20
 430 -387 430 -387 387 -380 c 128,-1,21
 344 -373 344 -373 290.5 -351 c 128,-1,22
 237 -329 237 -329 186.5 -281 c 128,-1,23
 136 -233 136 -233 91 -160 c 1,24,-1
 217 -62 l 1,25,26
 252 -120 252 -120 287 -156.5 c 128,-1,27
 322 -193 322 -193 355 -208 c 128,-1,28
 388 -223 388 -223 410.5 -227 c 128,-1,29
 433 -231 433 -231 463 -231 c 2,30,-1
 480 -231 l 2,31,32
 519 -231 519 -231 549.5 -218 c 128,-1,33
 580 -205 580 -205 595.5 -185 c 128,-1,34
 611 -165 611 -165 618.5 -147 c 128,-1,35
 626 -129 626 -129 627 -114 c 2,4,-1
EndSplineSet
EndChar

StartChar: k
Encoding: 107 107 78
Width: 1060
GlyphClass: 1
Flags: W
LayerCount: 2
Fore
SplineSet
586 566 m 0,0,1
 658 566 658 566 700 620 c 128,-1,2
 742 674 742 674 742 745 c 0,3,4
 742 774 742 774 735 795 c 0,5,6
 726 825 726 825 699.5 848.5 c 128,-1,7
 673 872 673 872 630 872 c 0,8,9
 590 872 590 872 545 850 c 0,10,11
 404 783 404 783 293 708 c 1,12,-1
 293 618 l 1,13,14
 371 606 371 606 491 579 c 0,15,16
 551 566 551 566 586 566 c 0,0,1
293 880 m 1,17,18
 367 930 367 930 459 973 c 128,-1,19
 551 1016 551 1016 621 1016 c 0,20,21
 725 1016 725 1016 804.5 959 c 128,-1,22
 884 902 884 902 894 814 c 0,23,24
 899 776 899 776 899 732 c 0,25,26
 899 681 899 681 891 639 c 0,27,28
 885 603 885 603 841.5 544.5 c 128,-1,29
 798 486 798 486 730 454 c 1,30,31
 773 422 773 422 797.5 373 c 128,-1,32
 822 324 822 324 841 264 c 128,-1,33
 860 204 860 204 879 173 c 0,34,35
 905 130 905 130 962 89 c 1,36,-1
 878 -19 l 1,37,38
 844 -3 844 -3 816 22.5 c 128,-1,39
 788 48 788 48 771.5 68 c 128,-1,40
 755 88 755 88 737.5 124.5 c 128,-1,41
 720 161 720 161 715 174.5 c 128,-1,42
 710 188 710 188 697 227 c 0,43,44
 694 234 694 234 693 238 c 0,45,46
 675 289 675 289 627.5 332.5 c 128,-1,47
 580 376 580 376 520 403 c 128,-1,48
 460 430 460 430 402.5 446.5 c 128,-1,49
 345 463 345 463 294 469 c 1,50,51
 292 279 292 279 292 129 c 0,52,53
 292 102 292 102 292.5 58 c 128,-1,54
 293 14 293 14 293 0 c 1,55,-1
 136 0 l 1,56,-1
 136 1228 l 2,57,58
 136 1310 136 1310 113 1383 c 1,59,-1
 266 1427 l 1,60,61
 293 1358 293 1358 293 1293 c 2,62,-1
 293 880 l 1,17,18
EndSplineSet
Substitution2: "'ss01' Style Set 1 lookup 0 subtable" k.noloop
EndChar

StartChar: l
Encoding: 108 108 79
Width: 1060
GlyphClass: 1
Flags: W
LayerCount: 2
Fore
SplineSet
415 1423 m 2,0,-1
 531 1423 l 1,1,2
 531 1423 531 1423 534 212 c 0,3,4
 537 155 537 155 567 140.5 c 128,-1,5
 597 126 597 126 675 126 c 128,-1,6
 753 126 753 126 833 144.5 c 128,-1,7
 913 163 913 163 961 199 c 1,8,-1
 1029 85 l 1,9,10
 968 35 968 35 872 9.5 c 128,-1,11
 776 -16 776 -16 676 -16 c 0,12,13
 541 -16 541 -16 471 22 c 0,14,15
 378 73 378 73 378 208 c 2,16,-1
 375 1268 l 1,17,18
 368 1268 368 1268 343 1268.5 c 128,-1,19
 318 1269 318 1269 301 1269 c 0,20,21
 185 1269 185 1269 111 1252 c 1,22,-1
 83 1395 l 1,23,24
 204 1423 204 1423 415 1423 c 2,0,-1
EndSplineSet
EndChar

StartChar: m
Encoding: 109 109 80
Width: 1060
GlyphClass: 1
Flags: W
LayerCount: 2
Fore
SplineSet
765 1026 m 0,0,1
 816 1026 816 1026 852 995.5 c 128,-1,2
 888 965 888 965 905 916.5 c 128,-1,3
 922 868 922 868 928.5 825 c 128,-1,4
 935 782 935 782 935 739 c 2,5,-1
 935 216 l 2,6,7
 935 181 935 181 963 153.5 c 128,-1,8
 991 126 991 126 1027 112 c 1,9,-1
 966 -21 l 1,10,11
 937 -15 937 -15 909 -1 c 128,-1,12
 881 13 881 13 854.5 37 c 128,-1,13
 828 61 828 61 811.5 101 c 128,-1,14
 795 141 795 141 795 191 c 2,15,-1
 795 193 l 1,16,-1
 795 760 l 1,17,-1
 795 773 l 2,18,19
 795 873 795 873 731 873 c 0,20,21
 652 873 652 873 569 692 c 1,22,-1
 569 0 l 1,23,-1
 428 0 l 1,24,-1
 428 806 l 2,25,26
 428 825 428 825 426 837 c 128,-1,27
 424 849 424 849 412.5 861 c 128,-1,28
 401 873 401 873 380 873 c 0,29,30
 339 873 339 873 291.5 829 c 128,-1,31
 244 785 244 785 201 691 c 1,32,-1
 201 0 l 1,33,-1
 60 0 l 1,34,-1
 57 815 l 2,35,36
 57 921 57 921 27 1007 c 1,37,-1
 177 1047 l 1,38,39
 188 1025 188 1025 197 970 c 128,-1,40
 206 915 206 915 208 877 c 1,41,42
 244 939 244 939 302.5 982.5 c 128,-1,43
 361 1026 361 1026 414 1026 c 0,44,45
 483 1026 483 1026 525.5 980 c 128,-1,46
 568 934 568 934 568 877 c 1,47,48
 649 1026 649 1026 765 1026 c 0,0,1
EndSplineSet
EndChar

StartChar: n
Encoding: 110 110 81
Width: 1060
GlyphClass: 1
Flags: W
LayerCount: 2
Fore
SplineSet
270 927 m 1,0,1
 367 978 367 978 442 1000 c 128,-1,2
 517 1022 517 1022 598 1022 c 0,3,4
 645 1022 645 1022 696 1007 c 128,-1,5
 747 992 747 992 792.5 965 c 128,-1,6
 838 938 838 938 867.5 893.5 c 128,-1,7
 897 849 897 849 897 796 c 2,8,-1
 897 211 l 2,9,10
 897 189 897 189 903.5 172 c 128,-1,11
 910 155 910 155 927 141 c 128,-1,12
 944 127 944 127 954.5 120 c 128,-1,13
 965 113 965 113 992 99 c 0,14,15
 995 97 995 97 996 96.5 c 128,-1,16
 997 96 997 96 999 95 c 128,-1,17
 1001 94 1001 94 1003 93 c 1,18,-1
 919 -19 l 1,19,20
 878 1 878 1 852.5 17 c 128,-1,21
 827 33 827 33 797.5 59.5 c 128,-1,22
 768 86 768 86 753.5 122 c 128,-1,23
 739 158 739 158 739 204 c 2,24,-1
 739 765 l 2,25,26
 739 816 739 816 686.5 844 c 128,-1,27
 634 872 634 872 576 872 c 0,28,29
 531 872 531 872 462 845.5 c 128,-1,30
 393 819 393 819 270 760 c 1,31,-1
 270 0 l 1,32,-1
 112 -1 l 1,33,-1
 112 705 l 2,34,35
 112 792 112 792 108.5 843.5 c 128,-1,36
 105 895 105 895 100 920 c 128,-1,37
 95 945 95 945 80 1003 c 1,38,-1
 240 1040 l 1,39,40
 259 994 259 994 270 927 c 1,0,1
EndSplineSet
EndChar

StartChar: o
Encoding: 111 111 82
Width: 1060
GlyphClass: 1
Flags: W
LayerCount: 2
Fore
SplineSet
654 215 m 0,0,1
 743 299 743 299 743 530 c 2,2,3
 743 530 743 530 743 548 c 0,4,5
 741 698 741 698 683 788 c 128,-1,6
 625 878 625 878 500 878 c 0,7,8
 424 878 424 878 370.5 849 c 128,-1,9
 317 820 317 820 287 764 c 128,-1,10
 257 708 257 708 243.5 636.5 c 128,-1,11
 230 565 230 565 230 469 c 0,12,13
 230 321 230 321 295 238.5 c 128,-1,14
 360 156 360 156 484 156 c 0,15,16
 541 157 541 157 578.5 170 c 128,-1,17
 616 183 616 183 654 215 c 0,0,1
482 1 m 2,18,19
 282 2 282 2 177 125.5 c 128,-1,20
 72 249 72 249 72 464 c 0,21,22
 72 555 72 555 84.5 635.5 c 128,-1,23
 97 716 97 716 126.5 789.5 c 128,-1,24
 156 863 156 863 200.5 916 c 128,-1,25
 245 969 245 969 313 1000.5 c 128,-1,26
 381 1032 381 1032 466 1032 c 0,27,28
 610 1032 610 1032 699.5 982.5 c 128,-1,29
 789 933 789 933 843 831 c 0,30,31
 902 717 902 717 902 543 c 0,32,33
 902 453 902 453 889.5 376.5 c 128,-1,34
 877 300 877 300 847 229.5 c 128,-1,35
 817 159 817 159 770.5 109.5 c 128,-1,36
 724 60 724 60 651 30.5 c 128,-1,37
 578 1 578 1 484 1 c 2,38,-1
 482 1 l 2,18,19
EndSplineSet
EndChar

StartChar: p
Encoding: 112 112 83
Width: 1060
GlyphClass: 1
Flags: W
LayerCount: 2
Fore
SplineSet
763 527 m 0,0,1
 763 690 763 690 712 774 c 128,-1,2
 661 858 661 858 539 858 c 0,3,4
 471 858 471 858 426 840.5 c 128,-1,5
 381 823 381 823 351.5 791.5 c 128,-1,6
 322 760 322 760 283 698 c 1,7,-1
 283 262 l 1,8,9
 346 201 346 201 374 182 c 0,10,11
 426 148 426 148 483 148 c 0,12,13
 763 148 763 148 763 527 c 0,0,1
127 739 m 1,14,-1
 127 763 l 2,15,16
 127 873 127 873 108 998 c 1,17,-1
 272 1018 l 1,18,19
 282 952 282 952 283 922 c 1,20,21
 385 1013 385 1013 538 1013 c 0,22,23
 734 1013 734 1013 827 886.5 c 128,-1,24
 920 760 920 760 920 546 c 0,25,26
 920 -7 920 -7 469 -7 c 0,27,28
 451 -7 451 -7 434 -5.5 c 128,-1,29
 417 -4 417 -4 405 -2 c 128,-1,30
 393 0 393 0 378.5 5 c 128,-1,31
 364 10 364 10 357 12.5 c 128,-1,32
 350 15 350 15 336.5 22.5 c 128,-1,33
 323 30 323 30 318.5 32.5 c 128,-1,34
 314 35 314 35 300 44.5 c 128,-1,35
 286 54 286 54 283 56 c 1,36,-1
 283 -151 l 2,37,38
 283 -242 283 -242 299 -397 c 1,39,-1
 140 -406 l 1,40,41
 126 -292 126 -292 126 -146 c 2,42,-1
 127 739 l 1,14,-1
EndSplineSet
EndChar

StartChar: q
Encoding: 113 113 84
Width: 1060
GlyphClass: 1
Flags: W
LayerCount: 2
Fore
SplineSet
270 527 m 0,0,1
 270 148 270 148 550 148 c 0,2,3
 576 148 576 148 602.5 156.5 c 128,-1,4
 629 165 629 165 643.5 171.5 c 128,-1,5
 658 178 658 178 685.5 201.5 c 128,-1,6
 713 225 713 225 717.5 229 c 128,-1,7
 722 233 722 233 751 262 c 1,8,-1
 751 698 l 1,9,10
 712 760 712 760 682.5 791.5 c 128,-1,11
 653 823 653 823 608 840.5 c 128,-1,12
 563 858 563 858 495 858 c 0,13,14
 373 858 373 858 321.5 773.5 c 128,-1,15
 270 689 270 689 270 527 c 0,0,1
908 763 m 2,16,-1
 908 -151 l 2,17,18
 908 -251 908 -251 923 -397 c 1,19,-1
 764 -406 l 1,20,21
 751 -301 751 -301 751 -146 c 2,22,-1
 751 56 l 1,23,24
 748 54 748 54 735.5 46 c 128,-1,25
 723 38 723 38 719 35.5 c 128,-1,26
 715 33 715 33 703.5 26 c 128,-1,27
 692 19 692 19 685.5 16.5 c 128,-1,28
 679 14 679 14 667.5 9 c 128,-1,29
 656 4 656 4 646 2 c 128,-1,30
 636 0 636 0 622.5 -2.5 c 128,-1,31
 609 -5 609 -5 594.5 -6 c 128,-1,32
 580 -7 580 -7 564 -7 c 0,33,34
 114 -7 114 -7 114 546 c 0,35,36
 114 649 114 649 135.5 732.5 c 128,-1,37
 157 816 157 816 201 879.5 c 128,-1,38
 245 943 245 943 320 978 c 128,-1,39
 395 1013 395 1013 495 1013 c 0,40,41
 649 1013 649 1013 751 922 c 1,42,43
 752 952 752 952 762 1018 c 1,44,-1
 926 998 l 1,45,46
 908 879 908 879 908 763 c 2,16,-1
EndSplineSet
EndChar

StartChar: r
Encoding: 114 114 85
Width: 1060
GlyphClass: 1
Flags: W
LayerCount: 2
Fore
SplineSet
370 875 m 1,0,1
 438 958 438 958 520 991.5 c 128,-1,2
 602 1025 602 1025 722 1025 c 0,3,4
 841 1025 841 1025 887.5 950.5 c 128,-1,5
 934 876 934 876 934 729 c 2,6,-1
 934 723 l 1,7,-1
 778 723 l 1,8,9
 778 733 778 733 777 755.5 c 128,-1,10
 776 778 776 778 775.5 787 c 128,-1,11
 775 796 775 796 772.5 812.5 c 128,-1,12
 770 829 770 829 764.5 835.5 c 128,-1,13
 759 842 759 842 750 850.5 c 128,-1,14
 741 859 741 859 727 862 c 128,-1,15
 713 865 713 865 694 865 c 0,16,17
 651 865 651 865 613 855 c 128,-1,18
 575 845 575 845 530.5 819.5 c 128,-1,19
 486 794 486 794 444 740 c 128,-1,20
 402 686 402 686 366 606 c 1,21,-1
 366 0 l 1,22,-1
 210 1 l 1,23,-1
 210 764 l 2,24,25
 210 773 210 773 209 781.5 c 128,-1,26
 208 790 208 790 204 798.5 c 128,-1,27
 200 807 200 807 197.5 813.5 c 128,-1,28
 195 820 195 820 187.5 828.5 c 128,-1,29
 180 837 180 837 176.5 842 c 128,-1,30
 173 847 173 847 162 857 c 128,-1,31
 151 867 151 867 146 871.5 c 128,-1,32
 141 876 141 876 127.5 888 c 128,-1,33
 114 900 114 900 108 905 c 1,34,-1
 212 1046 l 1,35,36
 219 1040 219 1040 241.5 1022.5 c 128,-1,37
 264 1005 264 1005 273 998 c 128,-1,38
 282 991 282 991 299.5 974.5 c 128,-1,39
 317 958 317 958 327 945.5 c 128,-1,40
 337 933 337 933 349 914 c 128,-1,41
 361 895 361 895 370 875 c 1,0,1
EndSplineSet
EndChar

StartChar: s
Encoding: 115 115 86
Width: 1060
GlyphClass: 1
Flags: W
LayerCount: 2
Fore
SplineSet
268 569 m 0,0,1
 152 631 152 631 152 783 c 0,2,3
 153 905 153 905 250 967 c 128,-1,4
 347 1029 347 1029 490 1029 c 0,5,6
 595 1029 595 1029 704 993.5 c 128,-1,7
 813 958 813 958 870 888 c 1,8,-1
 757 777 l 1,9,10
 718 822 718 822 644.5 851.5 c 128,-1,11
 571 881 571 881 504 881 c 0,12,13
 419 881 419 881 364 857 c 128,-1,14
 309 833 309 833 309 787 c 0,15,16
 309 752 309 752 323.5 732 c 128,-1,17
 338 712 338 712 369 698 c 0,18,19
 412 680 412 680 469 659.5 c 128,-1,20
 526 639 526 639 566.5 625 c 128,-1,21
 607 611 607 611 654.5 591.5 c 128,-1,22
 702 572 702 572 734.5 553.5 c 128,-1,23
 767 535 767 535 800 508 c 128,-1,24
 833 481 833 481 852.5 450 c 128,-1,25
 872 419 872 419 884 376 c 128,-1,26
 896 333 896 333 896 281 c 0,27,28
 896 168 896 168 831 96 c 128,-1,29
 766 24 766 24 675 0 c 0,30,31
 589 -20 589 -20 502 -20 c 0,32,33
 314 -20 314 -20 216 72.5 c 128,-1,34
 118 165 118 165 118 330 c 1,35,-1
 275 329 l 1,36,37
 275 123 275 123 499 123 c 0,38,39
 599 123 599 123 670 165.5 c 128,-1,40
 741 208 741 208 741 286 c 0,41,42
 741 330 741 330 721 357.5 c 128,-1,43
 701 385 701 385 655 420 c 0,44,45
 614 450 614 450 464.5 497 c 128,-1,46
 315 544 315 544 268 569 c 0,0,1
EndSplineSet
EndChar

StartChar: t
Encoding: 116 116 87
Width: 1060
GlyphClass: 1
Flags: W
LayerCount: 2
Fore
SplineSet
359 437 m 2,0,-1
 359 397 l 2,1,2
 359 167 359 167 506 152 c 0,3,4
 533 149 533 149 614 149 c 0,5,6
 725 149 725 149 768 173 c 0,7,8
 822 202 822 202 850 277 c 1,9,-1
 976 221 l 2,10,11
 976 220 976 220 972.5 209.5 c 128,-1,12
 969 199 969 199 966.5 193.5 c 128,-1,13
 964 188 964 188 959 175.5 c 128,-1,14
 954 163 954 163 948.5 154 c 128,-1,15
 943 145 943 145 934.5 131.5 c 128,-1,16
 926 118 926 118 916 107 c 128,-1,17
 906 96 906 96 893.5 83.5 c 128,-1,18
 881 71 881 71 865 59 c 128,-1,19
 849 47 849 47 831 37 c 0,20,21
 758 -6 758 -6 616 -6 c 0,22,23
 555 -6 555 -6 512.5 -3 c 128,-1,24
 470 0 470 0 425 10 c 128,-1,25
 380 20 380 20 348.5 38 c 128,-1,26
 317 56 317 56 288.5 86.5 c 128,-1,27
 260 117 260 117 239 161 c 0,28,29
 200 241 200 241 200 394 c 2,30,-1
 200 437 l 2,31,32
 202 491 202 491 205.5 632 c 128,-1,33
 209 773 209 773 212 865 c 1,34,-1
 198 865 l 2,35,36
 157 865 157 865 116 854 c 1,37,-1
 96 1000 l 1,38,39
 128 1012 128 1012 198 1012 c 2,40,-1
 213 1012 l 1,41,42
 213 1047 213 1047 213.5 1129 c 128,-1,43
 214 1211 214 1211 214 1246 c 1,44,-1
 372 1245 l 1,45,46
 372 1153 372 1153 370 1017 c 1,47,-1
 492 1017 l 1,48,-1
 791 1019 l 1,49,-1
 809 1019 l 1,50,-1
 809 872 l 1,51,-1
 492 872 l 2,52,53
 469 872 469 872 432.5 870.5 c 128,-1,54
 396 869 396 869 373 869 c 1,55,56
 368 751 368 751 364 608.5 c 128,-1,57
 360 466 360 466 359 437 c 2,0,-1
EndSplineSet
EndChar

StartChar: u
Encoding: 117 117 88
Width: 1060
GlyphClass: 1
Flags: W
LayerCount: 2
Fore
SplineSet
906 -10 m 1,0,1
 870 16 870 16 849.5 33.5 c 128,-1,2
 829 51 829 51 806 84.5 c 128,-1,3
 783 118 783 118 773 158 c 1,4,5
 702 85 702 85 624 44.5 c 128,-1,6
 546 4 546 4 442 2 c 2,7,-1
 433 2 l 2,8,9
 287 2 287 2 226 44 c 0,10,11
 114 121 114 121 114 214 c 0,12,13
 113 274 113 274 113 387 c 128,-1,14
 113 500 113 500 112.5 583 c 128,-1,15
 112 666 112 666 110 757.5 c 128,-1,16
 108 849 108 849 103.5 909.5 c 128,-1,17
 99 970 99 970 91 994 c 1,18,-1
 251 1021 l 1,19,20
 257 995 257 995 261 945.5 c 128,-1,21
 265 896 265 896 266.5 810.5 c 128,-1,22
 268 725 268 725 268.5 658 c 128,-1,23
 269 591 269 591 269.5 457.5 c 128,-1,24
 270 324 270 324 270 250 c 1,25,26
 278 205 278 205 320 174 c 0,27,28
 345 156 345 156 426 156 c 0,29,30
 523 160 523 160 585 198 c 0,31,32
 588 200 588 200 609 212 c 128,-1,33
 630 224 630 224 638 229 c 128,-1,34
 646 234 646 234 664.5 248 c 128,-1,35
 683 262 683 262 693.5 273.5 c 128,-1,36
 704 285 704 285 717 304 c 128,-1,37
 730 323 730 323 739 344 c 1,38,-1
 739 1020 l 1,39,-1
 897 1020 l 1,40,-1
 897 239 l 2,41,42
 899 178 899 178 988 107 c 1,43,-1
 906 -10 l 1,0,1
EndSplineSet
EndChar

StartChar: v
Encoding: 118 118 89
Width: 1060
GlyphClass: 1
Flags: W
LayerCount: 2
Fore
SplineSet
153 1048 m 1,0,1
 202 996 202 996 225.5 954 c 128,-1,2
 249 912 249 912 271 849 c 0,3,4
 274 841 274 841 342 660 c 128,-1,5
 410 479 410 479 453 351 c 128,-1,6
 496 223 496 223 501 177 c 1,7,8
 597 288 597 288 674 477 c 128,-1,9
 751 666 751 666 755 817 c 0,10,11
 756 845 756 845 756 914 c 0,12,13
 756 993 756 993 754 1011 c 1,14,-1
 906 1015 l 1,15,16
 911 988 911 988 911 821 c 0,17,18
 910 646 910 646 820 431 c 128,-1,19
 730 216 730 216 614 71 c 0,20,21
 575 23 575 23 519.5 10 c 128,-1,22
 464 -3 464 -3 367 -3 c 1,23,24
 367 88 367 88 272 373 c 128,-1,25
 177 658 177 658 104 839 c 0,26,27
 98 855 98 855 70.5 894.5 c 128,-1,28
 43 934 43 934 24 952 c 1,29,-1
 153 1048 l 1,0,1
EndSplineSet
EndChar

StartChar: w
Encoding: 119 119 90
Width: 1060
GlyphClass: 1
Flags: W
LayerCount: 2
Fore
SplineSet
6 976 m 1,0,-1
 154 1052 l 1,1,2
 212 951 212 951 242 795 c 0,3,4
 258 710 258 710 268.5 610.5 c 128,-1,5
 279 511 279 511 282 454 c 128,-1,6
 285 397 285 397 288 285 c 128,-1,7
 291 173 291 173 292 149 c 1,8,9
 380 149 380 149 426.5 257 c 128,-1,10
 473 365 473 365 473 561 c 2,11,-1
 473 824 l 1,12,-1
 613 824 l 1,13,-1
 613 520 l 2,14,15
 613 487 613 487 615 456 c 128,-1,16
 617 425 617 425 622 393.5 c 128,-1,17
 627 362 627 362 631 340.5 c 128,-1,18
 635 319 635 319 644 285.5 c 128,-1,19
 653 252 653 252 656.5 239 c 128,-1,20
 660 226 660 226 671.5 190 c 128,-1,21
 683 154 683 154 685 147 c 1,22,23
 757 147 757 147 803 281 c 128,-1,24
 849 415 849 415 849 681 c 0,25,26
 849 880 849 880 825 1020 c 1,27,-1
 981 1020 l 1,28,29
 989 945 989 945 989 710 c 0,30,31
 989 351 989 351 900 175.5 c 128,-1,32
 811 0 811 0 648 0 c 2,33,-1
 628 0 l 1,34,-1
 594 0 l 1,35,36
 590 16 590 16 567.5 94.5 c 128,-1,37
 545 173 545 173 537 209 c 1,38,39
 441 0 441 0 224 -3 c 2,40,-1
 218 -3 l 1,41,-1
 212 -3 l 2,42,43
 178 -2 178 -2 152 9 c 1,44,45
 152 15 152 15 148.5 106.5 c 128,-1,46
 145 198 145 198 141 273.5 c 128,-1,47
 137 349 137 349 129.5 452 c 128,-1,48
 122 555 122 555 110 643.5 c 128,-1,49
 98 732 98 732 83 790 c 0,50,51
 72 831 72 831 48 888 c 128,-1,52
 24 945 24 945 6 976 c 1,0,-1
EndSplineSet
EndChar

StartChar: x
Encoding: 120 120 91
Width: 1060
GlyphClass: 1
Flags: W
LayerCount: 2
Fore
SplineSet
860 863 m 0,0,1
 818 792 818 792 743 677.5 c 128,-1,2
 668 563 668 563 612 488 c 1,3,4
 643 447 643 447 699 365.5 c 128,-1,5
 755 284 755 284 795 227.5 c 128,-1,6
 835 171 835 171 844 165 c 0,7,8
 856 156 856 156 898 156 c 0,9,10
 918 156 918 156 950 162 c 1,11,-1
 950 9 l 1,12,13
 910 3 910 3 888 3 c 0,14,15
 825 3 825 3 768 43 c 0,16,17
 743 59 743 59 707 101 c 128,-1,18
 671 143 671 143 644 181.5 c 128,-1,19
 617 220 617 220 572.5 286 c 128,-1,20
 528 352 528 352 508 379 c 1,21,22
 402 241 402 241 186 -18 c 1,23,-1
 65 84 l 1,24,25
 70 91 70 91 120.5 154.5 c 128,-1,26
 171 218 171 218 255.5 322 c 128,-1,27
 340 426 340 426 410 511 c 1,28,29
 248 738 248 738 80 960 c 1,30,-1
 210 1061 l 1,31,32
 284 959 284 959 400.5 792.5 c 128,-1,33
 517 626 517 626 518 624 c 1,34,35
 594 716 594 716 716 930 c 0,36,37
 738 969 738 969 750 1019 c 1,38,-1
 908 1020 l 1,39,40
 896 920 896 920 860 863 c 0,0,1
EndSplineSet
EndChar

StartChar: y
Encoding: 121 121 92
Width: 1060
GlyphClass: 1
Flags: W
LayerCount: 2
Fore
SplineSet
336 -223 m 0,0,1
 353 -223 353 -223 369 -217 c 128,-1,2
 385 -211 385 -211 399.5 -198 c 128,-1,3
 414 -185 414 -185 426 -172 c 128,-1,4
 438 -159 438 -159 450 -136 c 128,-1,5
 462 -113 462 -113 470.5 -97.5 c 128,-1,6
 479 -82 479 -82 490 -54 c 128,-1,7
 501 -26 501 -26 506 -12 c 128,-1,8
 511 2 511 2 521 31 c 128,-1,9
 531 60 531 60 534 68 c 1,10,11
 359 679 359 679 183 837 c 0,12,13
 149 868 149 868 73 868 c 1,14,-1
 73 1021 l 1,15,16
 128 1021 128 1021 184 1013 c 0,17,18
 384 983 384 983 626 287 c 1,19,20
 685 460 685 460 726.5 659 c 128,-1,21
 768 858 768 858 774 1020 c 1,22,-1
 932 1020 l 1,23,24
 932 931 932 931 918 852 c 0,25,26
 823 336 823 336 620 -142 c 0,27,28
 576 -254 576 -254 510.5 -315 c 128,-1,29
 445 -376 445 -376 340 -376 c 0,30,31
 56 -376 56 -376 56 0 c 1,32,-1
 212 0 l 1,33,34
 212 -127 212 -127 242 -175 c 128,-1,35
 272 -223 272 -223 336 -223 c 0,0,1
EndSplineSet
EndChar

StartChar: z
Encoding: 122 122 93
Width: 1060
GlyphClass: 1
Flags: W
LayerCount: 2
Fore
SplineSet
96 874 m 1,0,-1
 123 1025 l 1,1,2
 169 1020 169 1020 401 1020 c 2,3,-1
 879 1020 l 1,4,-1
 903 905 l 2,5,6
 902 904 902 904 857 853 c 128,-1,7
 812 802 812 802 727.5 709.5 c 128,-1,8
 643 617 643 617 552 523 c 0,9,10
 470 440 470 440 430 397.5 c 128,-1,11
 390 355 390 355 335.5 286.5 c 128,-1,12
 281 218 281 218 246 156 c 1,13,-1
 784 155 l 2,14,15
 855 155 855 155 953 123 c 1,16,-1
 913 -22 l 1,17,18
 907 -20 907 -20 890 -15 c 128,-1,19
 873 -10 873 -10 867 -8.5 c 128,-1,20
 861 -7 861 -7 847 -4.5 c 128,-1,21
 833 -2 833 -2 819 -1 c 128,-1,22
 805 0 805 0 786 0 c 2,23,-1
 71 0 l 1,24,-1
 71 20 l 2,25,26
 71 143 71 143 93 189 c 128,-1,27
 115 235 115 235 142.5 278 c 128,-1,28
 170 321 170 321 209.5 368.5 c 128,-1,29
 249 416 249 416 275.5 446 c 128,-1,30
 302 476 302 476 357.5 534.5 c 128,-1,31
 413 593 413 593 436 618 c 0,32,33
 565 759 565 759 674 861 c 1,34,-1
 643 861 l 2,35,36
 612 861 612 861 528 862 c 128,-1,37
 444 863 444 863 398 863 c 0,38,39
 166 863 166 863 96 874 c 1,0,-1
EndSplineSet
EndChar

StartChar: braceleft
Encoding: 123 123 94
Width: 1060
GlyphClass: 1
Flags: W
LayerCount: 2
Fore
SplineSet
275 530 m 1,0,-1
 275 690 l 1,1,2
 320 703 320 703 348.5 712 c 128,-1,3
 377 721 377 721 414 739.5 c 128,-1,4
 451 758 451 758 472 777.5 c 128,-1,5
 493 797 493 797 508.5 828.5 c 128,-1,6
 524 860 524 860 524 899 c 0,7,8
 524 943 524 943 503 1003 c 0,9,10
 502 1007 502 1007 496 1022.5 c 128,-1,11
 490 1038 490 1038 488 1043 c 128,-1,12
 486 1048 486 1048 481 1062.5 c 128,-1,13
 476 1077 476 1077 474 1084 c 128,-1,14
 472 1091 472 1091 467.5 1104.5 c 128,-1,15
 463 1118 463 1118 461.5 1126 c 128,-1,16
 460 1134 460 1134 457 1146.5 c 128,-1,17
 454 1159 454 1159 453 1168.5 c 128,-1,18
 452 1178 452 1178 451 1189.5 c 128,-1,19
 450 1201 450 1201 450 1211 c 0,20,21
 450 1293 450 1293 505 1358 c 0,22,23
 538 1397 538 1397 581.5 1422 c 128,-1,24
 625 1447 625 1447 679.5 1459.5 c 128,-1,25
 734 1472 734 1472 776 1476.5 c 128,-1,26
 818 1481 818 1481 880 1484 c 1,27,-1
 885 1326 l 1,28,29
 748 1319 748 1319 707 1308 c 0,30,31
 622 1278 622 1278 619 1202 c 0,32,33
 619 1153 619 1153 649.5 1052.5 c 128,-1,34
 680 952 680 952 680 893 c 0,35,36
 680 786 680 786 620 707.5 c 128,-1,37
 560 629 560 629 483 610 c 1,38,39
 560 591 560 591 620 512.5 c 128,-1,40
 680 434 680 434 680 327 c 0,41,42
 680 268 680 268 649.5 167.5 c 128,-1,43
 619 67 619 67 619 18 c 0,44,45
 619 -14 619 -14 632 -36 c 128,-1,46
 645 -58 645 -58 664.5 -70 c 128,-1,47
 684 -82 684 -82 718 -89 c 128,-1,48
 752 -96 752 -96 782 -98.5 c 128,-1,49
 812 -101 812 -101 859 -103 c 0,50,51
 876 -104 876 -104 885 -104 c 1,52,-1
 880 -262 l 1,53,54
 816 -259 816 -259 775.5 -255 c 128,-1,55
 735 -251 735 -251 680 -239 c 128,-1,56
 625 -227 625 -227 581.5 -201.5 c 128,-1,57
 538 -176 538 -176 505 -138 c 0,58,59
 450 -73 450 -73 450 9 c 0,60,61
 450 21 450 21 451 32.5 c 128,-1,62
 452 44 452 44 454.5 57 c 128,-1,63
 457 70 457 70 458.5 79.5 c 128,-1,64
 460 89 460 89 464.5 104.5 c 128,-1,65
 469 120 469 120 471 126.5 c 128,-1,66
 473 133 473 133 479 150.5 c 128,-1,67
 485 168 485 168 486.5 172 c 128,-1,68
 488 176 488 176 495 195.5 c 128,-1,69
 502 215 502 215 503 217 c 0,70,71
 524 277 524 277 524 321 c 0,72,73
 524 360 524 360 508.5 391.5 c 128,-1,74
 493 423 493 423 472 442.5 c 128,-1,75
 451 462 451 462 414 480.5 c 128,-1,76
 377 499 377 499 348.5 508 c 128,-1,77
 320 517 320 517 275 530 c 1,0,-1
EndSplineSet
EndChar

StartChar: bar
Encoding: 124 124 95
Width: 1060
GlyphClass: 1
Flags: W
LayerCount: 2
Fore
SplineSet
390 152 m 0,0,1
 390 344 390 344 385.5 804.5 c 128,-1,2
 381 1265 381 1265 381 1399 c 2,3,-1
 381 1492 l 1,4,-1
 541 1492 l 1,5,-1
 541 1347 l 2,6,7
 541 1216 541 1216 547 807 c 128,-1,8
 553 398 553 398 553 224 c 2,9,-1
 553 74 l 2,10,11
 553 -77 553 -77 547 -198 c 1,12,-1
 386 -197 l 1,13,14
 391 -119 391 -119 391 -37 c 0,15,16
 391 -18 391 -18 390.5 43 c 128,-1,17
 390 104 390 104 390 152 c 0,0,1
EndSplineSet
Substitution2: "Single Substitution lookup 188 subtable" bar_bar.liga
Substitution2: "Single Substitution lookup 187 subtable" LIG
Substitution2: "Single Substitution lookup 178 subtable" LIG
Substitution2: "Single Substitution lookup 167 subtable" less_bar.liga
Substitution2: "Single Substitution lookup 123 subtable" LIG
Substitution2: "Single Substitution lookup 122 subtable" LIG
Substitution2: "Single Substitution lookup 111 subtable" LIG
Substitution2: "Single Substitution lookup 108 subtable" less_bar_bar.liga
Substitution2: "Single Substitution lookup 107 subtable" LIG
Substitution2: "Single Substitution lookup 14 subtable" LIG
Substitution2: "Single Substitution lookup 13 subtable" LIG
Substitution2: "Single Substitution lookup 12 subtable" LIG
Substitution2: "Single Substitution lookup 10 subtable" less_bar_bar_bar.liga
Substitution2: "Single Substitution lookup 9 subtable" LIG
Substitution2: "Single Substitution lookup 8 subtable" LIG
EndChar

StartChar: braceright
Encoding: 125 125 96
Width: 1060
GlyphClass: 1
Flags: W
LayerCount: 2
Fore
SplineSet
783 530 m 1,0,1
 738 517 738 517 709.5 508 c 128,-1,2
 681 499 681 499 644 480.5 c 128,-1,3
 607 462 607 462 586 442.5 c 128,-1,4
 565 423 565 423 549.5 391.5 c 128,-1,5
 534 360 534 360 534 321 c 0,6,7
 534 277 534 277 555 217 c 0,8,9
 556 213 556 213 562 197.5 c 128,-1,10
 568 182 568 182 570 177 c 128,-1,11
 572 172 572 172 577 157.5 c 128,-1,12
 582 143 582 143 584 136 c 128,-1,13
 586 129 586 129 590.5 115.5 c 128,-1,14
 595 102 595 102 596.5 94 c 128,-1,15
 598 86 598 86 601 73.5 c 128,-1,16
 604 61 604 61 605 51.5 c 128,-1,17
 606 42 606 42 607 30.5 c 128,-1,18
 608 19 608 19 608 9 c 0,19,20
 608 -73 608 -73 553 -138 c 0,21,22
 520 -176 520 -176 476.5 -201.5 c 128,-1,23
 433 -227 433 -227 378 -239 c 128,-1,24
 323 -251 323 -251 282.5 -255 c 128,-1,25
 242 -259 242 -259 178 -262 c 1,26,-1
 173 -104 l 1,27,28
 309 -97 309 -97 348 -88 c 0,29,30
 431 -67 431 -67 438 3 c 0,31,32
 439 10 439 10 439 18 c 0,33,34
 439 67 439 67 408.5 167.5 c 128,-1,35
 378 268 378 268 378 327 c 0,36,37
 378 434 378 434 438 512.5 c 128,-1,38
 498 591 498 591 575 610 c 1,39,40
 498 629 498 629 438 707.5 c 128,-1,41
 378 786 378 786 378 893 c 0,42,43
 378 952 378 952 408.5 1052.5 c 128,-1,44
 439 1153 439 1153 439 1202 c 0,45,46
 439 1229 439 1229 431.5 1249 c 128,-1,47
 424 1269 424 1269 404 1282 c 128,-1,48
 384 1295 384 1295 368 1303 c 128,-1,49
 352 1311 352 1311 315.5 1315.5 c 128,-1,50
 279 1320 279 1320 259.5 1321.5 c 128,-1,51
 240 1323 240 1323 193 1325 c 0,52,53
 180 1326 180 1326 173 1326 c 1,54,-1
 178 1484 l 1,55,56
 240 1481 240 1481 282 1476.5 c 128,-1,57
 324 1472 324 1472 378.5 1459.5 c 128,-1,58
 433 1447 433 1447 476.5 1422 c 128,-1,59
 520 1397 520 1397 553 1358 c 0,60,61
 608 1293 608 1293 608 1211 c 0,62,63
 608 1199 608 1199 607 1187.5 c 128,-1,64
 606 1176 606 1176 603.5 1163 c 128,-1,65
 601 1150 601 1150 599.5 1140.5 c 128,-1,66
 598 1131 598 1131 593.5 1115.5 c 128,-1,67
 589 1100 589 1100 587 1093.5 c 128,-1,68
 585 1087 585 1087 579 1069.5 c 128,-1,69
 573 1052 573 1052 571.5 1048 c 128,-1,70
 570 1044 570 1044 563 1024.5 c 128,-1,71
 556 1005 556 1005 555 1003 c 0,72,73
 534 943 534 943 534 899 c 0,74,75
 534 860 534 860 549.5 828.5 c 128,-1,76
 565 797 565 797 586 777.5 c 128,-1,77
 607 758 607 758 644 739.5 c 128,-1,78
 681 721 681 721 709.5 712 c 128,-1,79
 738 703 738 703 783 690 c 1,80,-1
 783 530 l 1,0,1
EndSplineSet
EndChar

StartChar: tilde
Encoding: 126 126 97
Width: 1060
GlyphClass: 1
Flags: W
LayerCount: 2
Fore
SplineSet
335 750 m 0,0,1
 388 750 388 750 446.5 722.5 c 128,-1,2
 505 695 505 695 546.5 662.5 c 128,-1,3
 588 630 588 630 633.5 602.5 c 128,-1,4
 679 575 679 575 708 575 c 0,5,6
 739 575 739 575 764.5 592 c 128,-1,7
 790 609 790 609 806.5 637.5 c 128,-1,8
 823 666 823 666 833 693 c 128,-1,9
 843 720 843 720 849 748 c 1,10,-1
 992 687 l 1,11,12
 923 422 923 422 704 422 c 0,13,14
 658 422 658 422 612.5 440 c 128,-1,15
 567 458 567 458 530.5 483.5 c 128,-1,16
 494 509 494 509 460 534.5 c 128,-1,17
 426 560 426 560 391 578 c 128,-1,18
 356 596 356 596 325 596 c 0,19,20
 284 596 284 596 240.5 557 c 128,-1,21
 197 518 197 518 160 451 c 1,22,-1
 31 542 l 1,23,24
 87 650 87 650 155 700 c 128,-1,25
 223 750 223 750 335 750 c 0,0,1
EndSplineSet
Substitution2: "Single Substitution lookup 160 subtable" LIG
Substitution2: "Single Substitution lookup 158 subtable" tilde_tilde.liga
Substitution2: "Single Substitution lookup 157 subtable" LIG
Substitution2: "Single Substitution lookup 155 subtable" less_tilde.liga
Substitution2: "Single Substitution lookup 103 subtable" LIG
Substitution2: "Single Substitution lookup 102 subtable" LIG
Substitution2: "Single Substitution lookup 100 subtable" less_tilde_tilde.liga
Substitution2: "Single Substitution lookup 99 subtable" LIG
Substitution2: "Single Substitution lookup 95 subtable" LIG
EndChar

StartChar: cent
Encoding: 162 162 100
Width: 1060
GlyphClass: 1
Flags: W
LayerCount: 2
Fore
SplineSet
506 284 m 2,0,1
 506 284 506 284 508 284 c 0,2,3
 574 284 574 284 627 304.5 c 128,-1,4
 680 325 680 325 701 354 c 2,5,-1
 712 370 l 1,6,-1
 849 287 l 1,7,-1
 837 271 l 1,8,9
 758 155 758 155 582 135 c 1,10,-1
 582 -9 l 1,11,-1
 422 -9 l 1,12,-1
 422 139 l 1,13,14
 339 155 339 155 281 194 c 0,15,16
 205 245 205 245 173.5 315.5 c 128,-1,17
 142 386 142 386 142 490 c 2,18,-1
 142 501 l 2,19,20
 142 661 142 661 221 753 c 0,21,22
 298 841 298 841 422 865 c 1,23,-1
 422 1033 l 1,24,-1
 584 1033 l 1,25,-1
 584 867 l 1,26,27
 747 843 747 843 801 695 c 1,28,-1
 643 638 l 1,29,-1
 639 661 l 2,30,31
 631 698 631 698 604.5 709 c 128,-1,32
 578 720 578 720 513 720 c 0,33,34
 403 720 403 720 351 657 c 0,35,36
 304 603 304 603 304 514 c 0,37,38
 304 412 304 412 351.5 347.5 c 128,-1,39
 399 283 399 283 489 283 c 0,40,41
 492 283 492 283 497.5 283.5 c 128,-1,42
 503 284 503 284 506 284 c 2,0,1
EndSplineSet
EndChar

StartChar: sterling
Encoding: 163 163 101
Width: 1060
GlyphClass: 1
Flags: W
LayerCount: 2
Fore
SplineSet
308 186 m 1,0,1
 292 200 292 200 269 230.5 c 128,-1,2
 246 261 246 261 234 269 c 1,3,4
 226 263 226 263 218.5 242.5 c 128,-1,5
 211 222 211 222 211 201 c 2,6,-1
 211 195 l 2,7,8
 214 139 214 139 242 139 c 128,-1,9
 270 139 270 139 308 186 c 1,0,1
861 691 m 1,10,11
 787 682 787 682 606 682 c 2,12,-1
 490 682 l 1,13,14
 525 501 525 501 526 385 c 0,15,16
 526 306 526 306 507 230 c 1,17,18
 588 177 588 177 634.5 157 c 128,-1,19
 681 137 681 137 743 137 c 0,20,21
 809 137 809 137 824 151 c 128,-1,22
 839 165 839 165 839 214 c 2,23,-1
 839 229 l 1,24,-1
 995 231 l 1,25,-1
 995 190 l 2,26,27
 992 89 992 89 934 37 c 128,-1,28
 876 -15 876 -15 769 -16 c 0,29,30
 615 -16 615 -16 442 95 c 1,31,32
 406 45 406 45 346.5 16 c 128,-1,33
 287 -13 287 -13 222 -13 c 0,34,35
 149 -13 149 -13 104.5 46 c 128,-1,36
 60 105 60 105 60 192 c 0,37,38
 60 352 60 352 163 412 c 0,39,40
 186 424 186 424 214 424 c 2,41,-1
 223 424 l 2,42,43
 250 424 250 424 280.5 407 c 128,-1,44
 311 390 311 390 327 374.5 c 128,-1,45
 343 359 343 359 367 334 c 1,46,47
 369 354 369 354 369 397 c 0,48,49
 368 498 368 498 331 685 c 1,50,51
 279 687 279 687 189 687 c 2,52,-1
 172 687 l 1,53,-1
 172 839 l 1,54,-1
 301 839 l 1,55,56
 277 970 277 970 277 1043 c 0,57,58
 277 1195 277 1195 355.5 1273 c 128,-1,59
 434 1351 434 1351 578 1351 c 0,60,61
 683 1351 683 1351 751.5 1285.5 c 128,-1,62
 820 1220 820 1220 845 1118 c 1,63,-1
 698 1075 l 1,64,65
 691 1102 691 1102 683.5 1120.5 c 128,-1,66
 676 1139 676 1139 663 1158 c 128,-1,67
 650 1177 650 1177 628.5 1187 c 128,-1,68
 607 1197 607 1197 578 1198 c 2,69,-1
 572 1198 l 2,70,71
 435 1198 435 1198 435 1051 c 0,72,73
 435 990 435 990 461 834 c 1,74,-1
 608 837 l 1,75,-1
 665 837 l 2,76,77
 796 837 796 837 861 844 c 1,78,-1
 861 691 l 1,10,11
EndSplineSet
EndChar

StartChar: currency
Encoding: 164 164 102
Width: 1060
GlyphClass: 1
Flags: W
LayerCount: 2
Fore
SplineSet
687 522 m 0,0,1
 687 618 687 618 649 677.5 c 128,-1,2
 611 737 611 737 547 743 c 1,3,-1
 532 741 l 1,4,5
 380 725 380 725 380 462 c 0,6,7
 380 357 380 357 415 306 c 128,-1,8
 450 255 450 255 529 255 c 0,9,10
 607 255 607 255 647 328 c 128,-1,11
 687 401 687 401 687 522 c 0,0,1
215 461 m 2,12,-1
 215 468 l 2,13,14
 215 587 215 587 260 697 c 1,15,-1
 119 849 l 1,16,-1
 238 955 l 1,17,-1
 355 828 l 1,18,19
 421 896 421 896 526 901 c 1,20,-1
 543 901 l 2,21,22
 604 901 604 901 647 885 c 128,-1,23
 690 869 690 869 729 833 c 1,24,-1
 841 946 l 1,25,-1
 954 847 l 1,26,-1
 818 697 l 1,27,28
 850 618 850 618 850 520 c 0,29,30
 847 378 847 378 799 284 c 1,31,-1
 944 129 l 1,32,-1
 826 23 l 1,33,-1
 701 159 l 1,34,35
 623 98 623 98 524 98 c 0,36,37
 420 99 420 99 339 167 c 1,38,-1
 214 43 l 1,39,-1
 107 142 l 1,40,-1
 240 299 l 1,41,42
 215 364 215 364 215 461 c 2,12,-1
EndSplineSet
EndChar

StartChar: yen
Encoding: 165 165 103
Width: 1060
GlyphClass: 1
Flags: W
LayerCount: 2
Fore
SplineSet
403 374 m 1,0,1
 403 374 403 374 291 374 c 0,2,3
 173 374 173 374 78 369 c 1,4,-1
 78 531 l 1,5,-1
 95 531 l 1,6,7
 310 538 310 538 406 538 c 1,8,-1
 406 613 l 1,9,10
 398 623 398 623 368 672 c 1,11,12
 294 673 294 673 80 686 c 1,13,-1
 80 750 l 2,14,15
 80 813 80 813 82 844 c 1,16,17
 171 839 171 839 273 835 c 1,18,19
 99 1145 99 1145 33 1283 c 1,20,-1
 173 1355 l 1,21,22
 201 1298 201 1298 295.5 1123.5 c 128,-1,23
 390 949 390 949 457 833 c 1,24,-1
 531 833 l 1,25,26
 607 952 607 952 704.5 1129 c 128,-1,27
 802 1306 802 1306 828 1368 c 1,28,-1
 967 1288 l 1,29,30
 855 1058 855 1058 742 875 c 1,31,-1
 718 839 l 1,32,33
 805 842 805 842 912 842 c 2,34,-1
 930 842 l 1,35,-1
 930 683 l 1,36,-1
 912 683 l 2,37,38
 866 683 866 683 613 675 c 1,39,40
 604 661 604 661 593.5 644 c 128,-1,41
 583 627 583 627 576 617 c 128,-1,42
 569 607 569 607 566 602 c 0,43,44
 566 559 566 559 565 537 c 1,45,46
 621 536 621 536 733 533.5 c 128,-1,47
 845 531 845 531 908 530 c 2,48,-1
 925 530 l 1,49,-1
 922 368 l 1,50,-1
 904 368 l 2,51,52
 878 368 878 368 754 370.5 c 128,-1,53
 630 373 630 373 562 374 c 1,54,55
 559 209 559 209 559 128 c 2,56,-1
 559 -6 l 1,57,-1
 399 -6 l 1,58,-1
 399 143 l 2,59,60
 399 190 399 190 403 374 c 1,0,1
EndSplineSet
EndChar

StartChar: brokenbar
Encoding: 166 166 104
Width: 1060
GlyphClass: 1
Flags: W
LayerCount: 2
Fore
SplineSet
553 528 m 1,0,1
 557 306 557 306 557 155 c 0,2,3
 557 -65 557 -65 550 -195 c 1,4,-1
 389 -194 l 1,5,6
 394 -102 394 -102 394 -29 c 2,7,-1
 394 118 l 2,8,9
 394 280 394 280 390 528 c 1,10,-1
 553 528 l 1,0,1
388 775 m 1,11,12
 381 1242 381 1242 381 1399 c 2,13,-1
 381 1492 l 1,14,-1
 541 1492 l 1,15,-1
 541 1366 l 2,16,17
 541 1337 541 1337 550 775 c 1,18,-1
 388 775 l 1,11,12
EndSplineSet
EndChar

StartChar: section
Encoding: 167 167 105
Width: 1060
GlyphClass: 1
Flags: W
LayerCount: 2
Fore
SplineSet
679 319 m 1,0,1
 713 333 713 333 724 349 c 128,-1,2
 735 365 735 365 735 392 c 2,3,-1
 735 409 l 1,4,5
 730 446 730 446 698 475 c 0,6,7
 638 530 638 530 497.5 621.5 c 128,-1,8
 357 713 357 713 344 722 c 1,9,10
 301 704 301 704 289.5 687.5 c 128,-1,11
 278 671 278 671 278 637 c 0,12,13
 278 605 278 605 319 569 c 0,14,15
 364 528 364 528 424.5 485.5 c 128,-1,16
 485 443 485 443 563.5 394 c 128,-1,17
 642 345 642 345 679 319 c 1,0,1
163 1040 m 0,18,19
 163 1118 163 1118 193 1182.5 c 128,-1,20
 223 1247 223 1247 271.5 1286.5 c 128,-1,21
 320 1326 320 1326 377.5 1347 c 128,-1,22
 435 1368 435 1368 494 1368 c 0,23,24
 629 1368 629 1368 716.5 1293 c 128,-1,25
 804 1218 804 1218 807 1081 c 1,26,-1
 656 1080 l 1,27,28
 654 1123 654 1123 644.5 1141.5 c 128,-1,29
 635 1160 635 1160 608 1183 c 0,30,31
 569 1213 569 1213 494 1213 c 0,32,33
 423 1211 423 1211 371 1168 c 128,-1,34
 319 1125 319 1125 319 1055 c 0,35,36
 319 1035 319 1035 320 1018.5 c 128,-1,37
 321 1002 321 1002 326.5 986.5 c 128,-1,38
 332 971 332 971 335 961.5 c 128,-1,39
 338 952 338 952 350 938.5 c 128,-1,40
 362 925 362 925 367 918.5 c 128,-1,41
 372 912 372 912 391 897.5 c 128,-1,42
 410 883 410 883 418 877.5 c 128,-1,43
 426 872 426 872 453 853.5 c 128,-1,44
 480 835 480 835 492 827 c 0,45,46
 510 815 510 815 583.5 767.5 c 128,-1,47
 657 720 657 720 709 680.5 c 128,-1,48
 761 641 761 641 806 594 c 0,49,50
 898 504 898 504 898 405 c 0,51,52
 898 330 898 330 874 283 c 128,-1,53
 850 236 850 236 799 198 c 1,54,55
 853 121 853 121 856 6 c 2,56,-1
 856 -3 l 2,57,58
 856 -82 856 -82 825 -145 c 128,-1,59
 794 -208 794 -208 743.5 -245.5 c 128,-1,60
 693 -283 693 -283 634.5 -302.5 c 128,-1,61
 576 -322 576 -322 516 -322 c 0,62,63
 379 -322 379 -322 290.5 -246.5 c 128,-1,64
 202 -171 202 -171 198 -31 c 1,65,-1
 353 -30 l 1,66,67
 360 -76 360 -76 369.5 -96.5 c 128,-1,68
 379 -117 379 -117 402 -135 c 0,69,70
 444 -167 444 -167 515 -167 c 0,71,72
 590 -165 590 -165 642.5 -123.5 c 128,-1,73
 695 -82 695 -82 695 -9 c 0,74,75
 695 22 695 22 687 55 c 0,76,77
 669 123 669 123 520 220 c 0,78,79
 507 228 507 228 462 256 c 128,-1,80
 417 284 417 284 394 299.5 c 128,-1,81
 371 315 371 315 333 341.5 c 128,-1,82
 295 368 295 368 263.5 394.5 c 128,-1,83
 232 421 232 421 203 450 c 0,84,85
 120 540 120 540 120 641 c 0,86,87
 120 713 120 713 146.5 757 c 128,-1,88
 173 801 173 801 226 841 c 1,89,90
 198 881 198 881 180.5 935.5 c 128,-1,91
 163 990 163 990 163 1040 c 0,18,19
EndSplineSet
EndChar

StartChar: dieresis
Encoding: 168 168 106
Width: 1060
GlyphClass: 1
Flags: W
LayerCount: 2
Fore
SplineSet
139 1315 m 1,0,-1
 374 1312 l 1,1,-1
 374 1087 l 1,2,-1
 139 1090 l 1,3,-1
 139 1315 l 1,0,-1
545 1312 m 1,4,-1
 780 1309 l 1,5,-1
 780 1084 l 1,6,-1
 545 1087 l 1,7,-1
 545 1312 l 1,4,-1
EndSplineSet
EndChar

StartChar: copyright
Encoding: 169 169 107
Width: 1060
GlyphClass: 1
Flags: W
LayerCount: 2
Fore
SplineSet
157 593 m 128,-1,1
 157 480 157 480 208.5 384.5 c 128,-1,2
 260 289 260 289 349 234 c 128,-1,3
 438 179 438 179 543 179 c 256,4,5
 648 179 648 179 735 234 c 128,-1,6
 822 289 822 289 871.5 384.5 c 128,-1,7
 921 480 921 480 921 593 c 128,-1,8
 921 706 921 706 871.5 801.5 c 128,-1,9
 822 897 822 897 735 952 c 128,-1,10
 648 1007 648 1007 543 1007 c 256,11,12
 438 1007 438 1007 349 952 c 128,-1,13
 260 897 260 897 208.5 801.5 c 128,-1,0
 157 706 157 706 157 593 c 128,-1,1
16 592.5 m 128,-1,15
 16 705 16 705 57.5 807.5 c 128,-1,16
 99 910 99 910 169 984.5 c 128,-1,17
 239 1059 239 1059 336 1102.5 c 128,-1,18
 433 1146 433 1146 539 1146 c 0,19,20
 624 1146 624 1146 704 1118 c 128,-1,21
 784 1090 784 1090 848.5 1039 c 128,-1,22
 913 988 913 988 961.5 920 c 128,-1,23
 1010 852 1010 852 1036 767 c 128,-1,24
 1062 682 1062 682 1062 592 c 128,-1,25
 1062 502 1062 502 1036 417.5 c 128,-1,26
 1010 333 1010 333 961.5 265 c 128,-1,27
 913 197 913 197 848.5 146 c 128,-1,28
 784 95 784 95 704.5 67 c 128,-1,29
 625 39 625 39 539 39 c 0,30,31
 433 39 433 39 336 83 c 128,-1,32
 239 127 239 127 169 201 c 128,-1,33
 99 275 99 275 57.5 377.5 c 128,-1,14
 16 480 16 480 16 592.5 c 128,-1,15
550 746 m 0,34,35
 493 746 493 746 461 699.5 c 128,-1,36
 429 653 429 653 429 581 c 0,37,38
 429 526 429 526 460 480.5 c 128,-1,39
 491 435 491 435 549 435 c 0,40,41
 594 435 594 435 621.5 449 c 128,-1,42
 649 463 649 463 669 504 c 1,43,-1
 792 436 l 1,44,45
 715 298 715 298 548 298 c 0,46,47
 500 298 500 298 456 313.5 c 128,-1,48
 412 329 412 329 373 360.5 c 128,-1,49
 334 392 334 392 311 448.5 c 128,-1,50
 288 505 288 505 288 579 c 0,51,52
 288 714 288 714 361 798.5 c 128,-1,53
 434 883 434 883 553 883 c 0,54,55
 615 883 615 883 681.5 849 c 128,-1,56
 748 815 748 815 778 752 c 1,57,-1
 657 680 l 1,58,59
 634 718 634 718 614 732 c 128,-1,60
 594 746 594 746 550 746 c 0,34,35
EndSplineSet
EndChar

StartChar: ordfeminine
Encoding: 170 170 108
Width: 1060
GlyphClass: 1
Flags: W
LayerCount: 2
Fore
SplineSet
142 675 m 1,0,-1
 898 675 l 1,1,-1
 898 534 l 1,2,-1
 142 534 l 1,3,-1
 142 675 l 1,0,-1
284 991 m 0,4,5
 284 947 284 947 310 921.5 c 128,-1,6
 336 896 336 896 383 896 c 0,7,8
 490 896 490 896 556.5 934 c 128,-1,9
 623 972 623 972 671 1056 c 1,10,11
 611 1121 611 1121 473 1121 c 0,12,13
 384 1121 384 1121 334 1082.5 c 128,-1,14
 284 1044 284 1044 284 991 c 0,4,5
158 1449 m 1,15,16
 296 1537 296 1537 483 1537 c 0,17,18
 590 1537 590 1537 665 1492 c 128,-1,19
 740 1447 740 1447 776 1368 c 128,-1,20
 812 1289 812 1289 812 1181 c 2,21,-1
 813 1078 l 2,22,23
 813 958 813 958 828 938 c 0,24,25
 857 898 857 898 905 869 c 1,26,-1
 822 750 l 1,27,28
 749 796 749 796 704 892 c 1,29,30
 588 754 588 754 383 754 c 0,31,32
 276 754 276 754 209 815 c 128,-1,33
 142 876 142 876 142 976 c 0,34,35
 142 1044 142 1044 169 1097 c 128,-1,36
 196 1150 196 1150 241 1181 c 128,-1,37
 286 1212 286 1212 339.5 1228 c 128,-1,38
 393 1244 393 1244 452 1244 c 0,39,40
 520 1244 520 1244 581 1229 c 128,-1,41
 642 1214 642 1214 670 1193 c 1,42,43
 670 1288 670 1288 628.5 1341.5 c 128,-1,44
 587 1395 587 1395 485 1395 c 0,45,46
 393 1395 393 1395 337 1381.5 c 128,-1,47
 281 1368 281 1368 229 1329 c 1,48,-1
 158 1449 l 1,15,16
EndSplineSet
EndChar

StartChar: guillemotleft
Encoding: 171 171 109
Width: 1060
GlyphClass: 1
Flags: W
LayerCount: 2
Fore
SplineSet
421 576 m 1,0,1
 527 649 527 649 611.5 762 c 128,-1,2
 696 875 696 875 727 978 c 1,3,-1
 880 921 l 1,4,5
 803 688 803 688 612 516 c 1,6,7
 792 360 792 360 858 134 c 1,8,-1
 864 116 l 1,9,-1
 709 63 l 1,10,11
 673 187 673 187 605 279 c 128,-1,12
 537 371 537 371 421 450 c 1,13,-1
 421 576 l 1,0,1
71 574 m 1,14,15
 83 585 83 585 124.5 622 c 128,-1,16
 166 659 166 659 181.5 673 c 128,-1,17
 197 687 197 687 232 720.5 c 128,-1,18
 267 754 267 754 282.5 772 c 128,-1,19
 298 790 298 790 323.5 820.5 c 128,-1,20
 349 851 349 851 361 873.5 c 128,-1,21
 373 896 373 896 385 923 c 128,-1,22
 397 950 397 950 401 976 c 1,23,-1
 557 939 l 1,24,25
 543 872 543 872 513 811.5 c 128,-1,26
 483 751 483 751 436 696 c 128,-1,27
 389 641 389 641 352.5 605.5 c 128,-1,28
 316 570 316 570 256 518 c 1,29,30
 369 414 369 414 438.5 320.5 c 128,-1,31
 508 227 508 227 539 109 c 1,32,-1
 387 55 l 1,33,34
 361 157 361 157 287.5 244.5 c 128,-1,35
 214 332 214 332 71 459 c 1,36,-1
 71 574 l 1,14,15
EndSplineSet
EndChar

StartChar: logicalnot
Encoding: 172 172 110
Width: 1060
GlyphClass: 1
Flags: W
LayerCount: 2
Fore
SplineSet
147 592 m 1,0,1
 302 600 302 600 496 600 c 2,2,3
 496 600 496 600 615 600 c 0,4,5
 675 600 675 600 889 598 c 2,6,-1
 908 598 l 1,7,8
 908 598 908 598 908 174 c 1,9,-1
 754 174 l 1,10,-1
 754 444 l 1,11,12
 574 448 574 448 494 448 c 0,13,14
 324 448 324 448 153 439 c 1,15,-1
 153 523 l 1,16,-1
 147 592 l 1,0,1
EndSplineSet
EndChar

StartChar: uni00AD
Encoding: 173 173 111
Width: 1060
GlyphClass: 1
Flags: W
LayerCount: 2
Fore
SplineSet
147 592 m 1,0,1
 302 600 302 600 496 600 c 2,2,3
 496 600 496 600 615 600 c 0,4,5
 675 600 675 600 889 598 c 2,6,-1
 907 598 l 1,7,-1
 907 445 l 1,8,-1
 889 445 l 2,9,10
 754 448 754 448 494 448 c 0,11,12
 324 448 324 448 153 439 c 1,13,-1
 153 523 l 1,14,-1
 147 592 l 1,0,1
EndSplineSet
EndChar

StartChar: registered
Encoding: 174 174 112
Width: 1060
GlyphClass: 1
Flags: W
LayerCount: 2
Fore
SplineSet
646 524 m 1,0,1
 666 483 666 483 716 432.5 c 128,-1,2
 766 382 766 382 794 375 c 1,3,-1
 722 275 l 1,4,5
 662 297 662 297 599.5 374.5 c 128,-1,6
 537 452 537 452 514 506 c 1,7,8
 500 508 500 508 482 512.5 c 128,-1,9
 464 517 464 517 452 520 c 2,10,-1
 441 524 l 1,11,-1
 442 283 l 1,12,-1
 327 283 l 1,13,-1
 327 736 l 2,14,15
 327 811 327 811 323 876 c 1,16,17
 458 898 458 898 537 898 c 0,18,19
 656 898 656 898 717.5 849.5 c 128,-1,20
 779 801 779 801 779 686 c 0,21,22
 779 639 779 639 740.5 590.5 c 128,-1,23
 702 542 702 542 646 524 c 1,0,1
661 684 m 0,24,25
 661 730 661 730 633.5 751.5 c 128,-1,26
 606 773 606 773 539 773 c 0,27,28
 492 773 492 773 440 765 c 1,29,-1
 441 645 l 1,30,31
 508 615 508 615 558 615 c 0,32,33
 606 615 606 615 633.5 637 c 128,-1,34
 661 659 661 659 661 684 c 0,24,25
157 593 m 128,-1,36
 157 480 157 480 208.5 384.5 c 128,-1,37
 260 289 260 289 349 234 c 128,-1,38
 438 179 438 179 543 179 c 256,39,40
 648 179 648 179 735 234 c 128,-1,41
 822 289 822 289 871.5 384.5 c 128,-1,42
 921 480 921 480 921 593 c 128,-1,43
 921 706 921 706 871.5 801.5 c 128,-1,44
 822 897 822 897 735 952 c 128,-1,45
 648 1007 648 1007 543 1007 c 256,46,47
 438 1007 438 1007 349 952 c 128,-1,48
 260 897 260 897 208.5 801.5 c 128,-1,35
 157 706 157 706 157 593 c 128,-1,36
16 592.5 m 128,-1,50
 16 705 16 705 57.5 807.5 c 128,-1,51
 99 910 99 910 169 984.5 c 128,-1,52
 239 1059 239 1059 336 1102.5 c 128,-1,53
 433 1146 433 1146 539 1146 c 0,54,55
 624 1146 624 1146 704 1118 c 128,-1,56
 784 1090 784 1090 848.5 1039 c 128,-1,57
 913 988 913 988 961.5 920 c 128,-1,58
 1010 852 1010 852 1036 767 c 128,-1,59
 1062 682 1062 682 1062 592 c 128,-1,60
 1062 502 1062 502 1036 417.5 c 128,-1,61
 1010 333 1010 333 961.5 265 c 128,-1,62
 913 197 913 197 848.5 146 c 128,-1,63
 784 95 784 95 704.5 67 c 128,-1,64
 625 39 625 39 539 39 c 0,65,66
 433 39 433 39 336 83 c 128,-1,67
 239 127 239 127 169 201 c 128,-1,68
 99 275 99 275 57.5 377.5 c 128,-1,49
 16 480 16 480 16 592.5 c 128,-1,50
EndSplineSet
EndChar

StartChar: macron
Encoding: 175 175 113
Width: 1060
GlyphClass: 1
Flags: W
LayerCount: 2
Fore
SplineSet
228 1340 m 1,0,1
 273 1335 273 1335 353 1335 c 0,2,3
 375 1335 375 1335 425 1335.5 c 128,-1,4
 475 1336 475 1336 501 1336 c 2,5,-1
 682 1336 l 1,6,-1
 682 1184 l 1,7,-1
 665 1184 l 2,8,9
 607 1182 607 1182 463 1182 c 2,10,11
 463 1182 463 1182 382 1182 c 0,12,13
 277 1182 277 1182 228 1185 c 1,14,-1
 228 1340 l 1,0,1
EndSplineSet
EndChar

StartChar: degree
Encoding: 176 176 114
Width: 1060
GlyphClass: 1
Flags: W
LayerCount: 2
Fore
SplineSet
197 1096 m 128,-1,1
 197 1202 197 1202 272.5 1278 c 128,-1,2
 348 1354 348 1354 455 1354 c 128,-1,3
 562 1354 562 1354 637.5 1278 c 128,-1,4
 713 1202 713 1202 713 1096 c 128,-1,5
 713 990 713 990 637.5 914 c 128,-1,6
 562 838 562 838 455 838 c 128,-1,7
 348 838 348 838 272.5 914 c 128,-1,0
 197 990 197 990 197 1096 c 128,-1,1
347 1096 m 128,-1,9
 347 1051 347 1051 378.5 1019.5 c 128,-1,10
 410 988 410 988 455 988 c 128,-1,11
 500 988 500 988 531.5 1019.5 c 128,-1,12
 563 1051 563 1051 563 1096 c 128,-1,13
 563 1141 563 1141 531.5 1172.5 c 128,-1,14
 500 1204 500 1204 455 1204 c 128,-1,15
 410 1204 410 1204 378.5 1172.5 c 128,-1,8
 347 1141 347 1141 347 1096 c 128,-1,9
EndSplineSet
EndChar

StartChar: plusminus
Encoding: 177 177 115
Width: 1060
GlyphClass: 1
Flags: W
LayerCount: 2
Fore
SplineSet
82 822 m 1,0,1
 272 811 272 811 426 811 c 1,2,-1
 428 1172 l 1,3,-1
 588 1171 l 1,4,-1
 586 810 l 1,5,6
 641 811 641 811 731 815 c 128,-1,7
 821 819 821 819 928 819 c 2,8,-1
 945 819 l 1,9,-1
 945 669 l 1,10,-1
 928 669 l 2,11,12
 845 669 845 669 798 667.5 c 128,-1,13
 751 666 751 666 697.5 663 c 128,-1,14
 644 660 644 660 586 658 c 1,15,-1
 586 647 l 2,16,17
 586 592 586 592 585 489 c 128,-1,18
 584 386 584 386 584 343 c 1,19,20
 665 342 665 342 754.5 339.5 c 128,-1,21
 844 337 844 337 928 335 c 2,22,-1
 945 334 l 1,23,-1
 945 184 l 1,24,-1
 928 185 l 1,25,26
 440 192 440 192 426 192 c 0,27,28
 299 192 299 192 107 186 c 1,29,-1
 89 186 l 1,30,-1
 89 336 l 1,31,-1
 106 336 l 2,32,33
 166 337 166 337 227 339.5 c 128,-1,34
 288 342 288 342 329 343 c 128,-1,35
 370 344 370 344 424 344 c 1,36,37
 424 389 424 389 425 491.5 c 128,-1,38
 426 594 426 594 426 649 c 2,39,-1
 426 659 l 1,40,41
 313 659 313 659 82 672 c 1,42,-1
 82 822 l 1,0,1
EndSplineSet
EndChar

StartChar: uni00B2
Encoding: 178 178 116
Width: 1060
GlyphClass: 1
Flags: W
LayerCount: 2
Fore
SplineSet
237 1314 m 1,0,1
 254 1421 254 1421 335.5 1474 c 128,-1,2
 417 1527 417 1527 536 1527 c 0,3,4
 654 1527 654 1527 734 1467 c 128,-1,5
 814 1407 814 1407 814 1297 c 0,6,7
 814 1275 814 1275 812 1256 c 128,-1,8
 810 1237 810 1237 804 1219.5 c 128,-1,9
 798 1202 798 1202 793 1189 c 128,-1,10
 788 1176 788 1176 774.5 1161 c 128,-1,11
 761 1146 761 1146 753 1136.5 c 128,-1,12
 745 1127 745 1127 724.5 1113 c 128,-1,13
 704 1099 704 1099 692.5 1091 c 128,-1,14
 681 1083 681 1083 653 1067.5 c 128,-1,15
 625 1052 625 1052 609.5 1044 c 128,-1,16
 594 1036 594 1036 559 1018 c 0,17,18
 550 1013 550 1013 528.5 1002 c 128,-1,19
 507 991 507 991 498 986.5 c 128,-1,20
 489 982 489 982 472 972.5 c 128,-1,21
 455 963 455 963 447 957 c 128,-1,22
 439 951 439 951 429 942.5 c 128,-1,23
 419 934 419 934 414 926.5 c 128,-1,24
 409 919 409 919 407 911 c 1,25,-1
 826 916 l 1,26,-1
 826 769 l 1,27,-1
 228 769 l 1,28,29
 226 833 226 833 226 864 c 0,30,31
 226 930 226 930 259 984 c 0,32,33
 267 997 267 997 283.5 1011.5 c 128,-1,34
 300 1026 300 1026 314.5 1037 c 128,-1,35
 329 1048 329 1048 357 1063.5 c 128,-1,36
 385 1079 385 1079 399 1086 c 128,-1,37
 413 1093 413 1093 447 1110 c 128,-1,38
 481 1127 481 1127 490 1131 c 0,39,40
 572 1172 572 1172 612.5 1201 c 128,-1,41
 653 1230 653 1230 662.5 1248.5 c 128,-1,42
 672 1267 672 1267 672 1295 c 0,43,44
 672 1335 672 1335 632.5 1360 c 128,-1,45
 593 1385 593 1385 539 1385 c 0,46,47
 464 1385 464 1385 428.5 1359.5 c 128,-1,48
 393 1334 393 1334 383 1279 c 1,49,-1
 237 1314 l 1,0,1
EndSplineSet
EndChar

StartChar: uni00B3
Encoding: 179 179 117
Width: 1060
GlyphClass: 1
Flags: W
LayerCount: 2
Fore
SplineSet
308 987 m 1,0,1
 353 938 353 938 398.5 916.5 c 128,-1,2
 444 895 444 895 512 895 c 0,3,4
 595 895 595 895 634 922 c 128,-1,5
 673 949 673 949 673 993 c 0,6,7
 673 1106 673 1106 471 1106 c 1,8,-1
 477 1221 l 1,9,10
 507 1219 507 1219 518 1219 c 0,11,12
 638 1219 638 1219 638 1321 c 0,13,14
 638 1353 638 1353 605.5 1374 c 128,-1,15
 573 1395 573 1395 516 1395 c 0,16,17
 424 1395 424 1395 374 1345 c 1,18,-1
 277 1460 l 1,19,20
 365 1530 365 1530 508 1530 c 2,21,-1
 519 1530 l 2,22,23
 633 1530 633 1530 701.5 1474.5 c 128,-1,24
 770 1419 770 1419 770 1329 c 0,25,26
 770 1229 770 1229 708 1178 c 1,27,28
 820 1118 820 1118 820 994 c 0,29,30
 820 876 820 876 736.5 816 c 128,-1,31
 653 756 653 756 512 756 c 0,32,33
 404 756 404 756 335.5 785 c 128,-1,34
 267 814 267 814 202 886 c 1,35,-1
 308 987 l 1,0,1
EndSplineSet
EndChar

StartChar: acute
Encoding: 180 180 118
Width: 1060
GlyphClass: 1
Flags: W
LayerCount: 2
Fore
SplineSet
221 1349 m 1,0,1
 326 1384 326 1384 446 1459 c 128,-1,2
 566 1534 566 1534 654 1617 c 1,3,-1
 764 1470 l 1,4,5
 686 1392 686 1392 547 1316 c 128,-1,6
 408 1240 408 1240 288 1201 c 1,7,-1
 221 1349 l 1,0,1
EndSplineSet
EndChar

StartChar: uni00B5
Encoding: 181 181 119
Width: 1060
GlyphClass: 1
Flags: W
LayerCount: 2
Fore
SplineSet
906 -10 m 1,0,1
 870 16 870 16 849.5 33.5 c 128,-1,2
 829 51 829 51 806 84.5 c 128,-1,3
 783 118 783 118 773 158 c 1,4,5
 702 85 702 85 624 44.5 c 128,-1,6
 546 4 546 4 442 2 c 2,7,-1
 433 2 l 2,8,9
 323 2 323 2 269 22 c 1,10,-1
 266 -400 l 1,11,-1
 109 -400 l 1,12,-1
 114 214 l 2,13,14
 113 274 113 274 113 387 c 128,-1,15
 113 500 113 500 112.5 583 c 128,-1,16
 112 666 112 666 110 757.5 c 128,-1,17
 108 849 108 849 103.5 909.5 c 128,-1,18
 99 970 99 970 91 994 c 1,19,-1
 251 1021 l 1,20,21
 257 995 257 995 261 945.5 c 128,-1,22
 265 896 265 896 266.5 810.5 c 128,-1,23
 268 725 268 725 268.5 658 c 128,-1,24
 269 591 269 591 269.5 457.5 c 128,-1,25
 270 324 270 324 270 250 c 1,26,27
 278 205 278 205 320 174 c 0,28,29
 345 156 345 156 426 156 c 0,30,31
 523 160 523 160 585 198 c 0,32,33
 588 200 588 200 609 212 c 128,-1,34
 630 224 630 224 638 229 c 128,-1,35
 646 234 646 234 664.5 248 c 128,-1,36
 683 262 683 262 693.5 273.5 c 128,-1,37
 704 285 704 285 717 304 c 128,-1,38
 730 323 730 323 739 344 c 1,39,-1
 740 1020 l 1,40,-1
 898 1020 l 1,41,-1
 897 239 l 2,42,43
 899 178 899 178 988 107 c 1,44,-1
 906 -10 l 1,0,1
EndSplineSet
EndChar

StartChar: paragraph
Encoding: 182 182 120
Width: 1060
GlyphClass: 1
Flags: W
LayerCount: 2
Fore
SplineSet
755 1041 m 2,0,-1
 755 1169 l 1,1,2
 738 1169 738 1169 694 1171 c 128,-1,3
 650 1173 650 1173 621 1174 c 1,4,5
 621 1064 621 1064 621.5 862 c 128,-1,6
 622 660 622 660 622.5 495 c 128,-1,7
 623 330 623 330 624 184 c 0,8,9
 624 122 624 122 613.5 68.5 c 128,-1,10
 603 15 603 15 592 -8 c 2,11,-1
 582 -30 l 1,12,-1
 428 22 l 1,13,14
 433 29 433 29 439.5 43.5 c 128,-1,15
 446 58 446 58 457.5 111.5 c 128,-1,16
 469 165 469 165 469 229 c 2,17,-1
 467 473 l 1,18,19
 334 482 334 482 247 520 c 128,-1,20
 160 558 160 558 103 641 c 0,21,22
 62 701 62 701 49 769.5 c 128,-1,23
 36 838 36 838 36 924 c 0,24,25
 36 1085 36 1085 109 1174 c 0,26,27
 151 1225 151 1225 203.5 1257 c 128,-1,28
 256 1289 256 1289 325.5 1304 c 128,-1,29
 395 1319 395 1319 459 1323.5 c 128,-1,30
 523 1328 523 1328 620 1328 c 0,31,32
 688 1328 688 1328 770 1324 c 128,-1,33
 852 1320 852 1320 909 1320 c 1,34,-1
 909 -9 l 1,35,-1
 757 -10 l 1,36,37
 757 144 757 144 756 474.5 c 128,-1,38
 755 805 755 805 755 1041 c 2,0,-1
EndSplineSet
EndChar

StartChar: cedilla
Encoding: 184 184 122
Width: 1060
GlyphClass: 1
Flags: W
LayerCount: 2
Fore
SplineSet
626 56 m 1,0,1
 625 48 625 48 625 -19 c 1,2,3
 698 -23 698 -23 739 -67.5 c 128,-1,4
 780 -112 780 -112 780 -190 c 0,5,6
 780 -262 780 -262 722 -310 c 128,-1,7
 664 -358 664 -358 596 -358 c 0,8,9
 497 -358 497 -358 402 -297 c 1,10,-1
 440 -191 l 1,11,12
 505 -226 505 -226 541 -231 c 0,13,14
 553 -233 553 -233 564 -233 c 0,15,16
 593 -233 593 -233 617.5 -217.5 c 128,-1,17
 642 -202 642 -202 644 -175 c 2,18,-1
 644 -173 l 2,19,20
 644 -151 644 -151 619 -135 c 128,-1,21
 594 -119 594 -119 558 -119 c 0,22,23
 541 -119 541 -119 529 -120.5 c 128,-1,24
 517 -122 517 -122 512 -123.5 c 128,-1,25
 507 -125 507 -125 496.5 -129.5 c 128,-1,26
 486 -134 486 -134 480 -136 c 1,27,-1
 480 52 l 1,28,-1
 626 56 l 1,0,1
EndSplineSet
EndChar

StartChar: uni00B9
Encoding: 185 185 123
Width: 1060
GlyphClass: 1
Flags: W
LayerCount: 2
Fore
SplineSet
553 1527 m 1,0,-1
 716 1511 l 1,1,-1
 716 769 l 1,2,-1
 571 769 l 1,3,-1
 572 1325 l 1,4,5
 519 1267 519 1267 433 1216 c 128,-1,6
 347 1165 347 1165 251 1133 c 1,7,-1
 208 1263 l 1,8,9
 317 1292 317 1292 407.5 1360 c 128,-1,10
 498 1428 498 1428 553 1527 c 1,0,-1
EndSplineSet
EndChar

StartChar: ordmasculine
Encoding: 186 186 124
Width: 1060
GlyphClass: 1
Flags: W
LayerCount: 2
Fore
SplineSet
724 1168 m 0,0,1
 724 1282 724 1282 675 1333 c 128,-1,2
 626 1384 626 1384 519 1384 c 0,3,4
 480 1384 480 1384 449 1377.5 c 128,-1,5
 418 1371 418 1371 390.5 1354.5 c 128,-1,6
 363 1338 363 1338 344 1312.5 c 128,-1,7
 325 1287 325 1287 314.5 1246.5 c 128,-1,8
 304 1206 304 1206 304 1153 c 0,9,10
 304 900 304 900 503 900 c 0,11,12
 579 900 579 900 626 923.5 c 128,-1,13
 673 947 673 947 698.5 1006.5 c 128,-1,14
 724 1066 724 1066 724 1168 c 0,0,1
501 758 m 0,15,16
 387 758 387 758 310 805.5 c 128,-1,17
 233 853 233 853 197.5 939 c 128,-1,18
 162 1025 162 1025 162 1148 c 0,19,20
 162 1226 162 1226 180 1290.5 c 128,-1,21
 198 1355 198 1355 229 1398 c 128,-1,22
 260 1441 260 1441 302 1470 c 128,-1,23
 344 1499 344 1499 389.5 1512.5 c 128,-1,24
 435 1526 435 1526 485 1526 c 0,25,26
 682 1526 682 1526 774 1435.5 c 128,-1,27
 866 1345 866 1345 866 1181 c 0,28,29
 866 1062 866 1062 845.5 981 c 128,-1,30
 825 900 825 900 779.5 850.5 c 128,-1,31
 734 801 734 801 667 779.5 c 128,-1,32
 600 758 600 758 501 758 c 0,15,16
142 675 m 1,33,-1
 898 675 l 1,34,-1
 898 534 l 1,35,-1
 142 534 l 1,36,-1
 142 675 l 1,33,-1
EndSplineSet
EndChar

StartChar: onequarter
Encoding: 188 188 126
Width: 1060
GlyphClass: 1
Flags: W
LayerCount: 2
Fore
SplineSet
78 675 m 1,0,-1
 971 675 l 1,1,-1
 971 534 l 1,2,-1
 78 534 l 1,3,-1
 78 675 l 1,0,-1
589 -21 m 1,4,-1
 589 236 l 1,5,6
 490 101 490 101 378 -21 c 1,7,-1
 589 -21 l 1,4,-1
205 -16 m 1,8,9
 441 243 441 243 579 437 c 1,10,-1
 728 437 l 1,11,-1
 728 -17 l 1,12,-1
 856 -14 l 1,13,-1
 856 -162 l 1,14,-1
 728 -159 l 1,15,-1
 731 -316 l 1,16,-1
 583 -316 l 1,17,-1
 586 -159 l 1,18,-1
 257 -159 l 1,19,-1
 205 -16 l 1,8,9
553 1527 m 1,20,-1
 716 1511 l 1,21,-1
 716 769 l 1,22,-1
 571 769 l 1,23,-1
 572 1325 l 1,24,25
 519 1267 519 1267 433 1216 c 128,-1,26
 347 1165 347 1165 251 1133 c 1,27,-1
 208 1263 l 1,28,29
 317 1292 317 1292 407.5 1360 c 128,-1,30
 498 1428 498 1428 553 1527 c 1,20,-1
EndSplineSet
EndChar

StartChar: onehalf
Encoding: 189 189 127
Width: 1060
GlyphClass: 1
Flags: W
LayerCount: 2
Fore
SplineSet
78 675 m 1,0,-1
 971 675 l 1,1,-1
 971 534 l 1,2,-1
 78 534 l 1,3,-1
 78 675 l 1,0,-1
237 234 m 1,4,5
 254 341 254 341 335.5 394 c 128,-1,6
 417 447 417 447 536 447 c 0,7,8
 654 447 654 447 734 387 c 128,-1,9
 814 327 814 327 814 217 c 0,10,11
 814 195 814 195 812 176 c 128,-1,12
 810 157 810 157 804 139.5 c 128,-1,13
 798 122 798 122 793 109 c 128,-1,14
 788 96 788 96 774.5 81 c 128,-1,15
 761 66 761 66 753 56.5 c 128,-1,16
 745 47 745 47 724.5 33 c 128,-1,17
 704 19 704 19 692.5 11 c 128,-1,18
 681 3 681 3 653 -12.5 c 128,-1,19
 625 -28 625 -28 609.5 -36 c 128,-1,20
 594 -44 594 -44 559 -62 c 0,21,22
 550 -67 550 -67 528.5 -78 c 128,-1,23
 507 -89 507 -89 498 -93.5 c 128,-1,24
 489 -98 489 -98 472 -107.5 c 128,-1,25
 455 -117 455 -117 447 -123 c 128,-1,26
 439 -129 439 -129 429 -137.5 c 128,-1,27
 419 -146 419 -146 414 -153.5 c 128,-1,28
 409 -161 409 -161 407 -169 c 1,29,-1
 826 -164 l 1,30,-1
 826 -311 l 1,31,-1
 228 -311 l 1,32,33
 226 -247 226 -247 226 -216 c 0,34,35
 226 -150 226 -150 259 -96 c 0,36,37
 267 -83 267 -83 283.5 -68.5 c 128,-1,38
 300 -54 300 -54 314.5 -43 c 128,-1,39
 329 -32 329 -32 357 -16.5 c 128,-1,40
 385 -1 385 -1 399 6 c 128,-1,41
 413 13 413 13 447 30 c 128,-1,42
 481 47 481 47 490 51 c 0,43,44
 572 92 572 92 612.5 121 c 128,-1,45
 653 150 653 150 662.5 168.5 c 128,-1,46
 672 187 672 187 672 215 c 0,47,48
 672 255 672 255 632.5 280 c 128,-1,49
 593 305 593 305 539 305 c 0,50,51
 464 305 464 305 428.5 279.5 c 128,-1,52
 393 254 393 254 383 199 c 1,53,-1
 237 234 l 1,4,5
553 1527 m 1,54,-1
 716 1511 l 1,55,-1
 716 769 l 1,56,-1
 571 769 l 1,57,-1
 572 1325 l 1,58,59
 519 1267 519 1267 433 1216 c 128,-1,60
 347 1165 347 1165 251 1133 c 1,61,-1
 208 1263 l 1,62,63
 317 1292 317 1292 407.5 1360 c 128,-1,64
 498 1428 498 1428 553 1527 c 1,54,-1
EndSplineSet
EndChar

StartChar: threequarters
Encoding: 190 190 128
Width: 1060
GlyphClass: 1
Flags: W
LayerCount: 2
Fore
SplineSet
78 675 m 1,0,-1
 971 675 l 1,1,-1
 971 534 l 1,2,-1
 78 534 l 1,3,-1
 78 675 l 1,0,-1
589 -21 m 1,4,-1
 589 236 l 1,5,6
 490 101 490 101 378 -21 c 1,7,-1
 589 -21 l 1,4,-1
205 -16 m 1,8,9
 441 243 441 243 579 437 c 1,10,-1
 728 437 l 1,11,-1
 728 -17 l 1,12,-1
 856 -14 l 1,13,-1
 856 -162 l 1,14,-1
 728 -159 l 1,15,-1
 731 -316 l 1,16,-1
 583 -316 l 1,17,-1
 586 -159 l 1,18,-1
 257 -159 l 1,19,-1
 205 -16 l 1,8,9
308 987 m 1,20,21
 353 938 353 938 398.5 916.5 c 128,-1,22
 444 895 444 895 512 895 c 0,23,24
 595 895 595 895 634 922 c 128,-1,25
 673 949 673 949 673 993 c 0,26,27
 673 1106 673 1106 471 1106 c 1,28,-1
 477 1221 l 1,29,30
 507 1219 507 1219 518 1219 c 0,31,32
 638 1219 638 1219 638 1321 c 0,33,34
 638 1353 638 1353 605.5 1374 c 128,-1,35
 573 1395 573 1395 516 1395 c 0,36,37
 424 1395 424 1395 374 1345 c 1,38,-1
 277 1460 l 1,39,40
 365 1530 365 1530 508 1530 c 2,41,-1
 519 1530 l 2,42,43
 633 1530 633 1530 701.5 1474.5 c 128,-1,44
 770 1419 770 1419 770 1329 c 0,45,46
 770 1229 770 1229 708 1178 c 1,47,48
 820 1118 820 1118 820 994 c 0,49,50
 820 876 820 876 736.5 816 c 128,-1,51
 653 756 653 756 512 756 c 0,52,53
 404 756 404 756 335.5 785 c 128,-1,54
 267 814 267 814 202 886 c 1,55,-1
 308 987 l 1,20,21
EndSplineSet
EndChar

StartChar: Aring
Encoding: 197 197 135
Width: 1060
GlyphClass: 1
Flags: W
LayerCount: 2
Fore
SplineSet
718 495 m 1,0,-1
 524 1082 l 1,1,-1
 338 475 l 1,2,3
 382 485 382 485 537 492 c 1,4,-1
 718 495 l 1,0,-1
429 1447 m 0,5,6
 429 1419 429 1419 454 1397 c 128,-1,7
 479 1375 479 1375 516 1375 c 128,-1,8
 553 1375 553 1375 577 1397 c 128,-1,9
 601 1419 601 1419 601 1447 c 128,-1,10
 601 1475 601 1475 577.5 1495.5 c 128,-1,11
 554 1516 554 1516 516 1516 c 128,-1,12
 478 1516 478 1516 453.5 1495 c 128,-1,13
 429 1474 429 1474 429 1447 c 0,5,6
300 1445 m 0,14,15
 300 1527 300 1527 364.5 1583.5 c 128,-1,16
 429 1640 429 1640 517 1640 c 128,-1,17
 605 1640 605 1640 669 1583.5 c 128,-1,18
 733 1527 733 1527 733 1445 c 0,19,20
 733 1389 733 1389 700.5 1342.5 c 128,-1,21
 668 1296 668 1296 615 1271 c 1,22,-1
 983 172 l 2,23,24
 1011 77 1011 77 1014 0 c 1,25,-1
 850 0 l 1,26,27
 850 17 850 17 843 59.5 c 128,-1,28
 836 102 836 102 830 122 c 2,29,-1
 760 332 l 1,30,31
 750 332 750 332 711 331 c 128,-1,32
 672 330 672 330 655.5 329.5 c 128,-1,33
 639 329 639 329 600.5 328 c 128,-1,34
 562 327 562 327 540.5 326 c 128,-1,35
 519 325 519 325 484.5 323.5 c 128,-1,36
 450 322 450 322 426.5 319.5 c 128,-1,37
 403 317 403 317 376 314.5 c 128,-1,38
 349 312 349 312 327 308 c 128,-1,39
 305 304 305 304 287 300 c 1,40,-1
 228 121 l 2,41,42
 204 51 204 51 204 0 c 1,43,-1
 42 0 l 1,44,45
 43 21 43 21 53.5 73.5 c 128,-1,46
 64 126 64 126 74 159 c 2,47,-1
 424 1269 l 1,48,49
 369 1293 369 1293 334.5 1340 c 128,-1,50
 300 1387 300 1387 300 1445 c 0,14,15
EndSplineSet
EndChar

StartChar: AE
Encoding: 198 198 136
Width: 1060
GlyphClass: 1
Flags: W
LayerCount: 2
Fore
SplineSet
470 490 m 1,0,-1
 419 1094 l 1,1,-1
 276 475 l 1,2,3
 345 488 345 488 470 490 c 1,0,-1
481 347 m 1,4,5
 409 345 409 345 349.5 338.5 c 128,-1,6
 290 332 290 332 266 327 c 2,7,-1
 242 322 l 1,8,-1
 191 121 l 2,9,10
 167 18 167 18 167 0 c 1,11,-1
 5 0 l 1,12,13
 7 51 7 51 37 159 c 2,14,-1
 350 1293 l 1,15,16
 412 1295 412 1295 619 1295 c 0,17,18
 705 1295 705 1295 809.5 1294.5 c 128,-1,19
 914 1294 914 1294 955 1294 c 1,20,-1
 955 1144 l 1,21,-1
 550 1144 l 1,22,-1
 576 816 l 1,23,-1
 876 816 l 1,24,-1
 876 666 l 1,25,-1
 595 666 l 1,26,-1
 637 147 l 1,27,-1
 881 149 l 2,28,29
 906 149 906 149 935 155.5 c 128,-1,30
 964 162 964 162 981 168 c 2,31,-1
 998 175 l 1,32,-1
 1042 27 l 1,33,34
 1032 24 1032 24 1009.5 17 c 128,-1,35
 987 10 987 10 974 6.5 c 128,-1,36
 961 3 961 3 937.5 0 c 128,-1,37
 914 -3 914 -3 889 -3 c 2,38,-1
 883 -3 l 1,39,-1
 504 0 l 1,40,-1
 481 347 l 1,4,5
EndSplineSet
EndChar

StartChar: Ccedilla
Encoding: 199 199 137
Width: 1060
GlyphClass: 1
Flags: W
LayerCount: 2
Fore
SplineSet
569 1175 m 0,0,1
 489 1175 489 1175 423 1136.5 c 128,-1,2
 357 1098 357 1098 317 1041 c 0,3,4
 215 891 215 891 215 638 c 0,5,6
 215 351 215 351 344 229 c 0,7,8
 390 186 390 186 431.5 170 c 128,-1,9
 473 154 473 154 536 154 c 2,10,-1
 550 154 l 1,11,12
 750 161 750 161 834 349 c 1,13,-1
 973 271 l 1,14,15
 920 158 920 158 831.5 85.5 c 128,-1,16
 743 13 743 13 625 0 c 1,17,-1
 625 -34 l 1,18,19
 698 -38 698 -38 739 -82.5 c 128,-1,20
 780 -127 780 -127 780 -205 c 0,21,22
 780 -277 780 -277 722 -325 c 128,-1,23
 664 -373 664 -373 596 -373 c 0,24,25
 497 -373 497 -373 402 -312 c 1,26,-1
 440 -206 l 1,27,28
 505 -241 505 -241 541 -246 c 0,29,30
 553 -248 553 -248 564 -248 c 0,31,32
 593 -248 593 -248 617.5 -232.5 c 128,-1,33
 642 -217 642 -217 644 -190 c 2,34,-1
 644 -188 l 2,35,36
 644 -166 644 -166 619 -150 c 128,-1,37
 594 -134 594 -134 558 -134 c 0,38,39
 541 -134 541 -134 529 -135.5 c 128,-1,40
 517 -137 517 -137 512 -138.5 c 128,-1,41
 507 -140 507 -140 496.5 -144.5 c 128,-1,42
 486 -149 486 -149 480 -151 c 1,43,-1
 480 3 l 1,44,45
 327 24 327 24 235 116 c 0,46,47
 56 302 56 302 56 636 c 0,48,49
 56 932 56 932 189 1132 c 0,50,51
 247 1219 247 1219 347.5 1275.5 c 128,-1,52
 448 1332 448 1332 572 1332 c 0,53,54
 678 1332 678 1332 770.5 1268.5 c 128,-1,55
 863 1205 863 1205 928 1085 c 1,56,-1
 792 1002 l 1,57,58
 706 1175 706 1175 569 1175 c 0,0,1
EndSplineSet
EndChar

StartChar: Eth
Encoding: 208 208 146
Width: 1060
GlyphClass: 1
Flags: W
LayerCount: 2
Fore
SplineSet
76 921 m 1,0,-1
 76 977 l 2,1,2
 76 1190 76 1190 63 1317 c 1,3,4
 205 1331 205 1331 288 1331 c 0,5,6
 489 1331 489 1331 616.5 1268 c 128,-1,7
 744 1205 744 1205 838 1066 c 0,8,9
 901 971 901 971 935 843.5 c 128,-1,10
 969 716 969 716 969 580 c 0,11,12
 969 483 969 483 948 376 c 0,13,14
 914 203 914 203 808 106.5 c 128,-1,15
 702 10 702 10 559 -3 c 0,16,17
 482 -10 482 -10 398 -10 c 0,18,19
 360 -10 360 -10 244 -6.5 c 128,-1,20
 128 -3 128 -3 67 -3 c 1,21,22
 67 30 67 30 70 128 c 0,23,24
 70 144 70 144 71.5 244.5 c 128,-1,25
 73 345 73 345 74.5 495.5 c 128,-1,26
 76 646 76 646 76 773 c 1,27,-1
 4 773 l 1,28,-1
 4 921 l 1,29,-1
 76 921 l 1,0,-1
309 1176 m 2,30,-1
 279 1176 l 2,31,32
 251 1176 251 1176 234 1173 c 1,33,34
 235 1147 235 1147 235 1086 c 0,35,36
 235 1061 235 1061 234.5 1005.5 c 128,-1,37
 234 950 234 950 234 921 c 1,38,-1
 600 921 l 1,39,-1
 601 773 l 1,40,-1
 234 773 l 1,41,42
 232 361 232 361 230 147 c 1,43,44
 318 144 318 144 423 144 c 0,45,46
 494 144 494 144 543 151.5 c 128,-1,47
 592 159 592 159 640.5 180 c 128,-1,48
 689 201 689 201 724 243.5 c 128,-1,49
 759 286 759 286 783 353 c 0,50,51
 810 431 810 431 810 544 c 0,52,53
 810 669 810 669 783.5 785.5 c 128,-1,54
 757 902 757 902 709 973 c 128,-1,55
 661 1044 661 1044 614.5 1085 c 128,-1,56
 568 1126 568 1126 492 1151 c 128,-1,57
 416 1176 416 1176 309 1176 c 2,30,-1
EndSplineSet
EndChar

StartChar: multiply
Encoding: 215 215 153
Width: 1060
GlyphClass: 1
Flags: W
LayerCount: 2
Fore
SplineSet
381 522 m 1,0,1
 337 567 337 567 230.5 679.5 c 128,-1,2
 124 792 124 792 63 848 c 1,3,-1
 162 971 l 1,4,5
 261 879 261 879 496 636 c 1,6,7
 773 901 773 901 832 963 c 1,8,-1
 936 840 l 1,9,10
 694 598 694 598 609 515 c 1,11,12
 690 429 690 429 786 322 c 128,-1,13
 882 215 882 215 936 161 c 1,14,-1
 816 63 l 1,15,16
 787 100 787 100 751 140.5 c 128,-1,17
 715 181 715 181 690.5 207 c 128,-1,18
 666 233 666 233 598.5 301 c 128,-1,19
 531 369 531 369 494 407 c 1,20,21
 441 355 441 355 386.5 298.5 c 128,-1,22
 332 242 332 242 301.5 208.5 c 128,-1,23
 271 175 271 175 231 131 c 128,-1,24
 191 87 191 87 186 82 c 1,25,-1
 69 180 l 1,26,27
 224 367 224 367 381 522 c 1,0,1
EndSplineSet
EndChar

StartChar: Oslash
Encoding: 216 216 154
Width: 1060
GlyphClass: 1
Flags: W
LayerCount: 2
Fore
SplineSet
747 1026 m 1,0,1
 699 911 699 911 377 174 c 1,2,3
 432 148 432 148 509 148 c 0,4,5
 664 148 664 148 743 297 c 0,6,7
 772 344 772 344 793 448 c 128,-1,8
 814 552 814 552 814 637 c 0,9,10
 814 667 814 667 811.5 714 c 128,-1,11
 809 761 809 761 794 862.5 c 128,-1,12
 779 964 779 964 754 1013 c 0,13,14
 753 1015 753 1015 750.5 1019.5 c 128,-1,15
 748 1024 748 1024 747 1026 c 1,0,1
258 295 m 1,16,17
 568 1005 568 1005 630 1152 c 1,18,19
 590 1172 590 1172 538 1172 c 0,20,21
 467 1172 467 1172 419.5 1148 c 128,-1,22
 372 1124 372 1124 329 1066 c 0,23,24
 273 992 273 992 236.5 867.5 c 128,-1,25
 200 743 200 743 200 585 c 0,26,27
 200 514 200 514 215 433.5 c 128,-1,28
 230 353 230 353 258 295 c 1,16,17
185 127 m 0,29,30
 184 128 184 128 182 130.5 c 128,-1,31
 180 133 180 133 179 134 c 0,32,33
 41 306 41 306 41 581 c 0,34,35
 41 941 41 941 199 1160 c 0,36,37
 252 1234 252 1234 337 1280 c 128,-1,38
 422 1326 422 1326 533 1328 c 0,39,40
 617 1328 617 1328 689 1297 c 1,41,42
 704 1332 704 1332 720 1376 c 1,43,-1
 868 1318 l 1,44,45
 844 1257 844 1257 820 1199 c 1,46,47
 969 1024 969 1024 972 645 c 2,48,-1
 972 634 l 2,49,50
 972 516 972 516 946 406.5 c 128,-1,51
 920 297 920 297 880 219 c 0,52,53
 824 109 824 109 728.5 50.5 c 128,-1,54
 633 -8 633 -8 509 -8 c 0,55,56
 402 -8 402 -8 314 31 c 1,57,58
 308 18 308 18 299 -4.5 c 128,-1,59
 290 -27 290 -27 286 -36 c 1,60,-1
 138 25 l 1,61,62
 166 80 166 80 185 127 c 0,29,30
EndSplineSet
EndChar

StartChar: Thorn
Encoding: 222 222 160
Width: 1060
GlyphClass: 1
Flags: W
LayerCount: 2
Fore
SplineSet
784 800 m 0,0,1
 784 906 784 906 699 957 c 128,-1,2
 614 1008 614 1008 415 1008 c 0,3,4
 379 1008 379 1008 325.5 1006 c 128,-1,5
 272 1004 272 1004 264 1004 c 1,6,-1
 264 878 l 1,7,-1
 263 613 l 1,8,9
 299 612 299 612 366 612 c 0,10,11
 461 612 461 612 520.5 615.5 c 128,-1,12
 580 619 580 619 635.5 630 c 128,-1,13
 691 641 691 641 720.5 661.5 c 128,-1,14
 750 682 750 682 767 716 c 128,-1,15
 784 750 784 750 784 800 c 0,0,1
262 -10 m 1,16,-1
 104 -9 l 1,17,-1
 104 1294 l 1,18,19
 190 1294 190 1294 264 1297 c 1,20,-1
 264 1157 l 1,21,22
 316 1160 316 1160 393 1160 c 0,23,24
 521 1160 521 1160 595.5 1151.5 c 128,-1,25
 670 1143 670 1143 743.5 1109 c 128,-1,26
 817 1075 817 1075 872 1008 c 0,27,28
 946 919 946 919 946 764 c 0,29,30
 946 697 946 697 923.5 645 c 128,-1,31
 901 593 901 593 858 560.5 c 128,-1,32
 815 528 815 528 766.5 507 c 128,-1,33
 718 486 718 486 652.5 476.5 c 128,-1,34
 587 467 587 467 534.5 463.5 c 128,-1,35
 482 460 482 460 416 460 c 0,36,37
 344 460 344 460 263 463 c 1,38,39
 263 318 263 318 262.5 186.5 c 128,-1,40
 262 55 262 55 262 -10 c 1,16,-1
EndSplineSet
EndChar

StartChar: germandbls
Encoding: 223 223 161
Width: 1060
GlyphClass: 1
Flags: W
LayerCount: 2
Fore
SplineSet
80 1003 m 0,0,1
 80 1084 80 1084 115 1156.5 c 128,-1,2
 150 1229 150 1229 222.5 1278.5 c 128,-1,3
 295 1328 295 1328 390 1328 c 0,4,5
 552 1328 552 1328 653 1249 c 128,-1,6
 754 1170 754 1170 754 1011 c 0,7,8
 754 858 754 858 670 779 c 1,9,10
 944 703 944 703 944 381 c 0,11,12
 944 213 944 213 862.5 105.5 c 128,-1,13
 781 -2 781 -2 624 -2 c 0,14,15
 476 -2 476 -2 383 74.5 c 128,-1,16
 290 151 290 151 290 297 c 0,17,18
 290 301 290 301 290.5 309 c 128,-1,19
 291 317 291 317 291 321 c 1,20,-1
 446 321 l 1,21,22
 447 270 447 270 453.5 239.5 c 128,-1,23
 460 209 460 209 480 188 c 128,-1,24
 500 167 500 167 533.5 159 c 128,-1,25
 567 151 567 151 624 151 c 0,26,27
 673 151 673 151 706.5 169.5 c 128,-1,28
 740 188 740 188 758 223.5 c 128,-1,29
 776 259 776 259 783 300 c 128,-1,30
 790 341 790 341 790 395 c 0,31,32
 790 438 790 438 782 473 c 128,-1,33
 774 508 774 508 761 534.5 c 128,-1,34
 748 561 748 561 724.5 582 c 128,-1,35
 701 603 701 603 678 617 c 128,-1,36
 655 631 655 631 618.5 640.5 c 128,-1,37
 582 650 582 650 550.5 655.5 c 128,-1,38
 519 661 519 661 471.5 664 c 128,-1,39
 424 667 424 667 386.5 668 c 128,-1,40
 349 669 349 669 293 669 c 1,41,-1
 293 822 l 1,42,43
 329 822 329 822 347.5 822 c 128,-1,44
 366 822 366 822 398 824 c 128,-1,45
 430 826 430 826 446.5 829 c 128,-1,46
 463 832 463 832 488.5 838 c 128,-1,47
 514 844 514 844 527.5 853 c 128,-1,48
 541 862 541 862 557.5 876 c 128,-1,49
 574 890 574 890 582 908 c 128,-1,50
 590 926 590 926 595.5 950.5 c 128,-1,51
 601 975 601 975 601 1005 c 0,52,53
 601 1089 601 1089 547 1132.5 c 128,-1,54
 493 1176 493 1176 390 1176 c 0,55,56
 321 1175 321 1175 277 1119.5 c 128,-1,57
 233 1064 233 1064 233 993 c 0,58,59
 233 919 233 919 235.5 733 c 128,-1,60
 238 547 238 547 238 450 c 0,61,62
 238 232 238 232 228 111 c 0,63,64
 220 16 220 16 113 -37 c 1,65,-1
 27 87 l 1,66,67
 55 100 55 100 67 113 c 0,68,69
 88 136 88 136 88 224 c 0,70,71
 89 337 89 337 89 448 c 0,72,73
 89 543 89 543 84.5 730.5 c 128,-1,74
 80 918 80 918 80 1003 c 0,0,1
EndSplineSet
EndChar

StartChar: ae
Encoding: 230 230 168
Width: 1060
GlyphClass: 1
Flags: W
LayerCount: 2
Fore
SplineSet
177 324 m 0,0,1
 177 162 177 162 301 162 c 0,2,3
 362 162 362 162 396 211 c 128,-1,4
 430 260 430 260 441 327 c 1,5,-1
 441 474 l 1,6,7
 383 508 383 508 302 508 c 0,8,9
 245 508 245 508 211 455 c 128,-1,10
 177 402 177 402 177 324 c 0,0,1
594 615 m 1,11,12
 713 623 713 623 825 623 c 1,13,14
 825 666 825 666 820.5 706.5 c 128,-1,15
 816 747 816 747 805.5 785 c 128,-1,16
 795 823 795 823 776.5 846 c 128,-1,17
 758 869 758 869 733 869 c 0,18,19
 695 869 695 869 669.5 857.5 c 128,-1,20
 644 846 644 846 629 827 c 128,-1,21
 614 808 614 808 606 773.5 c 128,-1,22
 598 739 598 739 596 704.5 c 128,-1,23
 594 670 594 670 594 615 c 1,11,12
505 97 m 1,24,25
 423 4 423 4 312 4 c 0,26,27
 205 4 205 4 130 57 c 0,28,29
 23 132 23 132 23 309 c 0,30,31
 23 362 23 362 31 410 c 128,-1,32
 39 458 39 458 59 504.5 c 128,-1,33
 79 551 79 551 108.5 585 c 128,-1,34
 138 619 138 619 185 640 c 128,-1,35
 232 661 232 661 291 661 c 0,36,37
 327 661 327 661 357.5 655.5 c 128,-1,38
 388 650 388 650 401 645 c 128,-1,39
 414 640 414 640 441 629 c 1,40,41
 441 671 441 671 435.5 708.5 c 128,-1,42
 430 746 430 746 415.5 785 c 128,-1,43
 401 824 401 824 371.5 847 c 128,-1,44
 342 870 342 870 300 870 c 2,45,-1
 291 870 l 2,46,47
 268 870 268 870 254.5 868 c 128,-1,48
 241 866 241 866 223 856.5 c 128,-1,49
 205 847 205 847 186 825.5 c 128,-1,50
 167 804 167 804 143 767 c 2,51,-1
 133 753 l 1,52,-1
 16 827 l 1,53,-1
 27 845 l 2,54,55
 91 946 91 946 149.5 984.5 c 128,-1,56
 208 1023 208 1023 300 1023 c 0,57,58
 347 1023 347 1023 383.5 1012 c 128,-1,59
 420 1001 420 1001 463 968 c 0,60,61
 490 945 490 945 513 909 c 1,62,63
 537 945 537 945 559 967 c 128,-1,64
 581 989 581 989 623.5 1006 c 128,-1,65
 666 1023 666 1023 724 1023 c 0,66,67
 774 1023 774 1023 814.5 1002 c 128,-1,68
 855 981 855 981 881 950 c 128,-1,69
 907 919 907 919 925.5 869 c 128,-1,70
 944 819 944 819 953.5 775 c 128,-1,71
 963 731 963 731 968.5 669.5 c 128,-1,72
 974 608 974 608 975 568.5 c 128,-1,73
 976 529 976 529 976 475 c 1,74,-1
 594 465 l 1,75,-1
 594 220 l 1,76,77
 615 196 615 196 652 178.5 c 128,-1,78
 689 161 689 161 733 161 c 0,79,80
 803 161 803 161 881 270 c 1,81,-1
 988 170 l 1,82,83
 924 83 924 83 852 44 c 128,-1,84
 780 5 780 5 714 5 c 0,85,86
 592 5 592 5 505 97 c 1,24,25
EndSplineSet
EndChar

StartChar: ccedilla
Encoding: 231 231 169
Width: 1060
GlyphClass: 1
Flags: W
LayerCount: 2
Fore
SplineSet
230 527 m 0,0,1
 230 451 230 451 242.5 390 c 128,-1,2
 255 329 255 329 273 290 c 128,-1,3
 291 251 291 251 320.5 223.5 c 128,-1,4
 350 196 350 196 375.5 182 c 128,-1,5
 401 168 401 168 437 160.5 c 128,-1,6
 473 153 473 153 494.5 151.5 c 128,-1,7
 516 150 516 150 547 150 c 2,8,-1
 560 150 l 2,9,10
 669 150 669 150 734 189.5 c 128,-1,11
 799 229 799 229 843 302 c 1,12,-1
 969 211 l 1,13,14
 967 209 967 209 953 188.5 c 128,-1,15
 939 168 939 168 927.5 154.5 c 128,-1,16
 916 141 916 141 894.5 117.5 c 128,-1,17
 873 94 873 94 848 77 c 128,-1,18
 823 60 823 60 790 42 c 128,-1,19
 757 24 757 24 715 12.5 c 128,-1,20
 673 1 673 1 625 -4 c 1,21,-1
 625 -19 l 1,22,23
 698 -23 698 -23 739 -67.5 c 128,-1,24
 780 -112 780 -112 780 -190 c 0,25,26
 780 -262 780 -262 722 -310 c 128,-1,27
 664 -358 664 -358 596 -358 c 0,28,29
 497 -358 497 -358 402 -297 c 1,30,-1
 440 -191 l 1,31,32
 505 -226 505 -226 541 -231 c 0,33,34
 553 -233 553 -233 564 -233 c 0,35,36
 593 -233 593 -233 617.5 -217.5 c 128,-1,37
 642 -202 642 -202 644 -175 c 2,38,-1
 644 -173 l 2,39,40
 644 -151 644 -151 619 -135 c 128,-1,41
 594 -119 594 -119 558 -119 c 0,42,43
 541 -119 541 -119 529 -120.5 c 128,-1,44
 517 -122 517 -122 512 -123.5 c 128,-1,45
 507 -125 507 -125 496.5 -129.5 c 128,-1,46
 486 -134 486 -134 480 -136 c 1,47,-1
 480 -4 l 1,48,49
 329 7 329 7 241 73 c 0,50,51
 148 145 148 145 109.5 256.5 c 128,-1,52
 71 368 71 368 71 527 c 0,53,54
 71 663 71 663 103 758.5 c 128,-1,55
 135 854 135 854 200 910.5 c 128,-1,56
 265 967 265 967 353.5 992.5 c 128,-1,57
 442 1018 442 1018 564 1018 c 0,58,59
 702 1018 702 1018 793 948 c 0,60,61
 862 895 862 895 907 789 c 1,62,-1
 753 729 l 1,63,64
 748 747 748 747 743.5 759.5 c 128,-1,65
 739 772 739 772 724 794 c 128,-1,66
 709 816 709 816 689.5 829.5 c 128,-1,67
 670 843 670 843 634 854 c 128,-1,68
 598 865 598 865 553 865 c 0,69,70
 386 865 386 865 308 785 c 128,-1,71
 230 705 230 705 230 527 c 0,0,1
EndSplineSet
EndChar

StartChar: eth
Encoding: 240 240 178
Width: 1060
GlyphClass: 1
Flags: W
LayerCount: 2
Fore
SplineSet
601 864 m 1,0,1
 510 864 510 864 442.5 844.5 c 128,-1,2
 375 825 375 825 335 794 c 128,-1,3
 295 763 295 763 271 714.5 c 128,-1,4
 247 666 247 666 238.5 617 c 128,-1,5
 230 568 230 568 230 504 c 0,6,7
 230 351 230 351 296.5 253.5 c 128,-1,8
 363 156 363 156 484 156 c 0,9,10
 541 157 541 157 578.5 170 c 128,-1,11
 616 183 616 183 654 215 c 0,12,13
 745 299 745 299 745 541 c 0,14,15
 745 710 745 710 601 864 c 1,0,1
603 1167 m 1,16,17
 624 1137 624 1137 666 1078 c 128,-1,18
 708 1019 708 1019 725.5 993.5 c 128,-1,19
 743 968 743 968 774.5 919.5 c 128,-1,20
 806 871 806 871 819.5 844 c 128,-1,21
 833 817 833 817 853 774.5 c 128,-1,22
 873 732 873 732 881 698.5 c 128,-1,23
 889 665 889 665 895.5 623.5 c 128,-1,24
 902 582 902 582 902 539 c 0,25,26
 902 457 902 457 890 383 c 128,-1,27
 878 309 878 309 847.5 237.5 c 128,-1,28
 817 166 817 166 770.5 115 c 128,-1,29
 724 64 724 64 650.5 32.5 c 128,-1,30
 577 1 577 1 484 1 c 2,31,-1
 482 1 l 2,32,33
 285 2 285 2 178.5 141 c 128,-1,34
 72 280 72 280 72 499 c 0,35,36
 72 544 72 544 76 587 c 128,-1,37
 80 630 80 630 92 681 c 128,-1,38
 104 732 104 732 123 776 c 128,-1,39
 142 820 142 820 175 863.5 c 128,-1,40
 208 907 208 907 251.5 938.5 c 128,-1,41
 295 970 295 970 358 991.5 c 128,-1,42
 421 1013 421 1013 497 1018 c 1,43,44
 487 1033 487 1033 422 1124 c 1,45,-1
 217 1076 l 1,46,-1
 185 1212 l 1,47,-1
 337 1248 l 1,48,49
 279 1333 279 1333 276 1341 c 1,50,-1
 433 1428 l 1,51,52
 483 1346 483 1346 519 1291 c 1,53,-1
 737 1344 l 1,54,-1
 769 1208 l 1,55,-1
 603 1167 l 1,16,17
EndSplineSet
EndChar

StartChar: divide
Encoding: 247 247 185
Width: 1060
GlyphClass: 1
Flags: W
LayerCount: 2
Fore
SplineSet
101 437 m 1,0,-1
 96 594 l 1,1,2
 287 600 287 600 458 600 c 0,3,4
 519 600 519 600 572 599 c 128,-1,5
 625 598 625 598 708.5 596.5 c 128,-1,6
 792 595 792 595 871 594 c 2,7,-1
 888 594 l 1,8,-1
 887 437 l 1,9,-1
 869 437 l 2,10,11
 780 438 780 438 655 441 c 128,-1,12
 530 444 530 444 455 444 c 0,13,14
 367 444 367 444 101 437 c 1,0,-1
355 258 m 1,15,-1
 605 258 l 1,16,-1
 605 -12 l 1,17,-1
 355 -12 l 1,18,-1
 355 258 l 1,15,-1
353 1026 m 1,19,-1
 604 1026 l 1,20,-1
 604 757 l 1,21,-1
 353 757 l 1,22,-1
 353 1026 l 1,19,-1
EndSplineSet
EndChar

StartChar: oslash
Encoding: 248 248 186
Width: 1060
GlyphClass: 1
Flags: W
LayerCount: 2
Fore
SplineSet
241 356 m 1,0,-1
 655 821 l 1,1,2
 596 878 596 878 500 878 c 0,3,4
 424 878 424 878 370.5 849 c 128,-1,5
 317 820 317 820 287 764 c 128,-1,6
 257 708 257 708 243.5 636.5 c 128,-1,7
 230 565 230 565 230 469 c 0,8,9
 230 403 230 403 241 356 c 1,0,-1
855 804 m 1,10,11
 902 694 902 694 902 543 c 0,12,13
 902 453 902 453 889.5 376.5 c 128,-1,14
 877 300 877 300 847 229.5 c 128,-1,15
 817 159 817 159 770.5 109.5 c 128,-1,16
 724 60 724 60 651 30.5 c 128,-1,17
 578 1 578 1 484 1 c 2,18,-1
 482 1 l 2,19,20
 313 2 313 2 212 91 c 1,21,-1
 121 -9 l 1,22,-1
 10 95 l 1,23,-1
 119 218 l 1,24,25
 72 323 72 323 72 464 c 0,26,27
 72 555 72 555 84.5 635.5 c 128,-1,28
 97 716 97 716 126.5 789.5 c 128,-1,29
 156 863 156 863 200.5 916 c 128,-1,30
 245 969 245 969 313 1000.5 c 128,-1,31
 381 1032 381 1032 466 1032 c 0,32,33
 657 1032 657 1032 760 940 c 1,34,-1
 873 1067 l 1,35,-1
 993 956 l 1,36,-1
 855 804 l 1,10,11
654 215 m 0,37,38
 743 299 743 299 743 530 c 2,39,-1
 743 548 l 2,40,41
 743 616 743 616 732 667 c 1,42,-1
 320 212 l 1,43,44
 384 156 384 156 484 156 c 0,45,46
 541 157 541 157 578.5 170 c 128,-1,47
 616 183 616 183 654 215 c 0,37,38
EndSplineSet
EndChar

StartChar: thorn
Encoding: 254 254 192
Width: 1060
GlyphClass: 1
Flags: W
LayerCount: 2
Fore
SplineSet
755 527 m 0,0,1
 755 690 755 690 704 774 c 128,-1,2
 653 858 653 858 531 858 c 0,3,4
 463 858 463 858 418 840.5 c 128,-1,5
 373 823 373 823 343.5 791.5 c 128,-1,6
 314 760 314 760 275 698 c 1,7,-1
 275 262 l 1,8,9
 338 201 338 201 366 182 c 0,10,11
 418 148 418 148 475 148 c 0,12,13
 755 148 755 148 755 527 c 0,0,1
119 739 m 1,14,-1
 119 1117 l 2,15,16
 119 1222 119 1222 100 1296 c 1,17,-1
 264 1316 l 1,18,19
 264 1315 264 1315 266 1303.5 c 128,-1,20
 268 1292 268 1292 270 1280 c 128,-1,21
 272 1268 272 1268 273.5 1252.5 c 128,-1,22
 275 1237 275 1237 275 1225 c 2,23,-1
 275 922 l 1,24,25
 377 1013 377 1013 530 1013 c 0,26,27
 726 1013 726 1013 819 886.5 c 128,-1,28
 912 760 912 760 912 546 c 0,29,30
 912 -7 912 -7 461 -7 c 0,31,32
 443 -7 443 -7 426 -5.5 c 128,-1,33
 409 -4 409 -4 397 -2 c 128,-1,34
 385 0 385 0 370.5 5 c 128,-1,35
 356 10 356 10 349 12.5 c 128,-1,36
 342 15 342 15 328.5 22.5 c 128,-1,37
 315 30 315 30 310.5 32.5 c 128,-1,38
 306 35 306 35 292 44.5 c 128,-1,39
 278 54 278 54 275 56 c 1,40,-1
 275 -151 l 2,41,42
 275 -242 275 -242 291 -397 c 1,43,-1
 132 -406 l 1,44,45
 118 -292 118 -292 118 -146 c 2,46,-1
 119 739 l 1,14,-1
EndSplineSet
EndChar

StartChar: Aogonek
Encoding: 260 260 198
Width: 1060
GlyphClass: 1
Flags: W
LayerCount: 2
Fore
SplineSet
434 1301 m 1,0,-1
 605 1301 l 1,1,-1
 983 172 l 2,2,3
 1011 77 1011 77 1014 0 c 1,4,5
 975 -31 975 -31 885.5 -77 c 128,-1,6
 796 -123 796 -123 737.5 -162 c 128,-1,7
 679 -201 679 -201 679 -238 c 0,8,9
 679 -278 679 -278 714 -300 c 128,-1,10
 749 -322 749 -322 800 -322 c 0,11,12
 809 -322 809 -322 818 -321 c 128,-1,13
 827 -320 827 -320 836.5 -317.5 c 128,-1,14
 846 -315 846 -315 852.5 -313 c 128,-1,15
 859 -311 859 -311 868 -306 c 128,-1,16
 877 -301 877 -301 881.5 -299 c 128,-1,17
 886 -297 886 -297 895.5 -290.5 c 128,-1,18
 905 -284 905 -284 907 -282.5 c 128,-1,19
 909 -281 909 -281 918.5 -273.5 c 128,-1,20
 928 -266 928 -266 929 -266 c 2,21,-1
 1007 -373 l 1,22,23
 972 -411 972 -411 912.5 -438.5 c 128,-1,24
 853 -466 853 -466 796 -466 c 0,25,26
 660 -466 660 -466 592 -405 c 128,-1,27
 524 -344 524 -344 524 -238 c 0,28,29
 524 -177 524 -177 567.5 -128 c 128,-1,30
 611 -79 611 -79 664 -54.5 c 128,-1,31
 717 -30 717 -30 773.5 -3.5 c 128,-1,32
 830 23 830 23 846 40 c 1,33,34
 839 92 839 92 830 122 c 2,35,-1
 760 332 l 1,36,37
 750 332 750 332 711 331 c 128,-1,38
 672 330 672 330 655.5 329.5 c 128,-1,39
 639 329 639 329 600.5 328 c 128,-1,40
 562 327 562 327 540.5 326 c 128,-1,41
 519 325 519 325 484.5 323.5 c 128,-1,42
 450 322 450 322 426.5 319.5 c 128,-1,43
 403 317 403 317 376 314.5 c 128,-1,44
 349 312 349 312 327 308 c 128,-1,45
 305 304 305 304 287 300 c 1,46,-1
 228 121 l 2,47,48
 204 51 204 51 204 0 c 1,49,-1
 42 0 l 1,50,51
 43 21 43 21 53.5 73.5 c 128,-1,52
 64 126 64 126 74 159 c 2,53,-1
 434 1301 l 1,0,-1
718 495 m 1,54,-1
 524 1082 l 1,55,-1
 338 475 l 1,56,57
 382 485 382 485 537 492 c 1,58,-1
 718 495 l 1,54,-1
EndSplineSet
EndChar

StartChar: aogonek
Encoding: 261 261 199
Width: 1060
GlyphClass: 1
Flags: W
LayerCount: 2
Fore
SplineSet
948 81 m 1,0,1
 874 18 874 18 795.5 -34.5 c 128,-1,2
 717 -87 717 -87 674.5 -109.5 c 128,-1,3
 632 -132 632 -132 604 -158.5 c 128,-1,4
 576 -185 576 -185 576 -216 c 0,5,6
 576 -256 576 -256 610.5 -277.5 c 128,-1,7
 645 -299 645 -299 696 -299 c 0,8,9
 723 -299 723 -299 750.5 -288 c 128,-1,10
 778 -277 778 -277 789 -269.5 c 128,-1,11
 800 -262 800 -262 825 -244 c 1,12,-1
 903 -351 l 1,13,14
 868 -389 868 -389 808.5 -416.5 c 128,-1,15
 749 -444 749 -444 692 -444 c 0,16,17
 556 -444 556 -444 488.5 -383 c 128,-1,18
 421 -322 421 -322 421 -216 c 0,19,20
 421 -174 421 -174 440.5 -139.5 c 128,-1,21
 460 -105 460 -105 498 -76 c 128,-1,22
 536 -47 536 -47 574.5 -24.5 c 128,-1,23
 613 -2 613 -2 670 29.5 c 128,-1,24
 727 61 727 61 764 86 c 1,25,26
 737 127 737 127 732 156 c 1,27,28
 692 117 692 117 668 97 c 128,-1,29
 644 77 644 77 599 48.5 c 128,-1,30
 554 20 554 20 501 7 c 128,-1,31
 448 -6 448 -6 383 -6 c 0,32,33
 256 -6 256 -6 167 84.5 c 128,-1,34
 78 175 78 175 78 301 c 0,35,36
 78 360 78 360 101 421.5 c 128,-1,37
 124 483 124 483 167 527 c 0,38,39
 234 595 234 595 309 621.5 c 128,-1,40
 384 648 384 648 481 648 c 0,41,42
 612 648 612 648 695 597 c 1,43,44
 695 743 695 743 642.5 810 c 128,-1,45
 590 877 590 877 476 877 c 0,46,47
 375 877 375 877 320 836.5 c 128,-1,48
 265 796 265 796 203 685 c 1,49,-1
 73 767 l 1,50,51
 144 902 144 902 241 964 c 128,-1,52
 338 1026 338 1026 474 1028 c 0,53,54
 642 1028 642 1028 745.5 925.5 c 128,-1,55
 849 823 849 823 849 657 c 2,56,-1
 853 318 l 2,57,58
 853 195 853 195 866 173 c 0,59,60
 876 156 876 156 902 126.5 c 128,-1,61
 928 97 928 97 948 81 c 1,0,1
234 311 m 0,62,63
 234 233 234 233 273.5 189.5 c 128,-1,64
 313 146 313 146 383 146 c 0,65,66
 434 146 434 146 482.5 163.5 c 128,-1,67
 531 181 531 181 563.5 203.5 c 128,-1,68
 596 226 596 226 626.5 258 c 128,-1,69
 657 290 657 290 670.5 308 c 128,-1,70
 684 326 684 326 696 345 c 1,71,-1
 696 440 l 1,72,73
 592 504 592 504 489 504 c 0,74,75
 383 504 383 504 308.5 450.5 c 128,-1,76
 234 397 234 397 234 311 c 0,62,63
EndSplineSet
EndChar

StartChar: cdotaccent
Encoding: 267 267 205
Width: 1060
GlyphClass: 1
Flags: W
LayerCount: 2
Fore
SplineSet
405 1403 m 1,0,-1
 640 1403 l 1,1,-1
 640 1178 l 1,2,-1
 405 1178 l 1,3,-1
 405 1403 l 1,0,-1
230 527 m 0,4,5
 230 451 230 451 242.5 390 c 128,-1,6
 255 329 255 329 273 290 c 128,-1,7
 291 251 291 251 320.5 223.5 c 128,-1,8
 350 196 350 196 375.5 182 c 128,-1,9
 401 168 401 168 437 160.5 c 128,-1,10
 473 153 473 153 494.5 151.5 c 128,-1,11
 516 150 516 150 547 150 c 2,12,-1
 560 150 l 2,13,14
 669 150 669 150 734 189.5 c 128,-1,15
 799 229 799 229 843 302 c 1,16,-1
 969 211 l 1,17,18
 967 209 967 209 951.5 186.5 c 128,-1,19
 936 164 936 164 922.5 149 c 128,-1,20
 909 134 909 134 884 108 c 128,-1,21
 859 82 859 82 829.5 64.5 c 128,-1,22
 800 47 800 47 761.5 29.5 c 128,-1,23
 723 12 723 12 672 2.5 c 128,-1,24
 621 -7 621 -7 564 -7 c 0,25,26
 465 -7 465 -7 385.5 9 c 128,-1,27
 306 25 306 25 241 73 c 0,28,29
 148 145 148 145 109.5 256.5 c 128,-1,30
 71 368 71 368 71 527 c 0,31,32
 71 663 71 663 103 758.5 c 128,-1,33
 135 854 135 854 200 910.5 c 128,-1,34
 265 967 265 967 353.5 992.5 c 128,-1,35
 442 1018 442 1018 564 1018 c 0,36,37
 702 1018 702 1018 793 948 c 0,38,39
 862 895 862 895 907 789 c 1,40,-1
 753 729 l 1,41,42
 748 747 748 747 743.5 759.5 c 128,-1,43
 739 772 739 772 724 794 c 128,-1,44
 709 816 709 816 689.5 829.5 c 128,-1,45
 670 843 670 843 634 854 c 128,-1,46
 598 865 598 865 553 865 c 0,47,48
 386 865 386 865 308 785 c 128,-1,49
 230 705 230 705 230 527 c 0,4,5
EndSplineSet
EndChar

StartChar: dcaron
Encoding: 271 271 209
Width: 1060
GlyphClass: 1
Flags: W
LayerCount: 2
Fore
SplineSet
184 478 m 0,0,1
 184 315 184 315 232.5 231 c 128,-1,2
 281 147 281 147 398 147 c 0,3,4
 492 147 492 147 540.5 181.5 c 128,-1,5
 589 216 589 216 643 307 c 1,6,-1
 643 744 l 1,7,8
 583 806 583 806 554 825 c 0,9,10
 504 858 504 858 450 858 c 0,11,12
 184 858 184 858 184 478 c 0,0,1
793 267 m 1,13,-1
 793 241 l 2,14,15
 793 130 793 130 810 7 c 1,16,-1
 653 -12 l 1,17,18
 643 64 643 64 643 84 c 1,19,20
 546 -7 546 -7 398 -7 c 0,21,22
 302 -7 302 -7 230 27.5 c 128,-1,23
 158 62 158 62 116 126 c 128,-1,24
 74 190 74 190 53.5 272.5 c 128,-1,25
 33 355 33 355 33 459 c 0,26,27
 33 1013 33 1013 464 1013 c 0,28,29
 484 1013 484 1013 501 1011.5 c 128,-1,30
 518 1010 518 1010 533.5 1005.5 c 128,-1,31
 549 1001 549 1001 559 998 c 128,-1,32
 569 995 569 995 583.5 987 c 128,-1,33
 598 979 598 979 603 976 c 128,-1,34
 608 973 608 973 623.5 962 c 128,-1,35
 639 951 639 951 642 949 c 1,36,-1
 642 1156 l 2,37,38
 642 1244 642 1244 628 1403 c 1,39,-1
 781 1411 l 1,40,41
 794 1292 794 1292 794 1152 c 2,42,-1
 793 267 l 1,13,-1
1070 1363 m 1,43,44
 1049 1300 1049 1300 1013.5 1174.5 c 128,-1,45
 978 1049 978 1049 960 991 c 1,46,-1
 808 1025 l 1,47,48
 829 1191 829 1191 876 1411 c 1,49,-1
 1070 1363 l 1,43,44
EndSplineSet
EndChar

StartChar: Dcroat
Encoding: 272 272 210
Width: 1060
GlyphClass: 1
Flags: W
LayerCount: 2
Fore
SplineSet
76 921 m 1,0,-1
 76 977 l 2,1,2
 76 1190 76 1190 63 1317 c 1,3,4
 205 1331 205 1331 288 1331 c 0,5,6
 489 1331 489 1331 616.5 1268 c 128,-1,7
 744 1205 744 1205 838 1066 c 0,8,9
 901 971 901 971 935 843.5 c 128,-1,10
 969 716 969 716 969 580 c 0,11,12
 969 483 969 483 948 376 c 0,13,14
 914 203 914 203 808 106.5 c 128,-1,15
 702 10 702 10 559 -3 c 0,16,17
 482 -10 482 -10 398 -10 c 0,18,19
 360 -10 360 -10 244 -6.5 c 128,-1,20
 128 -3 128 -3 67 -3 c 1,21,22
 67 30 67 30 70 128 c 0,23,24
 70 144 70 144 71.5 244.5 c 128,-1,25
 73 345 73 345 74.5 495.5 c 128,-1,26
 76 646 76 646 76 773 c 1,27,-1
 4 773 l 1,28,-1
 4 921 l 1,29,-1
 76 921 l 1,0,-1
309 1176 m 2,30,-1
 279 1176 l 2,31,32
 251 1176 251 1176 234 1173 c 1,33,34
 235 1147 235 1147 235 1086 c 0,35,36
 235 1061 235 1061 234.5 1005.5 c 128,-1,37
 234 950 234 950 234 921 c 1,38,-1
 600 921 l 1,39,-1
 601 773 l 1,40,-1
 234 773 l 1,41,42
 232 361 232 361 230 147 c 1,43,44
 318 144 318 144 423 144 c 0,45,46
 494 144 494 144 543 151.5 c 128,-1,47
 592 159 592 159 640.5 180 c 128,-1,48
 689 201 689 201 724 243.5 c 128,-1,49
 759 286 759 286 783 353 c 0,50,51
 810 431 810 431 810 544 c 0,52,53
 810 669 810 669 783.5 785.5 c 128,-1,54
 757 902 757 902 709 973 c 128,-1,55
 661 1044 661 1044 614.5 1085 c 128,-1,56
 568 1126 568 1126 492 1151 c 128,-1,57
 416 1176 416 1176 309 1176 c 2,30,-1
EndSplineSet
EndChar

StartChar: dcroat
Encoding: 273 273 211
Width: 1060
GlyphClass: 1
Flags: W
LayerCount: 2
Fore
SplineSet
877 267 m 1,0,-1
 877 241 l 2,1,2
 877 124 877 124 895 7 c 1,3,-1
 732 -12 l 1,4,5
 722 54 722 54 721 84 c 1,6,7
 619 -7 619 -7 465 -7 c 0,8,9
 269 -7 269 -7 176.5 119 c 128,-1,10
 84 245 84 245 84 459 c 0,11,12
 84 1013 84 1013 534 1013 c 0,13,14
 555 1013 555 1013 572.5 1011.5 c 128,-1,15
 590 1010 590 1010 606.5 1005.5 c 128,-1,16
 623 1001 623 1001 633 998 c 128,-1,17
 643 995 643 995 658.5 986.5 c 128,-1,18
 674 978 674 978 679 975.5 c 128,-1,19
 684 973 684 973 700.5 962 c 128,-1,20
 717 951 717 951 720 949 c 1,21,-1
 720 1118 l 1,22,-1
 400 1118 l 1,23,-1
 400 1270 l 1,24,-1
 716 1270 l 1,25,26
 712 1334 712 1334 705 1403 c 1,27,-1
 864 1411 l 1,28,29
 872 1342 872 1342 875 1270 c 1,30,-1
 970 1270 l 1,31,-1
 970 1118 l 1,32,-1
 878 1118 l 1,33,-1
 877 267 l 1,0,-1
240 478 m 0,34,35
 240 316 240 316 291.5 231.5 c 128,-1,36
 343 147 343 147 465 147 c 0,37,38
 533 147 533 147 578 164.5 c 128,-1,39
 623 182 623 182 652.5 213.5 c 128,-1,40
 682 245 682 245 721 307 c 1,41,-1
 721 744 l 1,42,43
 657 807 657 807 626 826 c 0,44,45
 574 858 574 858 520 858 c 0,46,47
 240 858 240 858 240 478 c 0,34,35
EndSplineSet
EndChar

StartChar: edotaccent
Encoding: 279 279 217
Width: 1060
GlyphClass: 1
Flags: W
LayerCount: 2
Fore
SplineSet
392 1403 m 1,0,-1
 626 1403 l 1,1,-1
 626 1178 l 1,2,-1
 392 1178 l 1,3,-1
 392 1403 l 1,0,-1
236 580 m 1,4,5
 555 582 555 582 764 606 c 1,6,7
 752 726 752 726 682.5 797.5 c 128,-1,8
 613 869 613 869 510 869 c 0,9,10
 387 869 387 869 312 784.5 c 128,-1,11
 237 700 237 700 236 580 c 1,4,5
509 1021 m 0,12,13
 587 1021 587 1021 650.5 999 c 128,-1,14
 714 977 714 977 756 943 c 128,-1,15
 798 909 798 909 830 860.5 c 128,-1,16
 862 812 862 812 879 765.5 c 128,-1,17
 896 719 896 719 906.5 666 c 128,-1,18
 917 613 917 613 920 576 c 128,-1,19
 923 539 923 539 923 503 c 0,20,21
 923 468 923 468 922 460 c 1,22,23
 475 430 475 430 236 427 c 1,24,25
 236 303 236 303 308.5 223 c 128,-1,26
 381 143 381 143 526 143 c 0,27,28
 622 143 622 143 688 183 c 128,-1,29
 754 223 754 223 792 276 c 1,30,-1
 915 167 l 1,31,32
 893 143 893 143 880.5 130 c 128,-1,33
 868 117 868 117 828.5 86.5 c 128,-1,34
 789 56 789 56 751 38.5 c 128,-1,35
 713 21 713 21 651 5.5 c 128,-1,36
 589 -10 589 -10 522 -10 c 0,37,38
 305 -10 305 -10 191.5 132 c 128,-1,39
 78 274 78 274 78 516 c 0,40,41
 78 739 78 739 191 880 c 128,-1,42
 304 1021 304 1021 509 1021 c 0,12,13
EndSplineSet
EndChar

StartChar: Eogonek
Encoding: 280 280 218
Width: 1060
GlyphClass: 1
Flags: W
LayerCount: 2
Fore
SplineSet
102 1293 m 1,0,1
 158 1297 158 1297 306 1297 c 2,2,3
 306 1297 306 1297 404 1297 c 2,4,-1
 514 1297 l 2,5,6
 598 1297 598 1297 721.5 1295.5 c 128,-1,7
 845 1294 845 1294 873 1294 c 2,8,-1
 889 1294 l 1,9,-1
 889 1144 l 1,10,-1
 260 1144 l 1,11,-1
 260 816 l 1,12,-1
 698 816 l 1,13,-1
 698 666 l 1,14,-1
 260 666 l 1,15,-1
 260 636 l 2,16,17
 260 519 260 519 258.5 344.5 c 128,-1,18
 257 170 257 170 257 147 c 1,19,-1
 782 149 l 2,20,21
 807 149 807 149 836 155.5 c 128,-1,22
 865 162 865 162 882 168 c 2,23,-1
 899 175 l 1,24,-1
 943 27 l 1,25,26
 832 -6 832 -6 728.5 -89.5 c 128,-1,27
 625 -173 625 -173 625 -229 c 0,28,29
 625 -269 625 -269 659.5 -290.5 c 128,-1,30
 694 -312 694 -312 745 -312 c 0,31,32
 772 -312 772 -312 799.5 -301 c 128,-1,33
 827 -290 827 -290 838 -282.5 c 128,-1,34
 849 -275 849 -275 874 -257 c 1,35,-1
 952 -364 l 1,36,37
 917 -402 917 -402 857.5 -429.5 c 128,-1,38
 798 -457 798 -457 741 -457 c 0,39,40
 605 -457 605 -457 537.5 -396 c 128,-1,41
 470 -335 470 -335 470 -229 c 0,42,43
 470 -117 470 -117 621 -3 c 1,44,-1
 102 -3 l 1,45,-1
 102 1293 l 1,0,1
EndSplineSet
EndChar

StartChar: eogonek
Encoding: 281 281 219
Width: 1060
GlyphClass: 1
Flags: W
LayerCount: 2
Fore
SplineSet
236 580 m 1,0,1
 336 581 336 581 498.5 590 c 128,-1,2
 661 599 661 599 764 611 c 1,3,4
 760 726 760 726 687 797.5 c 128,-1,5
 614 869 614 869 510 869 c 0,6,7
 387 869 387 869 312 784.5 c 128,-1,8
 237 700 237 700 236 580 c 1,0,1
509 1021 m 0,9,10
 587 1021 587 1021 650.5 999 c 128,-1,11
 714 977 714 977 756 943 c 128,-1,12
 798 909 798 909 830 860.5 c 128,-1,13
 862 812 862 812 879 765.5 c 128,-1,14
 896 719 896 719 906.5 666 c 128,-1,15
 917 613 917 613 920 576 c 128,-1,16
 923 539 923 539 923 503 c 0,17,18
 923 468 923 468 922 460 c 1,19,20
 475 430 475 430 236 427 c 1,21,22
 236 304 236 304 304.5 223.5 c 128,-1,23
 373 143 373 143 505 143 c 0,24,25
 610 143 610 143 680.5 187 c 128,-1,26
 751 231 751 231 785 286 c 1,27,-1
 906 183 l 1,28,29
 900 173 900 173 884 153 c 0,30,31
 828 77 828 77 757.5 10.5 c 128,-1,32
 687 -56 687 -56 639 -90 c 128,-1,33
 591 -124 591 -124 557.5 -157.5 c 128,-1,34
 524 -191 524 -191 524 -216 c 0,35,36
 524 -256 524 -256 558.5 -277.5 c 128,-1,37
 593 -299 593 -299 644 -299 c 0,38,39
 671 -299 671 -299 698.5 -288 c 128,-1,40
 726 -277 726 -277 737 -269.5 c 128,-1,41
 748 -262 748 -262 773 -244 c 1,42,-1
 851 -351 l 1,43,44
 816 -389 816 -389 756.5 -416.5 c 128,-1,45
 697 -444 697 -444 640 -444 c 0,46,47
 504 -444 504 -444 436.5 -383 c 128,-1,48
 369 -322 369 -322 369 -216 c 0,49,50
 369 -192 369 -192 375.5 -171 c 128,-1,51
 382 -150 382 -150 390 -135.5 c 128,-1,52
 398 -121 398 -121 416.5 -103.5 c 128,-1,53
 435 -86 435 -86 448.5 -75.5 c 128,-1,54
 462 -65 462 -65 490.5 -44 c 128,-1,55
 519 -23 519 -23 537 -9 c 1,56,57
 525 -10 525 -10 501 -10 c 0,58,59
 293 -10 293 -10 185.5 131.5 c 128,-1,60
 78 273 78 273 78 516 c 0,61,62
 78 739 78 739 191 880 c 128,-1,63
 304 1021 304 1021 509 1021 c 0,9,10
EndSplineSet
EndChar

StartChar: gdotaccent
Encoding: 289 289 227
Width: 1060
GlyphClass: 1
Flags: W
LayerCount: 2
Fore
SplineSet
379 1403 m 1,0,-1
 614 1403 l 1,1,-1
 614 1178 l 1,2,-1
 379 1178 l 1,3,-1
 379 1403 l 1,0,-1
237 -76 m 0,4,5
 237 -166 237 -166 287.5 -199 c 128,-1,6
 338 -232 338 -232 444 -232 c 2,7,-1
 549 -232 l 2,8,9
 596 -232 596 -232 637.5 -222.5 c 128,-1,10
 679 -213 679 -213 718 -191 c 128,-1,11
 757 -169 757 -169 780 -126.5 c 128,-1,12
 803 -84 803 -84 803 -25 c 0,13,14
 803 71 803 71 533 71 c 0,15,16
 467 71 467 71 321 69 c 1,17,18
 281 53 281 53 259 13 c 128,-1,19
 237 -27 237 -27 237 -76 c 0,4,5
476 557 m 0,20,21
 576 557 576 557 640 596 c 128,-1,22
 704 635 704 635 704 706 c 0,23,24
 704 798 704 798 649.5 836 c 128,-1,25
 595 874 595 874 492 874 c 0,26,27
 390 874 390 874 321.5 826 c 128,-1,28
 253 778 253 778 253 709 c 0,29,30
 253 557 253 557 476 557 c 0,20,21
95 699 m 0,31,32
 95 855 95 855 200.5 940.5 c 128,-1,33
 306 1026 306 1026 492 1026 c 0,34,35
 648 1026 648 1026 746 966 c 1,36,37
 786 1004 786 1004 832.5 1016 c 128,-1,38
 879 1028 879 1028 965 1028 c 1,39,-1
 965 864 l 1,40,41
 935 869 935 869 921 869 c 0,42,43
 852 869 852 869 830 847 c 1,44,45
 860 793 860 793 860 710 c 0,46,47
 860 570 860 570 756 488.5 c 128,-1,48
 652 407 652 407 481 407 c 0,49,50
 365 407 365 407 282 439 c 1,51,52
 239 389 239 389 239 341 c 0,53,54
 239 223 239 223 419 223 c 0,55,56
 432 223 432 223 509 224 c 128,-1,57
 586 225 586 225 600 225 c 0,58,59
 675 225 675 225 736.5 212.5 c 128,-1,60
 798 200 798 200 850 172.5 c 128,-1,61
 902 145 902 145 931.5 95 c 128,-1,62
 961 45 961 45 961 -24 c 0,63,64
 961 -210 961 -210 848.5 -299 c 128,-1,65
 736 -388 736 -388 543 -388 c 2,66,-1
 440 -388 l 2,67,68
 275 -388 275 -388 177.5 -311 c 128,-1,69
 80 -234 80 -234 80 -82 c 0,70,71
 80 61 80 61 167 137 c 1,72,73
 82 200 82 200 82 328 c 0,74,75
 82 442 82 442 156 527 c 1,76,77
 95 595 95 595 95 699 c 0,31,32
EndSplineSet
EndChar

StartChar: Hbar
Encoding: 294 294 232
Width: 1060
GlyphClass: 1
Flags: W
LayerCount: 2
Fore
SplineSet
60 1145 m 1,0,-1
 60 1294 l 1,1,-1
 220 1296 l 1,2,-1
 220 1145 l 1,3,-1
 753 1145 l 1,4,5
 753 1145 753 1145 753 1291 c 1,6,-1
 912 1291 l 1,7,-1
 912 1145 l 1,8,-1
 997 1145 l 1,9,-1
 997 995 l 1,10,-1
 912 995 l 1,11,-1
 912 0 l 1,12,-1
 754 0 l 1,13,-1
 754 625 l 1,14,15
 754 625 754 625 625 625 c 0,16,17
 351 625 351 625 219 597 c 1,18,19
 219 405 219 405 220 237.5 c 128,-1,20
 221 70 221 70 221 0 c 1,21,-1
 60 0 l 1,22,-1
 60 995 l 1,23,-1
 0 995 l 1,24,-1
 0 1145 l 1,25,-1
 60 1145 l 1,0,-1
754 995 m 1,26,-1
 219 995 l 1,27,-1
 219 749 l 1,28,29
 342 777 342 777 526 777 c 2,30,-1
 754 777 l 1,31,-1
 754 995 l 1,26,-1
EndSplineSet
EndChar

StartChar: hbar
Encoding: 295 295 233
Width: 1060
GlyphClass: 1
Flags: W
LayerCount: 2
Fore
SplineSet
718 576 m 2,0,1
 718 666 718 666 709.5 718 c 128,-1,2
 701 770 701 770 674.5 806 c 128,-1,3
 648 842 648 842 603 854.5 c 128,-1,4
 558 867 558 867 481 867 c 0,5,6
 409 867 409 867 341 824 c 128,-1,7
 273 781 273 781 248 731 c 1,8,-1
 248 198 l 2,9,10
 248 92 248 92 238 0 c 1,11,-1
 80 8 l 1,12,13
 91 107 91 107 91 204 c 0,14,15
 91 360 91 360 90.5 679 c 128,-1,16
 90 998 90 998 90 1116 c 1,17,-1
 0 1116 l 1,18,-1
 0 1266 l 1,19,-1
 90 1266 l 1,20,-1
 90 1401 l 1,21,-1
 248 1402 l 1,22,-1
 248 1266 l 1,23,-1
 615 1266 l 1,24,-1
 615 1116 l 1,25,-1
 249 1116 l 1,26,-1
 249 940 l 1,27,28
 309 978 309 978 364 999 c 128,-1,29
 419 1020 419 1020 488 1020 c 0,30,31
 598 1020 598 1020 671 1000 c 128,-1,32
 744 980 744 980 798 915 c 0,33,34
 847 857 847 857 861 798 c 128,-1,35
 875 739 875 739 875 642 c 2,36,-1
 875 576 l 2,37,38
 875 488 875 488 874.5 380 c 128,-1,39
 874 272 874 272 874 223 c 0,40,41
 874 183 874 183 893.5 157 c 128,-1,42
 913 131 913 131 960 100 c 1,43,-1
 872 -17 l 1,44,45
 837 3 837 3 813.5 20 c 128,-1,46
 790 37 790 37 766 63.5 c 128,-1,47
 742 90 742 90 730 126 c 128,-1,48
 718 162 718 162 718 208 c 2,49,-1
 718 576 l 2,0,1
EndSplineSet
EndChar

StartChar: Iogonek
Encoding: 302 302 240
Width: 1060
GlyphClass: 1
Flags: W
LayerCount: 2
Fore
SplineSet
132 1298 m 1,0,1
 288 1302 288 1302 485 1302 c 0,2,3
 608 1302 608 1302 853 1299 c 1,4,-1
 853 1147 l 1,5,6
 788 1147 788 1147 707.5 1149.5 c 128,-1,7
 627 1152 627 1152 582 1152 c 1,8,-1
 582 152 l 1,9,10
 604 152 604 152 641.5 152.5 c 128,-1,11
 679 153 679 153 705 153 c 0,12,13
 780 153 780 153 849 149 c 1,14,-1
 849 -1 l 1,15,16
 807 -28 807 -28 748 -62 c 128,-1,17
 689 -96 689 -96 657 -115 c 128,-1,18
 625 -134 625 -134 591.5 -158 c 128,-1,19
 558 -182 558 -182 543.5 -202.5 c 128,-1,20
 529 -223 529 -223 529 -244 c 0,21,22
 529 -284 529 -284 563.5 -305.5 c 128,-1,23
 598 -327 598 -327 649 -327 c 0,24,25
 676 -327 676 -327 703.5 -316 c 128,-1,26
 731 -305 731 -305 742 -297.5 c 128,-1,27
 753 -290 753 -290 778 -272 c 1,28,-1
 856 -379 l 1,29,30
 821 -417 821 -417 761.5 -444.5 c 128,-1,31
 702 -472 702 -472 645 -472 c 0,32,33
 509 -472 509 -472 441.5 -411 c 128,-1,34
 374 -350 374 -350 374 -244 c 0,35,36
 374 -210 374 -210 388 -179 c 128,-1,37
 402 -148 402 -148 419.5 -127 c 128,-1,38
 437 -106 437 -106 470.5 -83 c 128,-1,39
 504 -60 504 -60 524 -49.5 c 128,-1,40
 544 -39 544 -39 583.5 -19.5 c 128,-1,41
 623 0 623 0 634 5 c 1,42,43
 613 5 613 5 563.5 4.5 c 128,-1,44
 514 4 514 4 484 4 c 0,45,46
 457 4 457 4 339.5 0.5 c 128,-1,47
 222 -3 222 -3 134 -3 c 1,48,-1
 134 146 l 1,49,50
 240 151 240 151 347 151 c 2,51,-1
 422 151 l 1,52,-1
 422 1151 l 1,53,54
 203 1148 203 1148 138 1144 c 1,55,-1
 132 1298 l 1,0,1
EndSplineSet
EndChar

StartChar: iogonek
Encoding: 303 303 241
Width: 1060
GlyphClass: 1
Flags: W
LayerCount: 2
Fore
SplineSet
314 1403 m 1,0,-1
 549 1400 l 1,1,-1
 549 1175 l 1,2,-1
 314 1178 l 1,3,-1
 314 1403 l 1,0,-1
417 1013 m 2,4,-1
 537 1013 l 1,5,6
 537 1013 537 1013 538 210 c 0,7,8
 541 153 541 153 569.5 138.5 c 128,-1,9
 598 124 598 124 675 124 c 0,10,11
 753 124 753 124 833 142.5 c 128,-1,12
 913 161 913 161 961 197 c 1,13,-1
 1029 83 l 1,14,15
 954 18 954 18 874.5 -36.5 c 128,-1,16
 795 -91 795 -91 755.5 -114.5 c 128,-1,17
 716 -138 716 -138 689.5 -169 c 128,-1,18
 663 -200 663 -200 663 -241 c 0,19,20
 663 -281 663 -281 697.5 -302.5 c 128,-1,21
 732 -324 732 -324 783 -324 c 0,22,23
 810 -324 810 -324 837.5 -313 c 128,-1,24
 865 -302 865 -302 876 -294.5 c 128,-1,25
 887 -287 887 -287 912 -269 c 1,26,-1
 990 -376 l 1,27,28
 955 -414 955 -414 895.5 -441.5 c 128,-1,29
 836 -469 836 -469 779 -469 c 0,30,31
 643 -469 643 -469 575.5 -408 c 128,-1,32
 508 -347 508 -347 508 -241 c 0,33,34
 508 -203 508 -203 520 -173.5 c 128,-1,35
 532 -144 532 -144 562.5 -115 c 128,-1,36
 593 -86 593 -86 617 -68.5 c 128,-1,37
 641 -51 641 -51 693 -18 c 1,38,-1
 676 -18 l 2,39,40
 541 -18 541 -18 471 20 c 0,41,42
 378 71 378 71 378 206 c 2,43,-1
 378 857 l 1,44,45
 241 857 241 857 120 829 c 1,46,-1
 91 971 l 1,47,48
 272 1013 272 1013 417 1013 c 2,4,-1
EndSplineSet
EndChar

StartChar: dotlessi
Encoding: 305 305 243
Width: 1060
GlyphClass: 1
Flags: W
LayerCount: 2
Fore
SplineSet
417 1013 m 2,0,-1
 533 1013 l 1,1,2
 533 1013 533 1013 534 210 c 0,3,4
 537 153 537 153 567 138.5 c 128,-1,5
 597 124 597 124 675 124 c 128,-1,6
 753 124 753 124 833 142.5 c 128,-1,7
 913 161 913 161 961 197 c 1,8,-1
 1029 83 l 1,9,10
 968 33 968 33 872 7.5 c 128,-1,11
 776 -18 776 -18 676 -18 c 0,12,13
 541 -18 541 -18 471 20 c 0,14,15
 378 71 378 71 378 206 c 2,16,-1
 378 857 l 1,17,18
 241 857 241 857 120 829 c 1,19,-1
 91 971 l 1,20,21
 272 1013 272 1013 417 1013 c 2,0,-1
EndSplineSet
EndChar

StartChar: IJ
Encoding: 306 306 244
Width: 1060
GlyphClass: 1
Flags: W
LayerCount: 2
Fore
SplineSet
381 1151 m 1,0,1
 343 1152 343 1152 282 1152 c 1,2,-1
 282 152 l 1,3,-1
 362 150 l 1,4,-1
 362 0 l 1,5,6
 332 1 332 1 257 1 c 0,7,8
 216 1 216 1 144 0.5 c 128,-1,9
 72 0 72 0 51 0 c 1,10,-1
 51 146 l 1,11,12
 84 152 84 152 105 152 c 2,13,-1
 122 152 l 1,14,-1
 122 1152 l 1,15,16
 98 1152 98 1152 87 1151.5 c 128,-1,17
 76 1151 76 1151 73 1150 c 128,-1,18
 70 1149 70 1149 65 1147.5 c 128,-1,19
 60 1146 60 1146 52 1144 c 1,20,-1
 50 1298 l 1,21,22
 90 1302 90 1302 186 1302 c 2,23,-1
 316 1302 l 1,24,-1
 383 1302 l 1,25,-1
 381 1151 l 1,0,1
514 1296 m 1,26,27
 540 1296 540 1296 583 1295.5 c 128,-1,28
 626 1295 626 1295 644 1295 c 0,29,30
 696 1295 696 1295 809 1296 c 128,-1,31
 922 1297 922 1297 1010 1297 c 1,32,-1
 1008 1144 l 1,33,34
 984 1144 984 1144 965.5 1144.5 c 128,-1,35
 947 1145 947 1145 922 1145 c 1,36,37
 944 900 944 900 944 642 c 0,38,39
 944 553 944 553 942.5 493.5 c 128,-1,40
 941 434 941 434 935 359.5 c 128,-1,41
 929 285 929 285 917.5 236.5 c 128,-1,42
 906 188 906 188 885.5 137.5 c 128,-1,43
 865 87 865 87 836 58 c 128,-1,44
 807 29 807 29 763.5 10.5 c 128,-1,45
 720 -8 720 -8 664 -8 c 0,46,47
 595 -8 595 -8 543.5 28.5 c 128,-1,48
 492 65 492 65 464 129 c 128,-1,49
 436 193 436 193 422.5 266.5 c 128,-1,50
 409 340 409 340 408 426 c 1,51,-1
 568 425 l 1,52,53
 573 304 573 304 597 223 c 128,-1,54
 621 142 621 142 662 142 c 0,55,56
 690 142 690 142 710.5 151.5 c 128,-1,57
 731 161 731 161 745 182 c 128,-1,58
 759 203 759 203 767.5 228.5 c 128,-1,59
 776 254 776 254 780 296.5 c 128,-1,60
 784 339 784 339 785.5 380 c 128,-1,61
 787 421 787 421 787 482 c 0,62,63
 787 508 787 508 786.5 566.5 c 128,-1,64
 786 625 786 625 786 659 c 0,65,66
 786 824 786 824 758 1144 c 1,67,68
 628 1144 628 1144 512 1146 c 1,69,-1
 514 1296 l 1,26,27
EndSplineSet
EndChar

StartChar: ij
Encoding: 307 307 245
Width: 1060
GlyphClass: 1
Flags: W
LayerCount: 2
Fore
SplineSet
811 -114 m 2,0,-1
 810 864 l 1,1,2
 810 864 810 864 794 864 c 0,3,4
 678 864 678 864 554 835 c 1,5,-1
 526 977 l 1,6,7
 707 1019 707 1019 850 1019 c 2,8,-1
 967 1019 l 1,9,-1
 967 -118 l 2,10,11
 967 -164 967 -164 959 -202 c 128,-1,12
 951 -240 951 -240 930 -275 c 128,-1,13
 909 -310 909 -310 876 -334 c 128,-1,14
 843 -358 843 -358 790 -372.5 c 128,-1,15
 737 -387 737 -387 668 -387 c 0,16,17
 553 -387 553 -387 453.5 -365.5 c 128,-1,18
 354 -344 354 -344 209 -269 c 1,19,-1
 267 -120 l 1,20,21
 429 -231 429 -231 647 -231 c 2,22,-1
 664 -231 l 2,23,24
 703 -231 703 -231 733.5 -218 c 128,-1,25
 764 -205 764 -205 779.5 -185 c 128,-1,26
 795 -165 795 -165 802.5 -147 c 128,-1,27
 810 -129 810 -129 811 -114 c 2,0,-1
287 1020 m 2,28,-1
 407 1020 l 1,29,-1
 408 217 l 2,30,31
 408 131 408 131 498 131 c 0,32,33
 572 131 572 131 610 192 c 1,34,-1
 693 90 l 1,35,36
 661 41 661 41 600.5 17.5 c 128,-1,37
 540 -6 540 -6 481 -6 c 0,38,39
 357 -6 357 -6 302.5 55 c 128,-1,40
 248 116 248 116 248 213 c 2,41,-1
 248 864 l 1,42,-1
 236 864 l 2,43,44
 168 864 168 864 77 843 c 1,45,-1
 48 985 l 1,46,47
 62 988 62 988 90.5 995 c 128,-1,48
 119 1002 119 1002 127 1003.5 c 128,-1,49
 135 1005 135 1005 155.5 1009.5 c 128,-1,50
 176 1014 176 1014 185.5 1015 c 128,-1,51
 195 1016 195 1016 213 1017.5 c 128,-1,52
 231 1019 231 1019 248 1019.5 c 128,-1,53
 265 1020 265 1020 287 1020 c 2,28,-1
744 1404 m 1,54,-1
 978 1401 l 1,55,-1
 978 1176 l 1,56,-1
 744 1179 l 1,57,-1
 744 1404 l 1,54,-1
184 1410 m 1,58,-1
 419 1407 l 1,59,-1
 419 1182 l 1,60,-1
 184 1185 l 1,61,-1
 184 1410 l 1,58,-1
EndSplineSet
EndChar

StartChar: Lcaron
Encoding: 317 317 255
Width: 1060
GlyphClass: 1
Flags: W
LayerCount: 2
Fore
SplineSet
894 1241 m 1,0,1
 872 1177 872 1177 835.5 1046.5 c 128,-1,2
 799 916 799 916 785 869 c 1,3,-1
 633 903 l 1,4,5
 652 1055 652 1055 700 1289 c 1,6,-1
 894 1241 l 1,0,1
141 -3 m 1,7,-1
 141 1298 l 1,8,-1
 302 1298 l 1,9,-1
 302 151 l 1,10,-1
 823 151 l 2,11,12
 889 154 889 154 944 173 c 1,13,-1
 985 27 l 1,14,15
 897 -3 897 -3 825 -3 c 2,16,-1
 141 -3 l 1,7,-1
EndSplineSet
EndChar

StartChar: lcaron
Encoding: 318 318 256
Width: 1060
GlyphClass: 1
Flags: W
LayerCount: 2
Fore
SplineSet
1027 1392 m 1,0,1
 1010 1343 1010 1343 993.5 1286 c 128,-1,2
 977 1229 977 1229 955.5 1152 c 128,-1,3
 934 1075 934 1075 917 1020 c 1,4,-1
 765 1054 l 1,5,6
 783 1193 783 1193 833 1440 c 1,7,-1
 1027 1392 l 1,0,1
415 1423 m 2,8,-1
 531 1423 l 1,9,-1
 534 212 l 2,10,11
 537 155 537 155 567 140.5 c 128,-1,12
 597 126 597 126 675 126 c 128,-1,13
 753 126 753 126 833 144.5 c 128,-1,14
 913 163 913 163 961 199 c 1,15,-1
 1029 85 l 1,16,17
 968 35 968 35 872 9.5 c 128,-1,18
 776 -16 776 -16 676 -16 c 0,19,20
 541 -16 541 -16 471 22 c 0,21,22
 378 73 378 73 378 208 c 2,23,-1
 375 1268 l 1,24,25
 368 1268 368 1268 343 1268.5 c 128,-1,26
 318 1269 318 1269 301 1269 c 0,27,28
 185 1269 185 1269 111 1252 c 1,29,-1
 83 1395 l 1,30,31
 204 1423 204 1423 415 1423 c 2,8,-1
EndSplineSet
EndChar

StartChar: Lslash
Encoding: 321 321 259
Width: 1060
GlyphClass: 1
Flags: W
LayerCount: 2
Fore
SplineSet
267 678 m 1,0,-1
 120 622 l 1,1,-1
 70 752 l 1,2,-1
 267 828 l 1,3,-1
 267 1298 l 1,4,-1
 428 1298 l 1,5,-1
 428 890 l 1,6,-1
 681 988 l 1,7,-1
 731 857 l 1,8,-1
 428 740 l 1,9,-1
 428 151 l 1,10,-1
 823 151 l 2,11,12
 889 154 889 154 944 173 c 1,13,-1
 985 27 l 1,14,15
 897 -3 897 -3 825 -3 c 2,16,-1
 267 -3 l 1,17,-1
 267 678 l 1,0,-1
EndSplineSet
EndChar

StartChar: lslash
Encoding: 322 322 260
Width: 1060
GlyphClass: 1
Flags: W
LayerCount: 2
Fore
SplineSet
396 1428 m 2,0,-1
 516 1428 l 1,1,-1
 517 926 l 1,2,-1
 772 1024 l 1,3,-1
 822 893 l 1,4,-1
 517 776 l 1,5,-1
 519 212 l 2,6,7
 522 155 522 155 550.5 140.5 c 128,-1,8
 579 126 579 126 656 126 c 0,9,10
 734 126 734 126 814 144.5 c 128,-1,11
 894 163 894 163 942 199 c 1,12,-1
 1010 85 l 1,13,14
 949 35 949 35 853 9.5 c 128,-1,15
 757 -16 757 -16 657 -16 c 0,16,17
 522 -16 522 -16 452 22 c 0,18,19
 422 39 422 39 402 62 c 128,-1,20
 382 85 382 85 373.5 111.5 c 128,-1,21
 365 138 365 138 362 159.5 c 128,-1,22
 359 181 359 181 359 208 c 2,23,-1
 357 715 l 1,24,-1
 211 658 l 1,25,-1
 161 789 l 1,26,-1
 357 864 l 1,27,-1
 356 1273 l 1,28,29
 224 1273 224 1273 99 1244 c 1,30,-1
 71 1387 l 1,31,32
 248 1428 248 1428 396 1428 c 2,0,-1
EndSplineSet
EndChar

StartChar: Eng
Encoding: 330 330 267
Width: 1060
GlyphClass: 1
Flags: W
LayerCount: 2
Fore
SplineSet
540 1296 m 0,0,1
 625 1296 625 1296 689.5 1273.5 c 128,-1,2
 754 1251 754 1251 795 1212.5 c 128,-1,3
 836 1174 836 1174 862 1117 c 128,-1,4
 888 1060 888 1060 898 998 c 128,-1,5
 908 936 908 936 908 860 c 0,6,7
 908 745 908 745 910 514 c 128,-1,8
 912 283 912 283 912 165 c 2,9,-1
 912 131 l 2,10,11
 912 70 912 70 908 22.5 c 128,-1,12
 904 -25 904 -25 891.5 -78 c 128,-1,13
 879 -131 879 -131 858 -170 c 128,-1,14
 837 -209 837 -209 800 -246.5 c 128,-1,15
 763 -284 763 -284 713 -307.5 c 128,-1,16
 663 -331 663 -331 590 -345 c 128,-1,17
 517 -359 517 -359 426 -359 c 2,18,-1
 392 -359 l 1,19,-1
 392 -204 l 1,20,21
 465 -203 465 -203 521 -193 c 128,-1,22
 577 -183 577 -183 615.5 -169 c 128,-1,23
 654 -155 654 -155 680.5 -130.5 c 128,-1,24
 707 -106 707 -106 721.5 -83.5 c 128,-1,25
 736 -61 736 -61 744 -26 c 128,-1,26
 752 9 752 9 754 37 c 128,-1,27
 756 65 756 65 756 106 c 2,28,-1
 756 852 l 2,29,30
 756 986 756 986 695 1064.5 c 128,-1,31
 634 1143 634 1143 542 1143 c 0,32,33
 502 1143 502 1143 465.5 1133 c 128,-1,34
 429 1123 429 1123 403 1110.5 c 128,-1,35
 377 1098 377 1098 350.5 1074 c 128,-1,36
 324 1050 324 1050 309.5 1035 c 128,-1,37
 295 1020 295 1020 276 990 c 128,-1,38
 257 960 257 960 252.5 951 c 128,-1,39
 248 942 248 942 234 916 c 1,40,-1
 234 -3 l 1,41,-1
 75 -3 l 1,42,-1
 75 1059 l 2,43,44
 75 1110 75 1110 65.5 1160 c 128,-1,45
 56 1210 56 1210 46 1234 c 2,46,-1
 36 1259 l 1,47,-1
 191 1316 l 1,48,49
 225 1246 225 1246 232 1168 c 1,50,51
 274 1240 274 1240 351 1268 c 128,-1,52
 428 1296 428 1296 540 1296 c 0,0,1
EndSplineSet
EndChar

StartChar: eng
Encoding: 331 331 268
Width: 1060
GlyphClass: 1
Flags: W
LayerCount: 2
Fore
SplineSet
271 927 m 1,0,1
 377 983 377 983 433.5 1002.5 c 128,-1,2
 490 1022 490 1022 567 1022 c 0,3,4
 631 1022 631 1022 695.5 997.5 c 128,-1,5
 760 973 760 973 808 919.5 c 128,-1,6
 856 866 856 866 856 796 c 2,7,-1
 856 211 l 2,8,9
 856 127 856 127 855 83 c 128,-1,10
 854 39 854 39 846 -33 c 128,-1,11
 838 -105 838 -105 822.5 -144 c 128,-1,12
 807 -183 807 -183 776.5 -232.5 c 128,-1,13
 746 -282 746 -282 702 -307 c 128,-1,14
 658 -332 658 -332 590.5 -350 c 128,-1,15
 523 -368 523 -368 436 -368 c 2,16,-1
 432 -368 l 1,17,-1
 429 -212 l 1,18,-1
 432 -212 l 2,19,20
 502 -212 502 -212 548.5 -199 c 128,-1,21
 595 -186 595 -186 625 -161.5 c 128,-1,22
 655 -137 655 -137 670.5 -91 c 128,-1,23
 686 -45 686 -45 691.5 9.5 c 128,-1,24
 697 64 697 64 697 149 c 2,25,-1
 697 765 l 2,26,27
 697 816 697 816 650 844 c 128,-1,28
 603 872 603 872 545 872 c 0,29,30
 527 872 527 872 508 868 c 128,-1,31
 489 864 489 864 462 852.5 c 128,-1,32
 435 841 435 841 414 830.5 c 128,-1,33
 393 820 393 820 348.5 798 c 128,-1,34
 304 776 304 776 272 760 c 1,35,-1
 271 0 l 1,36,-1
 113 -1 l 1,37,-1
 113 705 l 2,38,39
 113 792 113 792 109.5 843.5 c 128,-1,40
 106 895 106 895 101 920 c 128,-1,41
 96 945 96 945 81 1003 c 1,42,-1
 241 1040 l 1,43,44
 262 989 262 989 271 927 c 1,0,1
EndSplineSet
EndChar

StartChar: OE
Encoding: 338 338 275
Width: 1060
GlyphClass: 1
Flags: W
LayerCount: 2
Fore
SplineSet
463 146 m 1,0,-1
 464 1170 l 1,1,2
 400 1170 400 1170 351.5 1153 c 128,-1,3
 303 1136 303 1136 270 1099 c 128,-1,4
 237 1062 237 1062 216 1015 c 128,-1,5
 195 968 195 968 183.5 896.5 c 128,-1,6
 172 825 172 825 168 752 c 128,-1,7
 164 679 164 679 164 578 c 0,8,9
 164 536 164 536 164.5 510.5 c 128,-1,10
 165 485 165 485 166.5 447 c 128,-1,11
 168 409 168 409 171.5 385.5 c 128,-1,12
 175 362 175 362 181 329.5 c 128,-1,13
 187 297 187 297 197 277.5 c 128,-1,14
 207 258 207 258 220.5 234.5 c 128,-1,15
 234 211 234 211 253 197 c 128,-1,16
 272 183 272 183 295.5 170 c 128,-1,17
 319 157 319 157 350 151 c 128,-1,18
 381 145 381 145 418 144 c 0,19,20
 437 144 437 144 463 146 c 1,0,-1
811 153 m 2,21,22
 876 155 876 155 943 179 c 1,23,-1
 981 33 l 1,24,25
 857 -1 857 -1 667 -1 c 0,26,27
 644 -1 644 -1 594 -0.5 c 128,-1,28
 544 0 544 0 515 0 c 1,29,30
 496 -8 496 -8 388 -8 c 0,31,32
 299 -5 299 -5 231.5 30.5 c 128,-1,33
 164 66 164 66 123 121.5 c 128,-1,34
 82 177 82 177 56 256 c 128,-1,35
 30 335 30 335 20.5 417 c 128,-1,36
 11 499 11 499 11 597 c 0,37,38
 11 733 11 733 23.5 841 c 128,-1,39
 36 949 36 949 67 1042.5 c 128,-1,40
 98 1136 98 1136 147 1198 c 128,-1,41
 196 1260 196 1260 270.5 1295 c 128,-1,42
 345 1330 345 1330 444 1330 c 0,43,44
 488 1330 488 1330 524 1323 c 1,45,46
 583 1326 583 1326 709 1326 c 0,47,48
 752 1326 752 1326 836.5 1325.5 c 128,-1,49
 921 1325 921 1325 962 1325 c 1,50,-1
 962 1170 l 1,51,52
 913 1170 913 1170 843.5 1170.5 c 128,-1,53
 774 1171 774 1171 741 1171 c 0,54,55
 667 1171 667 1171 620 1170 c 1,56,-1
 620 835 l 1,57,-1
 895 835 l 1,58,-1
 895 682 l 1,59,-1
 620 682 l 1,60,61
 620 566 620 566 618 371.5 c 128,-1,62
 616 177 616 177 616 153 c 1,63,-1
 811 153 l 2,21,22
EndSplineSet
EndChar

StartChar: oe
Encoding: 339 339 276
Width: 1060
GlyphClass: 1
Flags: W
LayerCount: 2
Fore
SplineSet
970 187 m 1,0,1
 968 179 968 179 962.5 166.5 c 128,-1,2
 957 154 957 154 936 122 c 128,-1,3
 915 90 915 90 888 65 c 128,-1,4
 861 40 861 40 813 20 c 128,-1,5
 765 0 765 0 708 0 c 0,6,7
 579 0 579 0 487 95 c 1,8,9
 416 0 416 0 336 0 c 0,10,11
 300 0 300 0 274.5 4 c 128,-1,12
 249 8 249 8 208.5 29.5 c 128,-1,13
 168 51 168 51 131 91 c 0,14,15
 24 206 24 206 24 459 c 0,16,17
 24 580 24 580 35 635 c 0,18,19
 41 673 41 673 49.5 707 c 128,-1,20
 58 741 58 741 73 788 c 128,-1,21
 88 835 88 835 110.5 872.5 c 128,-1,22
 133 910 133 910 162.5 944.5 c 128,-1,23
 192 979 192 979 234.5 998 c 128,-1,24
 277 1017 277 1017 327 1017 c 0,25,26
 381 1017 381 1017 415.5 1001.5 c 128,-1,27
 450 986 450 986 486 954 c 0,28,29
 498 944 498 944 509 931 c 1,30,31
 563 1018 563 1018 691 1018 c 0,32,33
 763 1018 763 1018 818.5 980.5 c 128,-1,34
 874 943 874 943 906 878 c 128,-1,35
 938 813 938 813 955 736 c 128,-1,36
 972 659 972 659 975 570 c 2,37,-1
 975 486 l 1,38,-1
 907 486 l 1,39,40
 717 480 717 480 588 474 c 1,41,-1
 586 215 l 1,42,43
 647 154 647 154 712 154 c 0,44,45
 738 154 738 154 759 163.5 c 128,-1,46
 780 173 780 173 794.5 193 c 128,-1,47
 809 213 809 213 815 224 c 128,-1,48
 821 235 821 235 831 256 c 1,49,-1
 970 187 l 1,0,1
588 652 m 2,50,-1
 588 631 l 1,51,52
 618 633 618 633 695 635.5 c 128,-1,53
 772 638 772 638 815 642 c 1,54,55
 810 730 810 730 777.5 796 c 128,-1,56
 745 862 745 862 691 862 c 0,57,58
 615 862 615 862 599 805 c 0,59,60
 588 770 588 770 588 652 c 2,50,-1
330 154 m 0,61,62
 368 154 368 154 400.5 197 c 128,-1,63
 433 240 433 240 433 286 c 2,64,-1
 435 754 l 2,65,66
 435 766 435 766 431 781 c 128,-1,67
 427 796 427 796 417 816 c 128,-1,68
 407 836 407 836 383.5 849.5 c 128,-1,69
 360 863 360 863 328 863 c 0,70,71
 260 863 260 863 219 751.5 c 128,-1,72
 178 640 178 640 176 474 c 2,73,-1
 176 456 l 2,74,75
 176 288 176 288 241 191 c 0,76,77
 266 154 266 154 330 154 c 0,61,62
EndSplineSet
EndChar

StartChar: Scedilla
Encoding: 350 350 287
Width: 1060
GlyphClass: 1
Flags: W
LayerCount: 2
Fore
SplineSet
247 723 m 0,0,1
 171 760 171 760 121.5 832.5 c 128,-1,2
 72 905 72 905 72 1009 c 0,3,4
 72 1115 72 1115 128.5 1188.5 c 128,-1,5
 185 1262 185 1262 272.5 1295 c 128,-1,6
 360 1328 360 1328 470 1328 c 2,7,-1
 479 1328 l 1,8,9
 859 1323 859 1323 910 1037 c 1,10,-1
 751 1007 l 1,11,12
 724 1101 724 1101 660 1136 c 128,-1,13
 596 1171 596 1171 475 1171 c 0,14,15
 333 1171 333 1171 266 1104 c 0,16,17
 231 1066 231 1066 231 1014 c 0,18,19
 231 956 231 956 258 921.5 c 128,-1,20
 285 887 285 887 333 864 c 0,21,22
 391 836 391 836 532 807 c 128,-1,23
 673 778 673 778 739 747 c 0,24,25
 828 703 828 703 888.5 612 c 128,-1,26
 949 521 949 521 949 396 c 0,27,28
 949 216 949 216 848.5 113.5 c 128,-1,29
 748 11 748 11 584 -6 c 1,30,31
 583 -27 583 -27 583 -70 c 1,32,33
 656 -74 656 -74 697 -118.5 c 128,-1,34
 738 -163 738 -163 738 -241 c 0,35,36
 738 -313 738 -313 680 -361 c 128,-1,37
 622 -409 622 -409 554 -409 c 0,38,39
 455 -409 455 -409 360 -348 c 1,40,-1
 398 -242 l 1,41,42
 463 -277 463 -277 499 -282 c 0,43,44
 511 -284 511 -284 522 -284 c 0,45,46
 551 -284 551 -284 575.5 -268.5 c 128,-1,47
 600 -253 600 -253 602 -226 c 2,48,-1
 602 -224 l 2,49,50
 602 -202 602 -202 577 -186 c 128,-1,51
 552 -170 552 -170 516 -170 c 0,52,53
 499 -170 499 -170 487 -171.5 c 128,-1,54
 475 -173 475 -173 470 -174.5 c 128,-1,55
 465 -176 465 -176 454.5 -180.5 c 128,-1,56
 444 -185 444 -185 438 -187 c 1,57,-1
 438 -5 l 1,58,59
 43 34 43 34 43 421 c 1,60,-1
 201 421 l 1,61,62
 201 292 201 292 274.5 218.5 c 128,-1,63
 348 145 348 145 508 145 c 0,64,65
 789 145 789 145 789 388 c 0,66,67
 789 466 789 466 751.5 519.5 c 128,-1,68
 714 573 714 573 651 601 c 0,69,70
 597 625 597 625 457 658 c 128,-1,71
 317 691 317 691 247 723 c 0,0,1
EndSplineSet
EndChar

StartChar: scedilla
Encoding: 351 351 288
Width: 1060
GlyphClass: 1
Flags: W
LayerCount: 2
Fore
SplineSet
243 571 m 0,0,1
 126 634 126 634 126 783 c 0,2,3
 127 905 127 905 224 967 c 128,-1,4
 321 1029 321 1029 464 1029 c 0,5,6
 569 1029 569 1029 678 993.5 c 128,-1,7
 787 958 787 958 844 888 c 1,8,-1
 731 777 l 1,9,10
 692 822 692 822 618.5 851.5 c 128,-1,11
 545 881 545 881 478 881 c 0,12,13
 395 881 395 881 340.5 856 c 128,-1,14
 286 831 286 831 286 787 c 0,15,16
 286 752 286 752 299 732 c 128,-1,17
 312 712 312 712 343 698 c 0,18,19
 383 681 383 681 441 658.5 c 128,-1,20
 499 636 499 636 538 621.5 c 128,-1,21
 577 607 577 607 625.5 585.5 c 128,-1,22
 674 564 674 564 706.5 544.5 c 128,-1,23
 739 525 739 525 772.5 497.5 c 128,-1,24
 806 470 806 470 825.5 439.5 c 128,-1,25
 845 409 845 409 857.5 368.5 c 128,-1,26
 870 328 870 328 870 281 c 0,27,28
 870 168 870 168 805 96 c 128,-1,29
 740 24 740 24 649 0 c 0,30,31
 603 -11 603 -11 549 -16 c 1,32,33
 548 -37 548 -37 548 -81 c 1,34,35
 621 -85 621 -85 662 -129.5 c 128,-1,36
 703 -174 703 -174 703 -252 c 0,37,38
 703 -324 703 -324 645 -372 c 128,-1,39
 587 -420 587 -420 519 -420 c 0,40,41
 420 -420 420 -420 325 -359 c 1,42,-1
 363 -253 l 1,43,44
 365 -254 365 -254 370 -257 c 0,45,46
 440 -295 440 -295 487 -295 c 0,47,48
 516 -295 516 -295 540.5 -279.5 c 128,-1,49
 565 -264 565 -264 567 -237 c 2,50,-1
 567 -235 l 2,51,52
 567 -213 567 -213 542 -197 c 128,-1,53
 517 -181 517 -181 481 -181 c 0,54,55
 464 -181 464 -181 452 -182.5 c 128,-1,56
 440 -184 440 -184 435 -185.5 c 128,-1,57
 430 -187 430 -187 419.5 -191.5 c 128,-1,58
 409 -196 409 -196 403 -198 c 1,59,-1
 403 -16 l 1,60,61
 250 2 250 2 171 92.5 c 128,-1,62
 92 183 92 183 92 330 c 1,63,-1
 249 329 l 1,64,65
 249 123 249 123 473 123 c 0,66,67
 573 123 573 123 644 165.5 c 128,-1,68
 715 208 715 208 715 286 c 0,69,70
 715 336 715 336 696 363 c 128,-1,71
 677 390 677 390 629 426 c 0,72,73
 587 456 587 456 434 504 c 128,-1,74
 281 552 281 552 243 571 c 0,0,1
EndSplineSet
EndChar

StartChar: Tcommaaccent
Encoding: 354 354 291
Width: 1060
GlyphClass: 1
Flags: W
LayerCount: 2
Fore
SplineSet
403 -9 m 2,0,-1
 403 1167 l 1,1,2
 289 1167 289 1167 175.5 1166.5 c 128,-1,3
 62 1166 62 1166 39 1166 c 1,4,-1
 39 1324 l 1,5,6
 92 1324 92 1324 396.5 1324.5 c 128,-1,7
 701 1325 701 1325 803 1325 c 0,8,9
 853 1325 853 1325 943 1310 c 1,10,-1
 910 1155 l 1,11,12
 848 1167 848 1167 798 1167 c 2,13,-1
 563 1167 l 1,14,-1
 563 -28 l 1,15,16
 635 -32 635 -32 671.5 -76 c 128,-1,17
 708 -120 708 -120 708 -199 c 0,18,19
 708 -271 708 -271 650 -319 c 128,-1,20
 592 -367 592 -367 524 -367 c 0,21,22
 425 -367 425 -367 330 -306 c 1,23,-1
 368 -200 l 1,24,25
 370 -201 370 -201 375 -204 c 0,26,27
 445 -242 445 -242 492 -242 c 0,28,29
 521 -242 521 -242 545.5 -226.5 c 128,-1,30
 570 -211 570 -211 572 -184 c 2,31,-1
 572 -182 l 2,32,33
 572 -160 572 -160 547 -144 c 128,-1,34
 522 -128 522 -128 486 -128 c 0,35,36
 469 -128 469 -128 457 -129.5 c 128,-1,37
 445 -131 445 -131 440 -132.5 c 128,-1,38
 435 -134 435 -134 424.5 -138.5 c 128,-1,39
 414 -143 414 -143 408 -145 c 1,40,-1
 408 -114 l 2,41,42
 405 -85 405 -85 403 -9 c 2,0,-1
EndSplineSet
EndChar

StartChar: tcommaaccent
Encoding: 355 355 292
Width: 1060
GlyphClass: 1
Flags: W
LayerCount: 2
Fore
SplineSet
321 437 m 2,0,-1
 321 397 l 2,1,2
 321 167 321 167 468 152 c 0,3,4
 495 149 495 149 576 149 c 0,5,6
 687 149 687 149 730 173 c 0,7,8
 784 202 784 202 812 277 c 1,9,-1
 938 221 l 2,10,11
 938 220 938 220 934.5 209.5 c 128,-1,12
 931 199 931 199 928.5 193.5 c 128,-1,13
 926 188 926 188 921 175.5 c 128,-1,14
 916 163 916 163 910.5 154 c 128,-1,15
 905 145 905 145 896.5 131.5 c 128,-1,16
 888 118 888 118 878 107 c 128,-1,17
 868 96 868 96 855.5 83.5 c 128,-1,18
 843 71 843 71 827 59 c 128,-1,19
 811 47 811 47 793 37 c 0,20,21
 733 2 733 2 627 -5 c 1,22,-1
 627 -38 l 1,23,24
 700 -42 700 -42 741 -86.5 c 128,-1,25
 782 -131 782 -131 782 -209 c 0,26,27
 782 -281 782 -281 724 -329 c 128,-1,28
 666 -377 666 -377 598 -377 c 0,29,30
 499 -377 499 -377 404 -316 c 1,31,-1
 442 -210 l 1,32,33
 507 -245 507 -245 543 -250 c 0,34,35
 555 -252 555 -252 566 -252 c 0,36,37
 595 -252 595 -252 619.5 -236.5 c 128,-1,38
 644 -221 644 -221 646 -194 c 2,39,-1
 646 -192 l 2,40,41
 646 -170 646 -170 621 -154 c 128,-1,42
 596 -138 596 -138 560 -138 c 0,43,44
 543 -138 543 -138 531 -139.5 c 128,-1,45
 519 -141 519 -141 514 -142.5 c 128,-1,46
 509 -144 509 -144 498.5 -148.5 c 128,-1,47
 488 -153 488 -153 482 -155 c 1,48,-1
 482 -3 l 1,49,50
 376 3 376 3 309 39 c 128,-1,51
 242 75 242 75 201 161 c 0,52,53
 162 241 162 241 162 394 c 2,54,-1
 162 437 l 2,55,56
 164 491 164 491 167.5 632 c 128,-1,57
 171 773 171 773 174 865 c 1,58,-1
 160 865 l 2,59,60
 119 865 119 865 78 854 c 1,61,-1
 58 1000 l 1,62,63
 90 1012 90 1012 160 1012 c 2,64,-1
 175 1012 l 1,65,66
 175 1047 175 1047 175.5 1129 c 128,-1,67
 176 1211 176 1211 176 1246 c 1,68,-1
 334 1245 l 1,69,70
 334 1153 334 1153 332 1017 c 1,71,-1
 454 1017 l 1,72,-1
 753 1019 l 1,73,-1
 771 1019 l 1,74,-1
 771 872 l 1,75,-1
 454 872 l 2,76,77
 431 872 431 872 394.5 870.5 c 128,-1,78
 358 869 358 869 335 869 c 1,79,80
 330 751 330 751 326 608.5 c 128,-1,81
 322 466 322 466 321 437 c 2,0,-1
EndSplineSet
EndChar

